CommonSerif-Bold.ufo
<glyph name="exclam" format="2">
  <advance width="266"/>
  <unicode hex="0021"/>
  <outline>
    <contour>
      <point x="133" y="658" type="curve" smooth="yes"/>
      <point x="102" y="658"/>
      <point x="61" y="639"/>
      <point x="61" y="583" type="curve" smooth="yes"/>
      <point x="61" y="471"/>
      <point x="103" y="349"/>
      <point x="103" y="230" type="curve" smooth="yes"/>
      <point x="103" y="202"/>
      <point x="113" y="188"/>
      <point x="133" y="188" type="curve" smooth="yes"/>
      <point x="151" y="188"/>
      <point x="161" y="203"/>
      <point x="161" y="230" type="curve" smooth="yes"/>
      <point x="161" y="349"/>
      <point x="205" y="466"/>
      <point x="205" y="583" type="curve" smooth="yes"/>
      <point x="205" y="634"/>
      <point x="170" y="658"/>
    </contour>
    <contour>
      <point x="60" y="60" type="curve" smooth="yes"/>
      <point x="60" y="22"/>
      <point x="92" y="-10"/>
      <point x="132" y="-10" type="curve" smooth="yes"/>
      <point x="172" y="-10"/>
      <point x="206" y="21"/>
      <point x="206" y="60" type="curve" smooth="yes"/>
      <point x="206" y="98"/>
      <point x="174" y="129"/>
      <point x="134" y="129" type="curve" smooth="yes"/>
      <point x="94" y="129"/>
      <point x="60" y="99"/>
    </contour>
  </outline>
</glyph>
<glyph name="quotedbl" format="2">
	<unicode hex="0022"/>
	<advance width="376"/>
	<outline>
		<contour>
			<point x="95" y="415" type="line"/>
			<point x="110" y="411" type="line"/>
			<point x="136" y="417" type="line"/>
			<point x="173" y="608" type="line"/>
			<point x="173" y="626"/>
			<point x="170" y="645"/>
			<point x="133" y="645" type="curve" smooth="yes"/>
			<point x="85" y="645"/>
			<point x="63" y="614"/>
			<point x="63" y="591" type="curve"/>
		</contour>
		<contour>
			<point x="236" y="415" type="line"/>
			<point x="251" y="411" type="line"/>
			<point x="277" y="417" type="line"/>
			<point x="314" y="608" type="line"/>
			<point x="314" y="626"/>
			<point x="311" y="645"/>
			<point x="274" y="645" type="curve" smooth="yes"/>
			<point x="226" y="645"/>
			<point x="204" y="614"/>
			<point x="204" y="591" type="curve"/>
		</contour>
	</outline>
</glyph>
<glyph name="ampersand" format="2">
  <advance width="729"/>
  <unicode hex="0026"/>
  <outline>
    <contour>
      <point x="422" y="54" type="curve" smooth="yes"/>
      <point x="458.429" y="6.44014"/>
      <point x="501" y="-10"/>
      <point x="566" y="-10" type="curve" smooth="yes"/>
      <point x="611" y="-10"/>
      <point x="661" y="10"/>
      <point x="699" y="61" type="curve"/>
      <point x="699" y="76"/>
      <point x="691" y="97"/>
      <point x="681" y="97" type="curve"/>
      <point x="660" y="72"/>
      <point x="633" y="51"/>
      <point x="601" y="51" type="curve" smooth="yes"/>
      <point x="566" y="51"/>
      <point x="522.376" y="101.587"/>
      <point x="493" y="143" type="curve" smooth="yes"/>
      <point x="430.15" y="231.603"/>
      <point x="369.361" y="320.724"/>
      <point x="312" y="413" type="curve" smooth="yes"/>
      <point x="294.019" y="441.926"/>
      <point x="258" y="501"/>
      <point x="258" y="536" type="curve" smooth="yes"/>
      <point x="258" y="582"/>
      <point x="283" y="616"/>
      <point x="324" y="616" type="curve" smooth="yes"/>
      <point x="358" y="616"/>
      <point x="383" y="580"/>
      <point x="383" y="537" type="curve" smooth="yes"/>
      <point x="383" y="496.224"/>
      <point x="347.778" y="434.8"/>
      <point x="298.75" y="403.592" type="curve"/>
      <point x="318.792" y="369.94" type="line"/>
      <point x="412.834" y="403.165"/>
      <point x="485" y="460.988"/>
      <point x="485" y="547" type="curve" smooth="yes"/>
      <point x="485" y="597"/>
      <point x="434" y="658"/>
      <point x="342" y="658" type="curve" smooth="yes"/>
      <point x="241" y="658"/>
      <point x="151" y="599"/>
      <point x="151" y="507.799" type="curve" smooth="yes"/>
      <point x="151" y="456.918"/>
      <point x="176.86" y="406.472"/>
      <point x="202.516" y="367.529" type="curve" smooth="yes"/>
      <point x="272.784" y="260.867"/>
      <point x="344.322" y="155.414"/>
    </contour>
    <contour>
      <point x="39" y="144" type="curve" smooth="yes"/>
      <point x="39" y="50"/>
      <point x="113" y="-10"/>
      <point x="232" y="-10" type="curve" smooth="yes"/>
      <point x="316.801" y="-10"/>
      <point x="382.014" y="29.1769"/>
      <point x="425.165" y="75.3719" type="curve"/>
      <point x="395.717" y="116.659" type="line"/>
      <point x="361.797" y="63.4364"/>
      <point x="325.007" y="41"/>
      <point x="277" y="41" type="curve" smooth="yes"/>
      <point x="210" y="41"/>
      <point x="167" y="92"/>
      <point x="167" y="170" type="curve" smooth="yes"/>
      <point x="167" y="222.263"/>
      <point x="176.484" y="274.526"/>
      <point x="253.538" y="330.661" type="curve"/>
      <point x="236.833" y="360.16" type="line"/>
      <point x="85.5175" y="292.555"/>
      <point x="39" y="216.616"/>
    </contour>
    <contour>
      <point x="479.838" y="143" type="line"/>
      <point x="523.332" y="199.787"/>
      <point x="577.385" y="284.283"/>
      <point x="601" y="324" type="curve" smooth="yes"/>
      <point x="627" y="368"/>
      <point x="653" y="396"/>
      <point x="704" y="402" type="curve"/>
      <point x="710" y="408"/>
      <point x="710" y="430"/>
      <point x="704" y="436" type="curve"/>
      <point x="682" y="435"/>
      <point x="633" y="434"/>
      <point x="611" y="434" type="curve" smooth="yes"/>
      <point x="574" y="434"/>
      <point x="537" y="435"/>
      <point x="510" y="436" type="curve"/>
      <point x="504" y="430"/>
      <point x="504" y="408"/>
      <point x="510" y="402" type="curve"/>
      <point x="544.257" y="399.638"/>
      <point x="554.786" y="383.673"/>
      <point x="554.785" y="368.881" type="curve" smooth="yes"/>
      <point x="554.783" y="347.562"/>
      <point x="549.947" y="333.492"/>
      <point x="530.755" y="299.953" type="curve" smooth="yes"/>
      <point x="525.242" y="290.317" type="line" smooth="yes"/>
      <point x="501.858" y="249.453"/>
      <point x="480.604" y="218.06"/>
      <point x="452.944" y="181.553" type="curve"/>
    </contour>
  </outline>
</glyph>
<glyph name="parenleft" format="2">
  <advance width="315"/>
  <unicode hex="0028"/>
  <outline>
    <contour>
      <point x="36" y="253" type="curve" smooth="yes"/>
      <point x="36" y="94.174"/>
      <point x="129.31" y="-93.2498"/>
      <point x="268" y="-213" type="curve"/>
      <point x="283.725" y="-209.558"/>
      <point x="298" y="-192"/>
      <point x="298" y="-181" type="curve"/>
      <point x="209.765" y="-81.7362"/>
      <point x="151" y="91.7619"/>
      <point x="151" y="253" type="curve" smooth="yes"/>
      <point x="151" y="410.011"/>
      <point x="209.737" y="583.027"/>
      <point x="298" y="686" type="curve"/>
      <point x="298" y="697.415"/>
      <point x="282.991" y="717.676"/>
      <point x="270" y="720" type="curve"/>
      <point x="124.192" y="594.226"/>
      <point x="36" y="418.22"/>
    </contour>
  </outline>
</glyph>
<glyph name="parenright" format="2">
  <advance width="315"/>
  <unicode hex="0029"/>
  <outline>
    <contour>
      <point x="279" y="251" type="curve" smooth="yes"/>
      <point x="279" y="410.136"/>
      <point x="185.961" y="597.016"/>
      <point x="47" y="717" type="curve"/>
      <point x="32.4237" y="715.073"/>
      <point x="15.8228" y="697.366"/>
      <point x="17" y="685" type="curve"/>
      <point x="105.235" y="585.736"/>
      <point x="164" y="412.238"/>
      <point x="164" y="251" type="curve" smooth="yes"/>
      <point x="164" y="90.3648"/>
      <point x="105.382" y="-83.1124"/>
      <point x="17" y="-182" type="curve"/>
      <point x="17" y="-192.913"/>
      <point x="34.2894" y="-213.907"/>
      <point x="45" y="-216" type="curve"/>
      <point x="185.259" y="-95.0129"/>
      <point x="279" y="92.0678"/>
    </contour>
  </outline>
</glyph>
<glyph name="asterisk" format="2">
  <advance width="433"/>
  <unicode hex="002A"/>
  <outline>
    <contour>
      <point x="114" y="486.078" type="curve" smooth="yes"/>
      <point x="114" y="463.122"/>
      <point x="126.686" y="451"/>
      <point x="150.711" y="451" type="curve" smooth="yes"/>
      <point x="202" y="451"/>
      <point x="188" y="506.043"/>
      <point x="213" y="550.274" type="curve"/>
      <point x="238" y="511.94"/>
      <point x="235" y="451"/>
      <point x="279.328" y="451" type="curve" smooth="yes"/>
      <point x="301.507" y="451"/>
      <point x="316" y="465.263"/>
      <point x="316" y="487.087" type="curve" smooth="yes"/>
      <point x="316" y="529.632"/>
      <point x="265" y="527.667"/>
      <point x="231" y="563.051" type="curve"/>
      <point x="244.75" y="565.304"/>
      <point x="257.5" y="566"/>
      <point x="285" y="566" type="curve" smooth="yes"/>
      <point x="327.143" y="566"/>
      <point x="354" y="582.348"/>
      <point x="354" y="608" type="curve" smooth="yes"/>
      <point x="354" y="627.668"/>
      <point x="339.24" y="642.089"/>
      <point x="319.041" y="642.155" type="curve" smooth="yes"/>
      <point x="284.712" y="642.268"/>
      <point x="255.743" y="600.558"/>
      <point x="226" y="588" type="curve"/>
      <point x="228" y="618"/>
      <point x="251" y="656"/>
      <point x="251" y="681.783" type="curve" smooth="yes"/>
      <point x="251" y="701.959"/>
      <point x="234.26" y="718"/>
      <point x="213.205" y="718" type="curve" smooth="yes"/>
      <point x="192.278" y="718"/>
      <point x="173" y="699.3"/>
      <point x="173" y="679" type="curve" smooth="yes"/>
      <point x="173" y="653"/>
      <point x="199" y="628"/>
      <point x="203" y="588" type="curve"/>
      <point x="159" y="607"/>
      <point x="142" y="640"/>
      <point x="108" y="640" type="curve" smooth="yes"/>
      <point x="86.9821" y="640"/>
      <point x="73.6283" y="625.162"/>
      <point x="73.6283" y="601.807" type="curve" smooth="yes"/>
      <point x="73.6283" y="578.471"/>
      <point x="87.7342" y="568.198"/>
      <point x="119.689" y="568.262" type="curve" smooth="yes"/>
      <point x="144.889" y="568.312"/>
      <point x="175.302" y="573.9"/>
      <point x="197" y="564.034" type="curve"/>
      <point x="164" y="526.684"/>
      <point x="114" y="531.598"/>
    </contour>
  </outline>
</glyph>
<glyph name="comma" format="2">
  <advance width="244"/>
  <unicode hex="002C"/>
  <outline>
    <contour>
      <point x="117.264" y="127" type="curve" smooth="yes"/>
      <point x="76.9933" y="127"/>
      <point x="49" y="99.0067"/>
      <point x="49" y="62.6226" type="curve" smooth="yes"/>
      <point x="49" y="38.0559"/>
      <point x="65.7632" y="14.7456"/>
      <point x="89" y="7" type="curve" smooth="yes"/>
      <point x="98" y="4" type="line" smooth="yes"/>
      <point x="110.333" y="-0.111"/>
      <point x="125" y="-9"/>
      <point x="125" y="-32.9088" type="curve" smooth="yes"/>
      <point x="125" y="-73.8851"/>
      <point x="82.9685" y="-121.608"/>
      <point x="29" y="-136" type="curve"/>
      <point x="29" y="-151.691"/>
      <point x="31.2254" y="-158.077"/>
      <point x="36" y="-167" type="curve"/>
      <point x="120.654" y="-153.272"/>
      <point x="199" y="-64.7036"/>
      <point x="199" y="17.2678" type="curve" smooth="yes"/>
      <point x="199" y="88.1686"/>
      <point x="170.076" y="127"/>
    </contour>
  </outline>
</glyph>
<glyph name="one" format="2">
  <advance width="514"/>
  <unicode hex="0031"/>
  <outline>
    <contour>
      <point x="134" y="-2" type="curve"/>
      <point x="216" y="-1"/>
      <point x="263" y="0"/>
      <point x="303" y="0" type="curve" smooth="yes"/>
      <point x="343" y="0"/>
      <point x="388" y="-1"/>
      <point x="470" y="-2" type="curve"/>
      <point x="480" y="4"/>
      <point x="480" y="26"/>
      <point x="470" y="32" type="curve"/>
      <point x="415" y="35"/>
      <point x="367" y="39"/>
      <point x="367" y="122" type="curve" smooth="yes"/>
      <point x="367" y="483" type="line" smooth="yes"/>
      <point x="367" y="536"/>
      <point x="374" y="587"/>
      <point x="375" y="593" type="curve"/>
      <point x="375" y="606"/>
      <point x="367" y="610"/>
      <point x="358" y="610" type="curve"/>
      <point x="315" y="588"/>
      <point x="246" y="561"/>
      <point x="92" y="507" type="curve"/>
      <point x="93" y="490"/>
      <point x="100" y="474"/>
      <point x="114" y="464" type="curve"/>
      <point x="157" y="479"/>
      <point x="195" y="489"/>
      <point x="210" y="489" type="curve" smooth="yes"/>
      <point x="230" y="489"/>
      <point x="237" y="477"/>
      <point x="237" y="448" type="curve" smooth="yes"/>
      <point x="237" y="122" type="line" smooth="yes"/>
      <point x="237" y="39"/>
      <point x="189" y="35"/>
      <point x="134" y="32" type="curve"/>
      <point x="124" y="26"/>
      <point x="124" y="4"/>
    </contour>
  </outline>
</glyph>
<glyph name="two" format="2">
  <advance width="514"/>
  <unicode hex="0032"/>
  <outline>
    <contour>
      <point x="39" y="32" type="curve" smooth="yes"/>
      <point x="39" y="21"/>
      <point x="41" y="10"/>
      <point x="44" y="0" type="curve"/>
      <point x="76" y="0"/>
      <point x="107" y="0"/>
      <point x="140" y="0" type="curve" smooth="yes"/>
      <point x="331" y="0" type="line" smooth="yes"/>
      <point x="364" y="0"/>
      <point x="396" y="0"/>
      <point x="429" y="0" type="curve"/>
      <point x="434" y="45"/>
      <point x="446" y="114"/>
      <point x="460" y="164" type="curve"/>
      <point x="447" y="170"/>
      <point x="438" y="174"/>
      <point x="414" y="174" type="curve"/>
      <point x="394" y="112"/>
      <point x="355" y="79"/>
      <point x="303" y="79" type="curve" smooth="yes"/>
      <point x="189" y="79" type="line"/>
      <point x="192" y="111"/>
      <point x="202" y="138"/>
      <point x="234" y="168" type="curve" smooth="yes"/>
      <point x="354" y="279" type="line" smooth="yes"/>
      <point x="427" y="344"/>
      <point x="453" y="375"/>
      <point x="453" y="449" type="curve" smooth="yes"/>
      <point x="453" y="554"/>
      <point x="364" y="610"/>
      <point x="261" y="610" type="curve" smooth="yes"/>
      <point x="119" y="610"/>
      <point x="50" y="517"/>
      <point x="50" y="454" type="curve" smooth="yes"/>
      <point x="50" y="423"/>
      <point x="79" y="400"/>
      <point x="109" y="400" type="curve" smooth="yes"/>
      <point x="138" y="400"/>
      <point x="167" y="422"/>
      <point x="167" y="453" type="curve" smooth="yes"/>
      <point x="167" y="458"/>
      <point x="165" y="465"/>
      <point x="162" y="474" type="curve"/>
      <point x="159" y="481"/>
      <point x="156" y="490"/>
      <point x="156" y="501" type="curve" smooth="yes"/>
      <point x="156" y="536"/>
      <point x="195" y="570"/>
      <point x="238" y="570" type="curve" smooth="yes"/>
      <point x="296" y="570"/>
      <point x="323" y="531"/>
      <point x="323" y="446" type="curve" smooth="yes"/>
      <point x="323" y="370"/>
      <point x="299" y="316"/>
      <point x="240" y="259" type="curve" smooth="yes"/>
      <point x="183" y="205" type="line" smooth="yes"/>
      <point x="59" y="87"/>
      <point x="39" y="59"/>
    </contour>
  </outline>
</glyph>
<glyph name="three" format="2">
  <advance width="514"/>
  <unicode hex="0033"/>
  <outline>
    <contour>
      <point x="236" y="570" type="curve" smooth="yes"/>
      <point x="288" y="570"/>
      <point x="311" y="548"/>
      <point x="311" y="500" type="curve" smooth="yes"/>
      <point x="311" y="423"/>
      <point x="252" y="361"/>
      <point x="158" y="339" type="curve"/>
      <point x="165" y="299" type="line"/>
      <point x="186" y="305"/>
      <point x="198" y="307"/>
      <point x="215" y="307" type="curve" smooth="yes"/>
      <point x="294" y="307"/>
      <point x="337" y="260"/>
      <point x="337" y="174" type="curve" smooth="yes"/>
      <point x="337" y="89"/>
      <point x="295" y="30"/>
      <point x="234" y="30" type="curve" smooth="yes"/>
      <point x="205" y="30"/>
      <point x="181" y="44"/>
      <point x="160" y="72" type="curve" smooth="yes"/>
      <point x="142" y="97"/>
      <point x="122" y="110"/>
      <point x="99" y="110" type="curve" smooth="yes"/>
      <point x="71" y="110"/>
      <point x="46" y="89"/>
      <point x="46" y="66" type="curve" smooth="yes"/>
      <point x="46" y="26"/>
      <point x="124" y="-10"/>
      <point x="208" y="-10" type="curve" smooth="yes"/>
      <point x="348" y="-10"/>
      <point x="467" y="95"/>
      <point x="467" y="218" type="curve" smooth="yes"/>
      <point x="467" y="300"/>
      <point x="414" y="358"/>
      <point x="335" y="363" type="curve"/>
      <point x="335" y="365" type="line"/>
      <point x="390" y="395"/>
      <point x="429" y="452"/>
      <point x="429" y="504" type="curve" smooth="yes"/>
      <point x="429" y="571"/>
      <point x="367" y="610"/>
      <point x="262" y="610" type="curve" smooth="yes"/>
      <point x="158" y="610"/>
      <point x="61" y="553"/>
      <point x="61" y="491" type="curve" smooth="yes"/>
      <point x="61" y="464"/>
      <point x="76" y="450"/>
      <point x="105" y="450" type="curve" smooth="yes"/>
      <point x="141" y="450"/>
      <point x="161" y="470"/>
      <point x="161" y="507" type="curve" smooth="yes"/>
      <point x="161" y="548"/>
      <point x="187" y="570"/>
    </contour>
  </outline>
</glyph>
<glyph name="four" format="2">
  <advance width="514"/>
  <unicode hex="0034"/>
  <outline>
    <contour>
      <point x="53" y="162" type="curve" smooth="yes"/>
      <point x="261" y="162" type="line"/>
      <point x="261" y="122" type="line" smooth="yes"/>
      <point x="261" y="50"/>
      <point x="238" y="36"/>
      <point x="168" y="32" type="curve"/>
      <point x="158" y="26"/>
      <point x="158" y="4"/>
      <point x="168" y="-2" type="curve"/>
      <point x="250" y="-1"/>
      <point x="284" y="0"/>
      <point x="324" y="0" type="curve" smooth="yes"/>
      <point x="337" y="0" type="line" smooth="yes"/>
      <point x="372" y="0"/>
      <point x="405" y="-1"/>
      <point x="478" y="-2" type="curve"/>
      <point x="488" y="4"/>
      <point x="488" y="26"/>
      <point x="478" y="32" type="curve"/>
      <point x="407" y="35"/>
      <point x="385" y="52"/>
      <point x="385" y="122" type="curve" smooth="yes"/>
      <point x="385" y="162" type="line"/>
      <point x="469" y="162" type="line" smooth="yes"/>
      <point x="483" y="162"/>
      <point x="498" y="181"/>
      <point x="498" y="193" type="curve" smooth="yes"/>
      <point x="498" y="203"/>
      <point x="494" y="209"/>
      <point x="483" y="209" type="curve" smooth="yes"/>
      <point x="385" y="209" type="line"/>
      <point x="385" y="523" type="line" smooth="yes"/>
      <point x="385" y="552"/>
      <point x="386" y="579"/>
      <point x="387" y="608" type="curve"/>
      <point x="385" y="610" type="line"/>
      <point x="305" y="610" type="line" smooth="yes"/>
      <point x="293" y="610"/>
      <point x="285" y="604"/>
      <point x="278" y="594" type="curve" smooth="yes"/>
      <point x="267" y="579" type="line" smooth="yes"/>
      <point x="190" y="474"/>
      <point x="107" y="347"/>
      <point x="30" y="223" type="curve" smooth="yes"/>
      <point x="22" y="210" type="line"/>
      <point x="22" y="181"/>
      <point x="39" y="162"/>
    </contour>
    <contour>
      <point x="77" y="209" type="line"/>
      <point x="131" y="306"/>
      <point x="208" y="429"/>
      <point x="261" y="501" type="curve"/>
      <point x="261" y="209" type="line"/>
    </contour>
  </outline>
</glyph>
<glyph name="five" format="2">
  <advance width="514"/>
  <unicode hex="0035"/>
  <outline>
    <contour>
      <point x="52" y="71" type="curve" smooth="yes"/>
      <point x="52" y="28"/>
      <point x="132" y="-10"/>
      <point x="221" y="-10" type="curve" smooth="yes"/>
      <point x="370" y="-10"/>
      <point x="460" y="80"/>
      <point x="460" y="228" type="curve" smooth="yes"/>
      <point x="460" y="329"/>
      <point x="385" y="394"/>
      <point x="269" y="394" type="curve" smooth="yes"/>
      <point x="220" y="394"/>
      <point x="195" y="391"/>
      <point x="151" y="381" type="curve"/>
      <point x="170" y="513" type="line"/>
      <point x="196" y="510"/>
      <point x="253" y="508"/>
      <point x="298" y="508" type="curve" smooth="yes"/>
      <point x="315" y="508" type="line" smooth="yes"/>
      <point x="350" y="508"/>
      <point x="368" y="509"/>
      <point x="430" y="514" type="curve"/>
      <point x="449" y="600" type="line"/>
      <point x="426" y="613" type="line"/>
      <point x="356" y="603"/>
      <point x="318" y="600"/>
      <point x="256" y="600" type="curve" smooth="yes"/>
      <point x="239" y="600" type="line" smooth="yes"/>
      <point x="201" y="600"/>
      <point x="167" y="603"/>
      <point x="126" y="610" type="curve"/>
      <point x="86" y="312" type="line"/>
      <point x="99" y="304" type="line"/>
      <point x="147" y="328"/>
      <point x="184" y="338"/>
      <point x="223" y="338" type="curve" smooth="yes"/>
      <point x="291" y="338"/>
      <point x="323" y="290"/>
      <point x="323" y="188" type="curve" smooth="yes"/>
      <point x="323" y="92"/>
      <point x="289" y="34"/>
      <point x="233" y="34" type="curve" smooth="yes"/>
      <point x="217" y="34"/>
      <point x="203" y="46"/>
      <point x="178" y="79" type="curve" smooth="yes"/>
      <point x="169" y="91" type="line" smooth="yes"/>
      <point x="156" y="108"/>
      <point x="132" y="118"/>
      <point x="103" y="118" type="curve" smooth="yes"/>
      <point x="73" y="118"/>
      <point x="52" y="99"/>
    </contour>
  </outline>
</glyph>
<glyph name="six" format="2">
  <advance width="514"/>
  <unicode hex="0036"/>
  <outline>
    <contour>
      <point x="44" y="246" type="curve" smooth="yes"/>
      <point x="44" y="34"/>
      <point x="163" y="-10"/>
      <point x="263" y="-10" type="curve" smooth="yes"/>
      <point x="398" y="-10"/>
      <point x="477" y="70"/>
      <point x="477" y="205" type="curve" smooth="yes"/>
      <point x="477" y="302"/>
      <point x="402" y="365"/>
      <point x="286" y="365" type="curve" smooth="yes"/>
      <point x="247" y="365"/>
      <point x="209" y="350"/>
      <point x="176" y="330" type="curve"/>
      <point x="193" y="479"/>
      <point x="286" y="560"/>
      <point x="450" y="569" type="curve"/>
      <point x="453" y="581"/>
      <point x="452" y="600"/>
      <point x="444" y="610" type="curve"/>
      <point x="188" y="591"/>
      <point x="44" y="460"/>
    </contour>
    <contour>
      <point x="168" y="212" type="curve" smooth="yes"/>
      <point x="168" y="238"/>
      <point x="169" y="263"/>
      <point x="171" y="289" type="curve"/>
      <point x="209" y="313"/>
      <point x="230" y="315"/>
      <point x="248" y="315" type="curve" smooth="yes"/>
      <point x="304" y="315"/>
      <point x="343" y="262"/>
      <point x="343" y="187" type="curve" smooth="yes"/>
      <point x="343" y="92"/>
      <point x="316" y="31"/>
      <point x="275" y="31" type="curve" smooth="yes"/>
      <point x="208" y="31"/>
      <point x="168" y="98"/>
    </contour>
  </outline>
</glyph>
<glyph name="seven" format="2">
  <advance width="514"/>
  <unicode hex="0037"/>
  <outline>
    <contour>
      <point x="121" y="0" type="curve"/>
      <point x="127" y="-12" type="line"/>
      <point x="229" y="-2" type="line"/>
      <point x="281.662" y="169.373"/>
      <point x="344.047" y="319.981"/>
      <point x="479" y="591" type="curve"/>
      <point x="473" y="600" type="line"/>
      <point x="445" y="600"/>
      <point x="417" y="600"/>
      <point x="389" y="600" type="curve" smooth="yes"/>
      <point x="138" y="600" type="line" smooth="yes"/>
      <point x="104" y="600"/>
      <point x="102" y="610"/>
      <point x="84" y="614" type="curve"/>
      <point x="81" y="614"/>
      <point x="80" y="614"/>
      <point x="80" y="611" type="curve" smooth="yes"/>
      <point x="80" y="563"/>
      <point x="68" y="466"/>
      <point x="60" y="414" type="curve"/>
      <point x="73" y="410"/>
      <point x="83" y="409"/>
      <point x="95" y="411" type="curve"/>
      <point x="117" y="491"/>
      <point x="151" y="498"/>
      <point x="184" y="498" type="curve" smooth="yes"/>
      <point x="379" y="498" type="line"/>
      <point x="249.771" y="294.949"/>
      <point x="145.88" y="105.55"/>
    </contour>
  </outline>
</glyph>
<glyph name="eight" format="2">
  <advance width="514"/>
  <unicode hex="0038"/>
  <outline>
    <contour>
      <point x="451" y="483" type="curve" smooth="yes"/>
      <point x="451" y="563"/>
      <point x="383" y="610"/>
      <point x="272" y="610" type="curve" smooth="yes"/>
      <point x="145" y="610"/>
      <point x="65" y="551"/>
      <point x="65" y="457" type="curve" smooth="yes"/>
      <point x="65" y="402"/>
      <point x="91" y="367"/>
      <point x="161" y="331" type="curve" smooth="yes"/>
      <point x="182" y="320" type="line"/>
      <point x="80" y="269"/>
      <point x="34" y="215"/>
      <point x="34" y="144" type="curve" smooth="yes"/>
      <point x="34" y="48"/>
      <point x="116" y="-10"/>
      <point x="250" y="-10" type="curve" smooth="yes"/>
      <point x="381" y="-10"/>
      <point x="480" y="67"/>
      <point x="480" y="169" type="curve" smooth="yes"/>
      <point x="480" y="228"/>
      <point x="448" y="282"/>
      <point x="396" y="315" type="curve"/>
      <point x="339" y="348" type="line"/>
      <point x="406" y="367"/>
      <point x="451" y="421"/>
    </contour>
    <contour>
      <point x="252" y="30" type="curve" smooth="yes"/>
      <point x="189" y="30"/>
      <point x="157" y="70"/>
      <point x="157" y="149" type="curve" smooth="yes"/>
      <point x="157" y="216"/>
      <point x="179" y="265"/>
      <point x="223" y="296" type="curve"/>
      <point x="277" y="267" type="line" smooth="yes"/>
      <point x="336" y="236"/>
      <point x="357" y="205"/>
      <point x="357" y="147" type="curve" smooth="yes"/>
      <point x="357" y="73"/>
      <point x="318" y="30"/>
    </contour>
    <contour>
      <point x="266" y="576" type="curve" smooth="yes"/>
      <point x="309" y="576"/>
      <point x="335" y="544"/>
      <point x="335" y="489" type="curve" smooth="yes"/>
      <point x="335" y="446"/>
      <point x="318" y="395"/>
      <point x="296" y="372" type="curve"/>
      <point x="246" y="398" type="line" smooth="yes"/>
      <point x="213" y="415"/>
      <point x="188" y="456"/>
      <point x="188" y="495" type="curve" smooth="yes"/>
      <point x="188" y="541"/>
      <point x="221" y="576"/>
    </contour>
  </outline>
</glyph>
<glyph name="nine" format="2">
	<unicode hex="0039"/>
	<advance width="514"/>
	<outline>
		<contour>
			<point x="71" y="31" type="curve"/>
			<point x="68" y="19"/>
			<point x="69" y="0"/>
			<point x="77" y="-10" type="curve"/>
			<point x="307" y="-3"/>
			<point x="477" y="105"/>
			<point x="477" y="353.517" type="curve" smooth="yes"/>
			<point x="477" y="566.021"/>
			<point x="359" y="610"/>
			<point x="258" y="610" type="curve" smooth="yes"/>
			<point x="102" y="610"/>
			<point x="44" y="482.608"/>
			<point x="44" y="395.224" type="curve" smooth="yes"/>
			<point x="44" y="346.566"/>
			<point x="87" y="235"/>
			<point x="235" y="235" type="curve" smooth="yes"/>
			<point x="273" y="235"/>
			<point x="312" y="251"/>
			<point x="344" y="270" type="curve"/>
			<point x="326" y="110"/>
			<point x="224" y="39"/>
		</contour>
		<contour>
			<point x="350" y="310.818" type="curve"/>
			<point x="312" y="286.986"/>
			<point x="291" y="285"/>
			<point x="273" y="285" type="curve" smooth="yes"/>
			<point x="206" y="285"/>
			<point x="178" y="353.517"/>
			<point x="178" y="413.098" type="curve" smooth="yes"/>
			<point x="178" y="520.343"/>
			<point x="210" y="569"/>
			<point x="246" y="569" type="curve" smooth="yes"/>
			<point x="342" y="569"/>
			<point x="351" y="427.993"/>
			<point x="351" y="357.49" type="curve" smooth="yes"/>
			<point x="351" y="346.566"/>
			<point x="351" y="321.741"/>
		</contour>
	</outline>
</glyph>
<glyph name="semicolon" format="2">
  <advance width="256"/>
  <unicode hex="003B"/>
  <outline>
    <contour>
      <point x="129.264" y="127" type="curve" smooth="yes"/>
      <point x="88.9933" y="127"/>
      <point x="61" y="99.0067"/>
      <point x="61" y="62.6226" type="curve" smooth="yes"/>
      <point x="61" y="38.0559"/>
      <point x="77.7632" y="14.7456"/>
      <point x="101" y="7" type="curve" smooth="yes"/>
      <point x="110" y="4" type="line" smooth="yes"/>
      <point x="122.333" y="-0.111"/>
      <point x="137" y="-9"/>
      <point x="137" y="-32.9088" type="curve" smooth="yes"/>
      <point x="137" y="-73.8851"/>
      <point x="94.9685" y="-121.608"/>
      <point x="41" y="-136" type="curve"/>
      <point x="41" y="-151.691"/>
      <point x="43.2254" y="-158.077"/>
      <point x="48" y="-167" type="curve"/>
      <point x="132.654" y="-153.272"/>
      <point x="211" y="-64.7036"/>
      <point x="211" y="17.2678" type="curve" smooth="yes"/>
      <point x="211" y="88.1686"/>
      <point x="182.076" y="127"/>
    </contour>
    <contour>
      <point x="60" y="363.007" type="curve" smooth="yes"/>
      <point x="60" y="325.007"/>
      <point x="92" y="295.007"/>
      <point x="132" y="295.007" type="curve" smooth="yes"/>
      <point x="172" y="295.007"/>
      <point x="206" y="327.007"/>
      <point x="206" y="365.007" type="curve" smooth="yes"/>
      <point x="206" y="404.007"/>
      <point x="174" y="434.007"/>
      <point x="134" y="434.007" type="curve" smooth="yes"/>
      <point x="94" y="434.007"/>
      <point x="60" y="402.007"/>
    </contour>
  </outline>
</glyph>
<glyph name="less" format="2">
  <advance width="512"/>
  <unicode hex="003C"/>
  <outline>
    <contour>
      <point x="153" y="240" type="line"/>
      <point x="471" y="356" type="line"/>
      <point x="471" y="418" type="line"/>
      <point x="42" y="262" type="line"/>
      <point x="42" y="218" type="line"/>
      <point x="471" y="62" type="line"/>
      <point x="471" y="124" type="line"/>
    </contour>
  </outline>
</glyph>
<glyph name="equal" format="2">
  <advance width="551"/>
  <unicode hex="003D"/>
  <outline>
    <contour>
      <point x="59" y="286" type="curve" smooth="yes"/>
      <point x="59" y="275.553"/>
      <point x="67" y="266"/>
      <point x="81" y="266" type="curve" smooth="yes"/>
      <point x="463" y="266" type="line" smooth="yes"/>
      <point x="472" y="266"/>
      <point x="493" y="284"/>
      <point x="493" y="303" type="curve" smooth="yes"/>
      <point x="493" y="313.307"/>
      <point x="485.12" y="323"/>
      <point x="471" y="323" type="curve" smooth="yes"/>
      <point x="89" y="323" type="line" smooth="yes"/>
      <point x="80" y="323"/>
      <point x="59" y="305"/>
    </contour>
    <contour>
      <point x="59" y="162" type="curve" smooth="yes"/>
      <point x="59" y="151.211"/>
      <point x="67" y="142"/>
      <point x="81" y="142" type="curve" smooth="yes"/>
      <point x="463" y="142" type="line" smooth="yes"/>
      <point x="472" y="142"/>
      <point x="493" y="159"/>
      <point x="493" y="178" type="curve" smooth="yes"/>
      <point x="493" y="189.907"/>
      <point x="484.111" y="198"/>
      <point x="471" y="198" type="curve" smooth="yes"/>
      <point x="89" y="198" type="line" smooth="yes"/>
      <point x="80" y="198"/>
      <point x="59" y="181"/>
    </contour>
  </outline>
</glyph>
<glyph name="greater" format="2">
  <advance width="512"/>
  <unicode hex="003E"/>
  <outline>
    <contour>
      <point x="359" y="238" type="line"/>
      <point x="42" y="122" type="line"/>
      <point x="33" y="101.54"/>
      <point x="33" y="80.46"/>
      <point x="42" y="60" type="curve"/>
      <point x="471" y="215" type="line"/>
      <point x="478" y="229.52"/>
      <point x="478" y="244.48"/>
      <point x="471" y="259" type="curve"/>
      <point x="42" y="416" type="line"/>
      <point x="33" y="395.54"/>
      <point x="33" y="374.46"/>
      <point x="42" y="354" type="curve"/>
    </contour>
  </outline>
</glyph>
<glyph name="question" format="2">
  <advance width="430"/>
  <unicode hex="003F"/>
  <outline>
    <contour>
      <point x="160" y="216" type="line" smooth="yes"/>
      <point x="160" y="193"/>
      <point x="168" y="182"/>
      <point x="192" y="182" type="curve" smooth="yes"/>
      <point x="221" y="182"/>
      <point x="225" y="190"/>
      <point x="225" y="216" type="curve" smooth="yes"/>
      <point x="225" y="229" type="line" smooth="yes"/>
      <point x="225" y="286"/>
      <point x="243" y="315"/>
      <point x="288" y="348" type="curve" smooth="yes"/>
      <point x="338" y="385"/>
      <point x="401" y="431"/>
      <point x="401" y="505" type="curve" smooth="yes"/>
      <point x="401" y="597"/>
      <point x="330" y="658"/>
      <point x="216" y="658" type="curve" smooth="yes"/>
      <point x="146" y="658"/>
      <point x="26" y="622"/>
      <point x="26" y="533" type="curve" smooth="yes"/>
      <point x="26" y="501"/>
      <point x="51" y="475"/>
      <point x="83" y="475" type="curve" smooth="yes"/>
      <point x="113" y="475"/>
      <point x="136" y="491"/>
      <point x="136" y="516" type="curve" smooth="yes"/>
      <point x="136" y="530"/>
      <point x="134" y="538"/>
      <point x="132" y="545" type="curve"/>
      <point x="129" y="553"/>
      <point x="127" y="560"/>
      <point x="127" y="570" type="curve" smooth="yes"/>
      <point x="127" y="598"/>
      <point x="162" y="622"/>
      <point x="206" y="622" type="curve" smooth="yes"/>
      <point x="262" y="622"/>
      <point x="286" y="570"/>
      <point x="286" y="512" type="curve" smooth="yes"/>
      <point x="286" y="467"/>
      <point x="272" y="431"/>
      <point x="241" y="403" type="curve" smooth="yes"/>
      <point x="231" y="394" type="line" smooth="yes"/>
      <point x="185" y="352"/>
      <point x="160" y="296"/>
      <point x="160" y="231" type="curve" smooth="yes"/>
    </contour>
    <contour>
      <point x="121" y="58" type="curve" smooth="yes"/>
      <point x="121" y="20"/>
      <point x="153" y="-10"/>
      <point x="193" y="-10" type="curve" smooth="yes"/>
      <point x="233" y="-10"/>
      <point x="267" y="22"/>
      <point x="267" y="60" type="curve" smooth="yes"/>
      <point x="267" y="99"/>
      <point x="235" y="129"/>
      <point x="195" y="129" type="curve" smooth="yes"/>
      <point x="155" y="129"/>
      <point x="121" y="97"/>
    </contour>
  </outline>
</glyph>
<glyph name="at" format="2">
  <advance width="988"/>
  <unicode hex="0040"/>
  <outline>
    <contour>
      <point x="640" y="80" type="curve" smooth="yes"/>
      <point x="640" y="91"/>
      <point x="647" y="120"/>
      <point x="653" y="146" type="curve" smooth="yes"/>
      <point x="712" y="399" type="line"/>
      <point x="699" y="405" type="line"/>
      <point x="623.134" y="399" type="line"/>
      <point x="616.954" y="377" type="line"/>
      <point x="605.011" y="398.726"/>
      <point x="565.814" y="414.527"/>
      <point x="531.253" y="414.527" type="curve" smooth="yes"/>
      <point x="416.108" y="414.527"/>
      <point x="297" y="284.272"/>
      <point x="297" y="158" type="curve" smooth="yes"/>
      <point x="297" y="65.5952"/>
      <point x="336.885" y="25.7393"/>
      <point x="408.837" y="25.7393" type="curve" smooth="yes"/>
      <point x="466.535" y="25.7393"/>
      <point x="523.555" y="47.9529"/>
      <point x="554.496" y="101.695" type="curve"/>
      <point x="555.71" y="101.695" type="line"/>
      <point x="551.319" y="90.1966"/>
      <point x="548.69" y="78.7559"/>
      <point x="548.691" y="68.4047" type="curve" smooth="yes"/>
      <point x="548.694" y="34.6436"/>
      <point x="579.966" y="24.4739"/>
      <point x="600.557" y="24.3666" type="curve" smooth="yes"/>
      <point x="763.705" y="23.5162"/>
      <point x="890" y="138.714"/>
      <point x="890" y="287" type="curve" smooth="yes"/>
      <point x="890" y="476"/>
      <point x="739" y="621"/>
      <point x="513" y="621" type="curve" smooth="yes"/>
      <point x="260" y="621"/>
      <point x="92" y="428"/>
      <point x="92" y="221" type="curve" smooth="yes"/>
      <point x="92" y="-7"/>
      <point x="265" y="-160"/>
      <point x="502" y="-160" type="curve" smooth="yes"/>
      <point x="625" y="-160"/>
      <point x="688" y="-124"/>
      <point x="752" y="-75" type="curve"/>
      <point x="731" y="-46" type="line"/>
      <point x="669" y="-97"/>
      <point x="598" y="-121"/>
      <point x="521" y="-121" type="curve" smooth="yes"/>
      <point x="277" y="-121"/>
      <point x="186" y="80"/>
      <point x="186" y="228" type="curve" smooth="yes"/>
      <point x="186" y="459"/>
      <point x="349" y="584"/>
      <point x="504" y="584" type="curve" smooth="yes"/>
      <point x="688" y="584"/>
      <point x="805" y="463.559"/>
      <point x="805" y="273" type="curve" smooth="yes"/>
      <point x="805" y="129"/>
      <point x="695" y="66"/>
      <point x="658" y="66" type="curve" smooth="yes"/>
      <point x="647" y="66"/>
      <point x="640" y="67"/>
    </contour>
    <contour>
      <point x="586" y="320" type="curve" smooth="yes"/>
      <point x="586" y="298"/>
      <point x="569.905" y="240.317"/>
      <point x="560" y="204" type="curve" smooth="yes"/>
      <point x="557" y="193" type="line" smooth="yes"/>
      <point x="533.131" y="105.48"/>
      <point x="493.986" y="75.0756"/>
      <point x="460.821" y="75.0756" type="curve" smooth="yes"/>
      <point x="421.525" y="75.0756"/>
      <point x="414" y="117.084"/>
      <point x="414" y="164" type="curve" smooth="yes"/>
      <point x="414" y="239.874"/>
      <point x="451.261" y="378.536"/>
      <point x="540.051" y="378.536" type="curve" smooth="yes"/>
      <point x="570.467" y="378.536"/>
      <point x="586" y="353.209"/>
    </contour>
  </outline>
</glyph>
<glyph name="B" format="2">
  <advance width="653"/>
  <unicode hex="0042"/>
  <anchor x="203" y="740" name="t.uni0302"/>
  <anchor x="201" y="-60" name="b.minus-60"/>
  <outline>
    <contour>
      <point x="182" y="645" type="curve"/>
      <point x="182" y="0" type="line"/>
      <point x="222" y="0"/>
      <point x="286" y="-2"/>
      <point x="346" y="-2" type="curve" smooth="yes"/>
      <point x="551" y="-2"/>
      <point x="617" y="84"/>
      <point x="617" y="186" type="curve" smooth="yes"/>
      <point x="617" y="274"/>
      <point x="573" y="331"/>
      <point x="467" y="359" type="curve"/>
      <point x="467" y="361" type="line"/>
      <point x="521" y="385"/>
      <point x="563" y="440"/>
      <point x="563" y="491" type="curve" smooth="yes"/>
      <point x="563" y="560"/>
      <point x="526" y="647"/>
      <point x="324" y="647" type="curve" smooth="yes"/>
      <point x="274" y="647"/>
      <point x="214" y="645"/>
    </contour>
    <contour>
      <point x="251" y="334" type="line"/>
      <point x="322" y="334" type="line" smooth="yes"/>
      <point x="425" y="334"/>
      <point x="470" y="273"/>
      <point x="470" y="187" type="curve" smooth="yes"/>
      <point x="470" y="127"/>
      <point x="449" y="40"/>
      <point x="317" y="40" type="curve" smooth="yes"/>
      <point x="257" y="40"/>
      <point x="251" y="55"/>
      <point x="251" y="84" type="curve" smooth="yes"/>
    </contour>
    <contour>
      <point x="251" y="562" type="line" smooth="yes"/>
      <point x="251" y="591"/>
      <point x="256" y="605"/>
      <point x="321" y="605" type="curve" smooth="yes"/>
      <point x="367" y="605"/>
      <point x="423" y="587"/>
      <point x="423" y="489" type="curve" smooth="yes"/>
      <point x="423" y="409"/>
      <point x="378" y="376"/>
      <point x="307" y="376" type="curve" smooth="yes"/>
      <point x="251" y="376" type="line"/>
    </contour>
    <contour>
      <point x="27" y="-2" type="curve"/>
      <point x="76" y="-1"/>
      <point x="171.5" y="0"/>
      <point x="182" y="0" type="curve"/>
      <point x="182" y="645" type="line"/>
      <point x="172" y="645"/>
      <point x="77" y="646"/>
      <point x="27" y="647" type="curve"/>
      <point x="21" y="641"/>
      <point x="21" y="619"/>
      <point x="27" y="613" type="curve"/>
      <point x="97" y="610"/>
      <point x="114" y="605"/>
      <point x="114" y="522" type="curve" smooth="yes"/>
      <point x="114" y="122.725" type="line" smooth="yes"/>
      <point x="114" y="39"/>
      <point x="97" y="35"/>
      <point x="27" y="32" type="curve"/>
      <point x="21" y="26"/>
      <point x="21" y="4"/>
    </contour>
  </outline>
  <guideline angle="90" x="114" y="0"/>
</glyph>
<glyph name="C" format="2">
  <advance width="707"/>
  <unicode hex="0043"/>
  <anchor x="355" y="740" name="top"/>
  <anchor x="353" y="-60" name="b.minus-60"/>
  <anchor x="357" y="0" name="b.cedilla"/>
  <outline>
    <contour>
      <point x="398" y="-10" type="curve" smooth="yes"/>
      <point x="495" y="-10"/>
      <point x="584" y="36"/>
      <point x="652" y="125" type="curve"/>
      <point x="647" y="134"/>
      <point x="630" y="146"/>
      <point x="619" y="146" type="curve"/>
      <point x="548" y="68"/>
      <point x="467" y="42"/>
      <point x="397" y="42" type="curve" smooth="yes"/>
      <point x="281" y="42"/>
      <point x="189" y="178"/>
      <point x="189" y="334" type="curve" smooth="yes"/>
      <point x="189" y="489"/>
      <point x="269" y="617"/>
      <point x="388" y="617" type="curve" smooth="yes"/>
      <point x="526" y="617"/>
      <point x="571" y="539"/>
      <point x="597" y="453" type="curve"/>
      <point x="609" y="449"/>
      <point x="629" y="452"/>
      <point x="640" y="458" type="curve"/>
      <point x="635" y="510"/>
      <point x="627" y="558"/>
      <point x="618" y="613" type="curve"/>
      <point x="567" y="618"/>
      <point x="522" y="658"/>
      <point x="399" y="658" type="curve" smooth="yes"/>
      <point x="203" y="658"/>
      <point x="38" y="535"/>
      <point x="38" y="315" type="curve" smooth="yes"/>
      <point x="38" y="91"/>
      <point x="193" y="-10"/>
    </contour>
  </outline>
</glyph>
<glyph name="D" format="2">
  <advance width="729"/>
  <unicode hex="0044"/>
  <anchor x="346" y="740" name="top"/>
  <anchor x="354" y="-60" name="b.minus-60"/>
  <outline>
    <contour>
      <point x="349" y="-2" type="curve" smooth="yes"/>
      <point x="555" y="-2"/>
      <point x="686" y="95"/>
      <point x="686" y="309" type="curve" smooth="yes"/>
      <point x="686" y="494"/>
      <point x="568" y="646"/>
      <point x="322" y="646" type="curve" smooth="yes"/>
      <point x="253" y="646"/>
      <point x="183" y="645"/>
      <point x="184" y="645" type="curve" name=".sk1"/>
      <point x="146" y="645"/>
      <point x="73" y="646"/>
      <point x="31" y="647" type="curve"/>
      <point x="21" y="641"/>
      <point x="21" y="619"/>
      <point x="31" y="613" type="curve"/>
      <point x="95" y="610"/>
      <point x="114" y="590"/>
      <point x="114" y="523" type="curve" smooth="yes"/>
      <point x="114" y="122" type="line" smooth="yes" name=".sk2"/>
      <point x="114" y="55"/>
      <point x="95" y="35"/>
      <point x="31" y="32" type="curve"/>
      <point x="21" y="26"/>
      <point x="20" y="4"/>
      <point x="30" y="-2" type="curve"/>
      <point x="72" y="-1"/>
      <point x="145" y="0"/>
      <point x="183" y="0" type="curve" smooth="yes"/>
      <point x="192" y="0"/>
      <point x="271" y="-2"/>
    </contour>
    <contour>
      <point x="254" y="119" type="curve" smooth="yes"/>
      <point x="254" y="529" type="line" smooth="yes"/>
      <point x="254" y="584"/>
      <point x="280" y="604"/>
      <point x="316" y="604" type="curve" smooth="yes"/>
      <point x="513" y="604"/>
      <point x="535" y="435"/>
      <point x="535" y="285" type="curve" smooth="yes"/>
      <point x="535" y="102"/>
      <point x="426" y="40"/>
      <point x="350" y="40" type="curve" smooth="yes"/>
      <point x="280" y="40"/>
      <point x="254" y="52"/>
    </contour>
  </outline>
</glyph>
<glyph name="E" format="2">
  <advance width="620"/>
  <unicode hex="0045"/>
  <anchor x="289" y="740" name="top"/>
  <anchor x="361" y="10" name="b.ogonek"/>
  <anchor x="334" y="-60" name="b.minus-60"/>
  <anchor x="367" y="0" name="b.cedilla"/>
  <outline>
    <contour>
      <point x="334" y="365" type="curve" smooth="yes"/>
      <point x="238" y="365" type="line"/>
      <point x="238" y="319" type="line"/>
      <point x="334" y="319" type="line" smooth="yes"/>
      <point x="403" y="319"/>
      <point x="422" y="300"/>
      <point x="425" y="255" type="curve"/>
      <point x="431" y="249"/>
      <point x="462" y="249"/>
      <point x="468" y="255" type="curve"/>
      <point x="467" y="290"/>
      <point x="466" y="309"/>
      <point x="466" y="343" type="curve" smooth="yes"/>
      <point x="466" y="377"/>
      <point x="467" y="399"/>
      <point x="468" y="429" type="curve"/>
      <point x="462" y="435"/>
      <point x="431" y="435"/>
      <point x="425" y="429" type="curve"/>
      <point x="422" y="374"/>
      <point x="401" y="365"/>
    </contour>
    <contour>
      <point x="113" y="122" type="line" name=".sk1"/>
      <point x="113" y="55"/>
      <point x="94" y="35"/>
      <point x="30" y="32" type="curve"/>
      <point x="20" y="26"/>
      <point x="20" y="4"/>
      <point x="30" y="-2" type="curve"/>
      <point x="72" y="-1"/>
      <point x="145" y="0"/>
      <point x="183" y="0" type="curve"/>
      <point x="416" y="0" type="line" smooth="yes"/>
      <point x="464" y="0"/>
      <point x="545" y="-2"/>
      <point x="554" y="-2" type="curve"/>
      <point x="568" y="48"/>
      <point x="573" y="114"/>
      <point x="581" y="165" type="curve"/>
      <point x="571" y="171"/>
      <point x="549" y="173"/>
      <point x="536" y="170" type="curve"/>
      <point x="516" y="98"/>
      <point x="471" y="42"/>
      <point x="395" y="42" type="curve" smooth="yes"/>
      <point x="294" y="42" type="line" smooth="yes"/>
      <point x="272" y="42"/>
      <point x="253" y="63"/>
      <point x="253" y="90" type="curve" smooth="yes"/>
      <point x="253" y="554" type="line" smooth="yes"/>
      <point x="253" y="578"/>
      <point x="270" y="603"/>
      <point x="294" y="603" type="curve" smooth="yes"/>
      <point x="379" y="603" type="line" smooth="yes"/>
      <point x="454" y="603"/>
      <point x="475" y="565"/>
      <point x="497" y="496" type="curve"/>
      <point x="509" y="494"/>
      <point x="530" y="496"/>
      <point x="540" y="501" type="curve"/>
      <point x="535" y="542"/>
      <point x="530" y="638"/>
      <point x="528" y="646" type="curve"/>
      <point x="528" y="648"/>
      <point x="527" y="649"/>
      <point x="524" y="649" type="curve"/>
      <point x="507" y="646"/>
      <point x="499" y="645"/>
      <point x="475" y="645" type="curve" smooth="yes"/>
      <point x="183" y="645" type="line" name=".sk2"/>
      <point x="145" y="645"/>
      <point x="72" y="646"/>
      <point x="30" y="647" type="curve"/>
      <point x="20" y="641"/>
      <point x="20" y="619"/>
      <point x="30" y="613" type="curve"/>
      <point x="94.1187" y="610.193"/>
      <point x="113" y="589.719"/>
      <point x="113" y="523" type="curve"/>
    </contour>
  </outline>
</glyph>
<glyph name="F" format="2">
  <advance width="557"/>
  <unicode hex="0046"/>
  <anchor x="282" y="740" name="top"/>
  <anchor x="364" y="-60" name="b.minus-60"/>
  <outline>
    <contour>
      <point x="238" y="299" type="line"/>
      <point x="334" y="299" type="line" smooth="yes"/>
      <point x="403" y="299"/>
      <point x="422" y="280"/>
      <point x="425" y="235" type="curve"/>
      <point x="431" y="229"/>
      <point x="462" y="229"/>
      <point x="468" y="235" type="curve"/>
      <point x="466" y="270"/>
      <point x="466" y="300"/>
      <point x="466" y="323" type="curve" smooth="yes"/>
      <point x="466" y="346"/>
      <point x="467" y="380"/>
      <point x="468" y="409" type="curve"/>
      <point x="462" y="415"/>
      <point x="431" y="415"/>
      <point x="425" y="409" type="curve"/>
      <point x="422" y="354"/>
      <point x="401" y="345"/>
      <point x="334" y="345" type="curve" smooth="yes"/>
      <point x="238" y="345" type="line"/>
    </contour>
    <contour>
      <point x="113" y="122" type="line" smooth="yes" name=".sk1"/>
      <point x="113" y="55"/>
      <point x="94" y="35"/>
      <point x="30" y="32" type="curve"/>
      <point x="20" y="26"/>
      <point x="20" y="4"/>
      <point x="30" y="-2" type="curve"/>
      <point x="72" y="-1"/>
      <point x="145" y="0"/>
      <point x="183" y="0" type="curve"/>
      <point x="153" y="0"/>
      <point x="306" y="-1"/>
      <point x="346" y="-2" type="curve"/>
      <point x="356" y="4"/>
      <point x="356" y="26"/>
      <point x="346" y="32" type="curve"/>
      <point x="291" y="35"/>
      <point x="253" y="39"/>
      <point x="253" y="122" type="curve" smooth="yes"/>
      <point x="253" y="554" type="line" smooth="yes"/>
      <point x="253" y="578"/>
      <point x="270" y="603"/>
      <point x="294" y="603" type="curve" smooth="yes"/>
      <point x="384" y="603" type="line" smooth="yes"/>
      <point x="459" y="603"/>
      <point x="485" y="560"/>
      <point x="507" y="491" type="curve"/>
      <point x="519" y="489"/>
      <point x="532" y="491"/>
      <point x="542" y="496" type="curve"/>
      <point x="539" y="540"/>
      <point x="531" y="638"/>
      <point x="530" y="646" type="curve"/>
      <point x="530" y="648"/>
      <point x="529" y="649"/>
      <point x="526" y="649" type="curve"/>
      <point x="509" y="646"/>
      <point x="501" y="645"/>
      <point x="477" y="645" type="curve" smooth="yes"/>
      <point x="183" y="645" type="line" smooth="yes" name=".sk2"/>
      <point x="145" y="645"/>
      <point x="72" y="646"/>
      <point x="30" y="647" type="curve"/>
      <point x="20" y="641"/>
      <point x="20" y="619"/>
      <point x="30" y="613" type="curve"/>
      <point x="94" y="610"/>
      <point x="113" y="590"/>
      <point x="113" y="523" type="curve" smooth="yes"/>
    </contour>
  </outline>
  <guideline angle="90" x="113" y="0"/>
  <guideline angle="90" x="253" y="0"/>
</glyph>
<glyph name="H" format="2">
  <advance width="817"/>
  <unicode hex="0048"/>
  <anchor x="382" y="740" name="t.uni0302"/>
  <anchor x="409" y="-110" name="m.uni0316_2"/>
  <anchor x="729" y="732" name="m.uni031A_3"/>
  <anchor x="150" y="0" name="b.uni0327_5"/>
  <anchor x="356" y="485" name="b.uni0334_6"/>
  <outline>
    <contour>
      <point x="31" y="-2" type="curve"/>
      <point x="71" y="-1"/>
      <point x="145" y="0"/>
      <point x="185" y="0" type="curve" smooth="yes"/>
      <point x="225" y="0"/>
      <point x="297" y="-1"/>
      <point x="337" y="-2" type="curve"/>
      <point x="347" y="4"/>
      <point x="347" y="26"/>
      <point x="337" y="32" type="curve"/>
      <point x="282" y="35"/>
      <point x="254" y="39"/>
      <point x="254" y="122" type="curve" smooth="yes"/>
      <point x="254" y="319" type="line"/>
      <point x="564" y="319" type="line"/>
      <point x="564" y="122" type="line" smooth="yes"/>
      <point x="564" y="39"/>
      <point x="536" y="35"/>
      <point x="481" y="32" type="curve"/>
      <point x="471" y="26"/>
      <point x="471" y="4"/>
      <point x="481" y="-2" type="curve"/>
      <point x="521" y="-1"/>
      <point x="595" y="0"/>
      <point x="635" y="0" type="curve" smooth="yes"/>
      <point x="675" y="0"/>
      <point x="747" y="-1"/>
      <point x="787" y="-2" type="curve"/>
      <point x="797" y="4"/>
      <point x="797" y="26"/>
      <point x="787" y="32" type="curve"/>
      <point x="732" y="35"/>
      <point x="704" y="39"/>
      <point x="704" y="122" type="curve" smooth="yes"/>
      <point x="704" y="523" type="line" smooth="yes"/>
      <point x="704" y="606"/>
      <point x="732" y="610"/>
      <point x="787" y="613" type="curve"/>
      <point x="797" y="619"/>
      <point x="797" y="641"/>
      <point x="787" y="647" type="curve"/>
      <point x="747" y="646"/>
      <point x="675" y="645"/>
      <point x="635" y="645" type="curve" smooth="yes"/>
      <point x="595" y="645"/>
      <point x="521" y="646"/>
      <point x="481" y="647" type="curve"/>
      <point x="471" y="641"/>
      <point x="471" y="619"/>
      <point x="481" y="613" type="curve"/>
      <point x="536" y="610"/>
      <point x="564" y="606"/>
      <point x="564" y="523" type="curve" smooth="yes"/>
      <point x="564" y="367" type="line"/>
      <point x="254" y="367" type="line"/>
      <point x="254" y="523" type="line" smooth="yes"/>
      <point x="254" y="606"/>
      <point x="282" y="610"/>
      <point x="337" y="613" type="curve"/>
      <point x="347" y="619"/>
      <point x="347" y="641"/>
      <point x="337" y="647" type="curve"/>
      <point x="297" y="646"/>
      <point x="225" y="645"/>
      <point x="185" y="645" type="curve" smooth="yes"/>
      <point x="145" y="645"/>
      <point x="71" y="646"/>
      <point x="31" y="647" type="curve"/>
      <point x="21" y="641"/>
      <point x="21" y="619"/>
      <point x="31" y="613" type="curve"/>
      <point x="86" y="610"/>
      <point x="114" y="606"/>
      <point x="114" y="523" type="curve" smooth="yes"/>
      <point x="114" y="122" type="line" smooth="yes"/>
      <point x="114" y="39"/>
      <point x="86" y="35"/>
      <point x="31" y="32" type="curve"/>
      <point x="21" y="26"/>
      <point x="21" y="4"/>
    </contour>
  </outline>
</glyph>
<glyph name="I" format="2">
  <advance width="366"/>
  <unicode hex="0049"/>
  <anchor x="183" y="740" name="t.uni0302"/>
  <anchor x="229" y="10" name="b.ogonek"/>
  <anchor x="187" y="-60" name="b.minus-60"/>
  <outline>
    <contour>
      <point x="113" y="122" type="line"/>
      <point x="253" y="122" type="line"/>
      <point x="253" y="523" type="line"/>
      <point x="113" y="523" type="line"/>
    </contour>
    <contour>
      <point x="30" y="-2" type="curve"/>
      <point x="70" y="-1"/>
      <point x="144" y="0"/>
      <point x="184" y="0" type="curve" smooth="yes"/>
      <point x="224" y="0"/>
      <point x="296" y="-1"/>
      <point x="336" y="-2" type="curve"/>
      <point x="346" y="4"/>
      <point x="346" y="26"/>
      <point x="336" y="32" type="curve"/>
      <point x="281" y="35.0051"/>
      <point x="253" y="39.0119"/>
      <point x="253" y="122.152" type="curve"/>
      <point x="113" y="122.152" type="line"/>
      <point x="113" y="39.0119"/>
      <point x="85" y="35.0051"/>
      <point x="30" y="32" type="curve"/>
      <point x="20" y="26"/>
      <point x="20" y="4"/>
    </contour>
    <contour>
      <point x="253" y="523" type="line"/>
      <point x="253" y="573.15"/>
      <point x="281" y="610"/>
      <point x="336" y="613" type="curve"/>
      <point x="346" y="619"/>
      <point x="346" y="641"/>
      <point x="336" y="647" type="curve"/>
      <point x="296" y="646"/>
      <point x="224" y="645"/>
      <point x="184" y="645" type="curve" smooth="yes"/>
      <point x="144" y="645"/>
      <point x="70" y="646"/>
      <point x="30" y="647" type="curve"/>
      <point x="20" y="641"/>
      <point x="20" y="619"/>
      <point x="30" y="613" type="curve"/>
      <point x="85" y="610"/>
      <point x="113.324" y="573.15"/>
      <point x="113" y="523" type="curve"/>
    </contour>
  </outline>
  <guideline angle="90" x="148" y="0"/>
</glyph>
<glyph name="J" format="2">
  <advance width="352"/>
  <unicode hex="004A"/>
  <anchor x="163" y="740" name="t.uni0302"/>
  <outline>
    <contour>
      <point x="260" y="522" type="line" smooth="yes"/>
      <point x="260" y="605"/>
      <point x="277" y="610"/>
      <point x="337" y="613" type="curve"/>
      <point x="343" y="619"/>
      <point x="343" y="641"/>
      <point x="337" y="647" type="curve"/>
      <point x="288" y="646"/>
      <point x="247" y="645"/>
      <point x="189" y="645" type="curve" smooth="yes"/>
      <point x="124" y="645"/>
      <point x="73" y="646"/>
      <point x="23" y="647" type="curve"/>
      <point x="17" y="641"/>
      <point x="17" y="619"/>
      <point x="23" y="613" type="curve"/>
      <point x="103" y="610"/>
      <point x="120" y="605"/>
      <point x="120" y="522" type="curve" smooth="yes"/>
      <point x="120" y="81" type="line" smooth="yes"/>
      <point x="120" y="-99"/>
      <point x="114" y="-128"/>
      <point x="71" y="-128" type="curve" smooth="yes"/>
      <point x="53" y="-128"/>
      <point x="35" y="-118"/>
      <point x="25" y="-105" type="curve" smooth="yes"/>
      <point x="12" y="-88"/>
      <point x="7" y="-60"/>
      <point x="-33" y="-60" type="curve" smooth="yes"/>
      <point x="-51" y="-60"/>
      <point x="-91" y="-87"/>
      <point x="-91" y="-116" type="curve" smooth="yes"/>
      <point x="-91" y="-163"/>
      <point x="-22" y="-187"/>
      <point x="7" y="-187" type="curve" smooth="yes"/>
      <point x="66" y="-187"/>
      <point x="117" y="-164"/>
      <point x="158" y="-129" type="curve" smooth="yes"/>
      <point x="202" y="-92"/>
      <point x="260" y="-40"/>
      <point x="260" y="103" type="curve" smooth="yes"/>
    </contour>
  </outline>
</glyph>
<glyph name="K" format="2">
  <advance width="743"/>
  <unicode hex="004B"/>
  <anchor x="361" y="740" name="top"/>
  <anchor x="359" y="-60" name="b.minus-60"/>
  <outline>
    <contour>
      <point x="113" y="122" type="line" smooth="yes" name=".sk2"/>
      <point x="113" y="55"/>
      <point x="94" y="35"/>
      <point x="30" y="32" type="curve"/>
      <point x="20" y="26"/>
      <point x="20" y="4"/>
      <point x="30" y="-2" type="curve"/>
      <point x="72" y="-1"/>
      <point x="145" y="0"/>
      <point x="183" y="0" type="curve" smooth="yes"/>
      <point x="187" y="0"/>
      <point x="262" y="0"/>
      <point x="336" y="-2" type="curve"/>
      <point x="346" y="4"/>
      <point x="346" y="26"/>
      <point x="336" y="32" type="curve"/>
      <point x="281" y="35"/>
      <point x="253" y="39"/>
      <point x="253" y="122" type="curve" smooth="yes"/>
      <point x="253" y="320" type="line"/>
      <point x="275" y="315"/>
      <point x="296" y="299"/>
      <point x="318" y="271" type="curve" smooth="yes"/>
      <point x="469" y="74" type="line" smooth="yes"/>
      <point x="489" y="48"/>
      <point x="503" y="20"/>
      <point x="505" y="4" type="curve"/>
      <point x="505" y="1"/>
      <point x="506" y="-2"/>
      <point x="510" y="-2" type="curve"/>
      <point x="530" y="-1"/>
      <point x="583" y="0"/>
      <point x="613" y="0" type="curve" smooth="yes"/>
      <point x="652" y="0"/>
      <point x="692" y="-1"/>
      <point x="731" y="-2" type="curve"/>
      <point x="737" y="4"/>
      <point x="737" y="26"/>
      <point x="731" y="32" type="curve"/>
      <point x="701" y="36"/>
      <point x="679" y="44"/>
      <point x="653" y="74" type="curve" smooth="yes"/>
      <point x="434" y="333" type="line" smooth="yes"/>
      <point x="417" y="353"/>
      <point x="404" y="370"/>
      <point x="404" y="378" type="curve" smooth="yes"/>
      <point x="404" y="385"/>
      <point x="405" y="397"/>
      <point x="416" y="407" type="curve" smooth="yes"/>
      <point x="525" y="504" type="line" smooth="yes"/>
      <point x="584" y="556"/>
      <point x="640" y="605"/>
      <point x="699" y="613" type="curve"/>
      <point x="705" y="619"/>
      <point x="705" y="641"/>
      <point x="699" y="647" type="curve"/>
      <point x="674" y="646"/>
      <point x="639" y="645"/>
      <point x="604" y="645" type="curve" smooth="yes"/>
      <point x="564" y="645"/>
      <point x="519" y="646"/>
      <point x="481" y="647" type="curve"/>
      <point x="475" y="641"/>
      <point x="475" y="619"/>
      <point x="481" y="613" type="curve"/>
      <point x="540" y="607"/>
      <point x="539" y="572"/>
      <point x="486" y="525" type="curve" smooth="yes"/>
      <point x="379" y="430" type="line" smooth="yes"/>
      <point x="320" y="377"/>
      <point x="280" y="349"/>
      <point x="253" y="341" type="curve"/>
      <point x="253" y="523" type="line" smooth="yes"/>
      <point x="253" y="606"/>
      <point x="281" y="610"/>
      <point x="336" y="613" type="curve"/>
      <point x="346" y="619"/>
      <point x="346" y="641"/>
      <point x="336" y="647" type="curve"/>
      <point x="262" y="645"/>
      <point x="187" y="645"/>
      <point x="183" y="645" type="curve" smooth="yes" name=".sk1"/>
      <point x="145" y="645"/>
      <point x="72" y="646"/>
      <point x="30" y="647" type="curve"/>
      <point x="20" y="641"/>
      <point x="20" y="619"/>
      <point x="30" y="613" type="curve"/>
      <point x="94" y="610"/>
      <point x="113" y="590"/>
      <point x="113" y="523" type="curve" smooth="yes"/>
    </contour>
  </outline>
</glyph>
<glyph name="L" format="2">
  <advance width="578"/>
  <unicode hex="004C"/>
  <anchor x="183" y="740" name="top"/>
  <anchor x="353" y="-60" name="b.minus-60"/>
  <anchor x="389" y="652" name="apostrophe"/>
  <outline>
    <contour>
      <point x="113" y="122" type="line" smooth="yes" name=".sk2"/>
      <point x="113" y="55"/>
      <point x="94" y="35"/>
      <point x="30" y="32" type="curve"/>
      <point x="20" y="26"/>
      <point x="20" y="4"/>
      <point x="30" y="-2" type="curve"/>
      <point x="72" y="-1"/>
      <point x="145" y="0"/>
      <point x="183" y="0" type="curve" smooth="yes"/>
      <point x="407" y="0" type="line" smooth="yes"/>
      <point x="436" y="0"/>
      <point x="518" y="-2"/>
      <point x="527" y="-2" type="curve"/>
      <point x="537" y="48"/>
      <point x="547" y="113"/>
      <point x="553" y="165" type="curve"/>
      <point x="543" y="170"/>
      <point x="522" y="172"/>
      <point x="510" y="170" type="curve"/>
      <point x="490" y="98"/>
      <point x="453" y="42"/>
      <point x="348" y="42" type="curve" smooth="yes"/>
      <point x="309" y="42" type="line" smooth="yes"/>
      <point x="267" y="42"/>
      <point x="253" y="61"/>
      <point x="253" y="121" type="curve" smooth="yes"/>
      <point x="253" y="523" type="line" smooth="yes"/>
      <point x="253" y="590"/>
      <point x="272" y="610"/>
      <point x="336" y="613" type="curve"/>
      <point x="346" y="619"/>
      <point x="346" y="641"/>
      <point x="336" y="647" type="curve"/>
      <point x="262" y="646"/>
      <point x="187" y="645"/>
      <point x="183" y="645" type="curve" smooth="yes" name=".sk1"/>
      <point x="145" y="645"/>
      <point x="72" y="646"/>
      <point x="30" y="647" type="curve"/>
      <point x="20" y="641"/>
      <point x="20" y="619"/>
      <point x="30" y="613" type="curve"/>
      <point x="94" y="610"/>
      <point x="113" y="590"/>
      <point x="113" y="523" type="curve" smooth="yes"/>
    </contour>
  </outline>
</glyph>
<glyph name="M" format="2">
  <advance width="899"/>
  <unicode hex="004D"/>
  <anchor x="431" y="850" name="m.uni0302"/>
  <anchor x="393" y="-110" name="m.uni0316_2"/>
  <anchor x="107" y="2" name="b.uni0327_5"/>
  <anchor x="426" y="445" name="b.uni0334_6"/>
  <anchor x="413" y="740" name="t.uni0302"/>
  <outline>
    <contour>
      <point x="663" y="116" type="line" smooth="yes"/>
      <point x="668" y="35"/>
      <point x="664" y="35"/>
      <point x="599" y="32" type="curve"/>
      <point x="593" y="26"/>
      <point x="593" y="4"/>
      <point x="599" y="-2" type="curve"/>
      <point x="646" y="-1"/>
      <point x="736" y="0"/>
      <point x="766" y="0" type="curve" smooth="yes"/>
      <point x="796" y="0"/>
      <point x="842" y="-1"/>
      <point x="875" y="-2" type="curve"/>
      <point x="881" y="4"/>
      <point x="881" y="26"/>
      <point x="875" y="32" type="curve"/>
      <point x="807" y="35"/>
      <point x="804" y="38"/>
      <point x="798" y="121" type="curve" smooth="yes"/>
      <point x="768" y="542" type="line" smooth="yes"/>
      <point x="764" y="596"/>
      <point x="769" y="609"/>
      <point x="837" y="613" type="curve"/>
      <point x="843" y="619"/>
      <point x="843" y="641"/>
      <point x="837" y="647" type="curve"/>
      <point x="636" y="645" type="line"/>
      <point x="446" y="201" type="line" smooth="yes"/>
      <point x="445" y="199"/>
      <point x="444" y="197"/>
      <point x="443" y="197" type="curve" smooth="yes"/>
      <point x="442" y="197"/>
      <point x="441" y="199"/>
      <point x="440" y="201" type="curve" smooth="yes"/>
      <point x="262" y="645" type="line"/>
      <point x="57" y="647" type="line"/>
      <point x="51" y="641"/>
      <point x="51" y="619"/>
      <point x="57" y="613" type="curve"/>
      <point x="126" y="609"/>
      <point x="132" y="608"/>
      <point x="125" y="533" type="curve" smooth="yes"/>
      <point x="85" y="121" type="line" smooth="yes"/>
      <point x="79" y="61"/>
      <point x="67" y="37"/>
      <point x="10" y="32" type="curve"/>
      <point x="4" y="26"/>
      <point x="4" y="4"/>
      <point x="10" y="-2" type="curve"/>
      <point x="40" y="-1"/>
      <point x="72" y="0"/>
      <point x="96" y="0" type="curve" smooth="yes"/>
      <point x="120" y="0"/>
      <point x="180" y="-1"/>
      <point x="210" y="-2" type="curve"/>
      <point x="216" y="4"/>
      <point x="216" y="26"/>
      <point x="210" y="32" type="curve"/>
      <point x="144" y="37"/>
      <point x="140" y="67"/>
      <point x="144" y="123" type="curve" smooth="yes"/>
      <point x="170" y="498" type="line"/>
      <point x="174" y="498" type="line"/>
      <point x="371" y="5" type="line" smooth="yes"/>
      <point x="374" y="-2"/>
      <point x="385" y="-8"/>
      <point x="391" y="-8" type="curve" smooth="yes"/>
      <point x="397" y="-8"/>
      <point x="406" y="-4"/>
      <point x="410" y="5" type="curve" smooth="yes"/>
      <point x="635" y="534" type="line"/>
      <point x="637" y="534" type="line"/>
    </contour>
  </outline>
</glyph>
<glyph name="O" format="2">
	<unicode hex="004F"/>
	<advance width="732"/>
	<outline>
		<contour>
			<point x="694" y="320.165" type="curve" smooth="yes"/>
			<point x="694" y="517.281"/>
			<point x="555.757" y="658"/>
			<point x="368.167" y="658" type="curve" smooth="yes"/>
			<point x="176.808" y="658"/>
			<point x="38" y="511.57"/>
			<point x="38" y="319.738" type="curve" smooth="yes"/>
			<point x="38" y="126.796"/>
			<point x="179.213" y="-10"/>
			<point x="373.387" y="-10" type="curve" smooth="yes"/>
			<point x="561.754" y="-10"/>
			<point x="694" y="127.225"/>
		</contour>
		<contour>
			<point x="353.781" y="618" type="curve" smooth="yes"/>
			<point x="467.868" y="618"/>
			<point x="543" y="495.285"/>
			<point x="543" y="306.751" type="curve" smooth="yes"/>
			<point x="543" y="136.238"/>
			<point x="481.717" y="32"/>
			<point x="378.767" y="32" type="curve" smooth="yes"/>
			<point x="267.337" y="32"/>
			<point x="189" y="154.115"/>
			<point x="189" y="330.017" type="curve" smooth="yes"/>
			<point x="189" y="512.264"/>
			<point x="248.87" y="618"/>
		</contour>
	</outline>
	<anchor name="t.uni0302" x="346" y="740"/>
	<anchor name="b.ogonek" x="404" y="10"/>
	<anchor name="b.minus-60" x="354" y="-60"/>
</glyph>
<glyph name="P" format="2">
  <advance width="613"/>
  <unicode hex="0050"/>
  <anchor x="297" y="740" name="top"/>
  <anchor x="351" y="-60" name="b.minus-60"/>
  <outline>
    <contour>
      <point x="113" y="122" type="line" smooth="yes" name=".sk2"/>
      <point x="113" y="55"/>
      <point x="94" y="35"/>
      <point x="30" y="32" type="curve"/>
      <point x="20" y="26"/>
      <point x="20" y="4"/>
      <point x="30" y="-2" type="curve"/>
      <point x="72" y="-1"/>
      <point x="145" y="0"/>
      <point x="183" y="0" type="curve" smooth="yes"/>
      <point x="187" y="0"/>
      <point x="262" y="0"/>
      <point x="336" y="-2" type="curve"/>
      <point x="346" y="4"/>
      <point x="346" y="26"/>
      <point x="336" y="32" type="curve"/>
      <point x="281" y="35"/>
      <point x="253" y="39"/>
      <point x="253" y="122" type="curve" smooth="yes"/>
      <point x="253" y="524" type="line" smooth="yes"/>
      <point x="253" y="592"/>
      <point x="260" y="613"/>
      <point x="313" y="613" type="curve" smooth="yes"/>
      <point x="371" y="613"/>
      <point x="438" y="589"/>
      <point x="438" y="467" type="curve" smooth="yes"/>
      <point x="438" y="363"/>
      <point x="409" y="319"/>
      <point x="327" y="319" type="curve" smooth="yes"/>
      <point x="312" y="319"/>
      <point x="291" y="320"/>
      <point x="277" y="322" type="curve"/>
      <point x="277" y="303"/>
      <point x="283" y="289"/>
      <point x="297" y="280" type="curve"/>
      <point x="311" y="278"/>
      <point x="308" y="277"/>
      <point x="332" y="277" type="curve" smooth="yes"/>
      <point x="474" y="277"/>
      <point x="589" y="322"/>
      <point x="589" y="484" type="curve" smooth="yes"/>
      <point x="589" y="625"/>
      <point x="458" y="654"/>
      <point x="345" y="654" type="curve" smooth="yes"/>
      <point x="268" y="654"/>
      <point x="191" y="645"/>
      <point x="183" y="645" type="curve" name=".sk1"/>
      <point x="145" y="644"/>
      <point x="72" y="646"/>
      <point x="30" y="647" type="curve"/>
      <point x="20" y="641"/>
      <point x="20" y="619"/>
      <point x="30" y="613" type="curve"/>
      <point x="94" y="610"/>
      <point x="113" y="590"/>
      <point x="113" y="523" type="curve" smooth="yes"/>
    </contour>
  </outline>
</glyph>
<glyph name="Q" format="2">
	<unicode hex="0051"/>
	<advance width="740"/>
	<outline>
		<contour>
			<point x="38" y="309" type="curve" smooth="yes"/>
			<point x="38" y="125"/>
			<point x="173" y="8"/>
			<point x="329" y="-8" type="curve"/>
			<point x="273" y="-37"/>
			<point x="195" y="-98"/>
			<point x="160" y="-153" type="curve"/>
			<point x="199" y="-183" type="line"/>
			<point x="210" y="-167"/>
			<point x="223" y="-152"/>
			<point x="235" y="-138" type="curve"/>
			<point x="250" y="-128"/>
			<point x="264" y="-124"/>
			<point x="272" y="-124" type="curve" smooth="yes"/>
			<point x="314" y="-124"/>
			<point x="351" y="-146"/>
			<point x="390" y="-170" type="curve" smooth="yes"/>
			<point x="437" y="-198"/>
			<point x="487" y="-229"/>
			<point x="558" y="-229" type="curve" smooth="yes"/>
			<point x="621" y="-229"/>
			<point x="663" y="-193"/>
			<point x="702" y="-137" type="curve"/>
			<point x="685" y="-115" type="line"/>
			<point x="663" y="-142"/>
			<point x="627" y="-152"/>
			<point x="598" y="-152" type="curve" smooth="yes"/>
			<point x="557" y="-152"/>
			<point x="519" y="-132"/>
			<point x="479" y="-110" type="curve" smooth="yes"/>
			<point x="434" y="-86"/>
			<point x="387" y="-60"/>
			<point x="329" y="-60" type="curve" smooth="yes"/>
			<point x="327" y="-60"/>
			<point x="325" y="-60"/>
			<point x="324" y="-60" type="curve"/>
			<point x="367" y="-30"/>
			<point x="409" y="-11"/>
			<point x="436" y="-4" type="curve"/>
			<point x="603" y="27"/>
			<point x="695" y="164"/>
			<point x="695" y="329" type="curve" smooth="yes"/>
			<point x="695" y="528"/>
			<point x="547" y="658"/>
			<point x="364" y="658" type="curve" smooth="yes"/>
			<point x="166" y="658"/>
			<point x="38" y="499"/>
		</contour>
		<contour>
			<point x="189" y="329" type="curve" smooth="yes"/>
			<point x="189" y="533"/>
			<point x="263" y="616"/>
			<point x="352" y="616" type="curve" smooth="yes"/>
			<point x="459" y="616"/>
			<point x="544" y="511"/>
			<point x="544" y="308" type="curve" smooth="yes"/>
			<point x="544" y="142"/>
			<point x="486" y="32"/>
			<point x="385" y="32" type="curve" smooth="yes"/>
			<point x="275" y="32"/>
			<point x="189" y="141"/>
		</contour>
	</outline>
	<anchor name="t.uni0302" x="249" y="740"/>
</glyph>
<glyph name="R" format="2">
  <advance width="718"/>
  <unicode hex="0052"/>
  <anchor x="356" y="740" name="t.uni0302"/>
  <anchor x="354" y="-60" name="b.minus-60"/>
  <outline>
    <contour>
      <point x="182" y="0" type="line"/>
      <point x="222" y="0"/>
      <point x="299" y="-1"/>
      <point x="339" y="-2" type="curve"/>
      <point x="349" y="4"/>
      <point x="349" y="26"/>
      <point x="339" y="32" type="curve" name=".hr01"/>
      <point x="284" y="35"/>
      <point x="256" y="39"/>
      <point x="256" y="122" type="curve" smooth="yes"/>
      <point x="256" y="283" type="line"/>
      <point x="326.087" y="283"/>
      <point x="342.975" y="275.344"/>
      <point x="358" y="253" type="curve" smooth="yes"/>
      <point x="475" y="79" type="line" smooth="yes"/>
      <point x="505.491" y="33.6538"/>
      <point x="547" y="-10"/>
      <point x="607" y="-10" type="curve" smooth="yes"/>
      <point x="647" y="-10"/>
      <point x="699" y="-7"/>
      <point x="709" y="-2" type="curve" name=".hr02"/>
      <point x="713" y="5"/>
      <point x="712" y="24"/>
      <point x="708" y="32" type="curve" name=".hr03"/>
      <point x="663" y="32"/>
      <point x="640" y="56"/>
      <point x="612" y="98" type="curve" smooth="yes"/>
      <point x="476" y="308" type="line"/>
      <point x="530" y="330"/>
      <point x="608" y="382"/>
      <point x="608" y="484" type="curve" smooth="yes"/>
      <point x="608" y="625"/>
      <point x="477" y="654"/>
      <point x="364" y="654" type="curve" smooth="yes"/>
      <point x="342" y="654"/>
      <point x="261" y="647"/>
      <point x="182" y="645" type="curve"/>
    </contour>
    <contour>
      <point x="256" y="325" type="line"/>
      <point x="256" y="524" type="line" smooth="yes"/>
      <point x="256" y="592"/>
      <point x="279" y="613"/>
      <point x="332" y="613" type="curve" smooth="yes"/>
      <point x="390" y="613"/>
      <point x="457" y="589"/>
      <point x="457" y="467" type="curve" smooth="yes"/>
      <point x="457" y="344"/>
      <point x="383" y="325"/>
      <point x="299" y="325" type="curve" smooth="yes"/>
    </contour>
    <contour>
      <point x="27" y="-2" type="curve" name=".hr04"/>
      <point x="76" y="-1"/>
      <point x="172" y="0"/>
      <point x="182" y="0" type="curve"/>
      <point x="182" y="645" type="line"/>
      <point x="172" y="645"/>
      <point x="77" y="646"/>
      <point x="27" y="647" type="curve"/>
      <point x="21" y="641"/>
      <point x="21" y="619"/>
      <point x="27" y="613" type="curve"/>
      <point x="97" y="610"/>
      <point x="114" y="605"/>
      <point x="114" y="522" type="curve" smooth="yes"/>
      <point x="114" y="123" type="line" smooth="yes"/>
      <point x="114" y="39"/>
      <point x="97" y="35"/>
      <point x="27" y="32" type="curve" name=".hr05"/>
      <point x="21" y="26"/>
      <point x="21" y="4"/>
    </contour>
  </outline>
  <guideline angle="90" x="273" y="0"/>
</glyph>
<glyph name="S" format="2">
  <advance width="504"/>
  <unicode hex="0053"/>
  <anchor x="245" y="740" name="top"/>
  <anchor x="238" y="-60" name="b.minus-60"/>
  <anchor x="230" y="0" name="b.cedilla"/>
  <outline>
    <contour>
      <point x="46" y="10" type="curve"/>
      <point x="100" y="10"/>
      <point x="160" y="-10"/>
      <point x="226" y="-10" type="curve" smooth="yes"/>
      <point x="378" y="-10"/>
      <point x="463" y="58"/>
      <point x="463" y="184" type="curve" smooth="yes"/>
      <point x="463" y="281"/>
      <point x="409" y="345"/>
      <point x="282" y="396" type="curve" smooth="yes"/>
      <point x="203" y="428"/>
      <point x="166" y="471"/>
      <point x="166" y="527" type="curve" smooth="yes"/>
      <point x="166" y="582"/>
      <point x="199" y="616"/>
      <point x="251" y="616" type="curve" smooth="yes"/>
      <point x="315" y="616"/>
      <point x="355" y="573"/>
      <point x="382" y="474" type="curve"/>
      <point x="399" y="469"/>
      <point x="423" y="471"/>
      <point x="432" y="479" type="curve"/>
      <point x="422" y="524"/>
      <point x="419" y="566"/>
      <point x="421" y="631" type="curve"/>
      <point x="366" y="639"/>
      <point x="345" y="658"/>
      <point x="252" y="658" type="curve" smooth="yes"/>
      <point x="129" y="658"/>
      <point x="41" y="586"/>
      <point x="41" y="485" type="curve" smooth="yes"/>
      <point x="41" y="390"/>
      <point x="74" y="326"/>
      <point x="202" y="269" type="curve" smooth="yes"/>
      <point x="300" y="226"/>
      <point x="337" y="184"/>
      <point x="337" y="115" type="curve" smooth="yes"/>
      <point x="337" y="64"/>
      <point x="291" y="32"/>
      <point x="233" y="32" type="curve" smooth="yes"/>
      <point x="164" y="32"/>
      <point x="96" y="90"/>
      <point x="77" y="178" type="curve"/>
      <point x="62" y="182"/>
      <point x="39" y="181"/>
      <point x="27" y="175" type="curve"/>
      <point x="38" y="115"/>
      <point x="45" y="52"/>
    </contour>
  </outline>
</glyph>
<glyph name="T" format="2">
  <advance width="652"/>
  <unicode hex="0054"/>
  <anchor x="354" y="740" name="t.uni0302"/>
  <anchor x="352" y="-60" name="b.minus-60"/>
  <anchor x="336" y="0" name="b.cedilla"/>
  <outline>
    <contour>
      <point x="405" y="123" type="curve" smooth="yes"/>
      <point x="405" y="503" type="line" smooth="yes"/>
      <point x="405" y="567"/>
      <point x="415" y="604"/>
      <point x="451" y="604" type="curve" smooth="yes"/>
      <point x="473" y="604" type="line" smooth="yes"/>
      <point x="548" y="604"/>
      <point x="590" y="579"/>
      <point x="607" y="502" type="curve"/>
      <point x="618" y="502"/>
      <point x="637" y="503"/>
      <point x="646" y="507" type="curve"/>
      <point x="639" y="553"/>
      <point x="634" y="605"/>
      <point x="633" y="650" type="curve"/>
      <point x="633" y="651"/>
      <point x="631" y="653"/>
      <point x="630" y="653" type="curve"/>
      <point x="596" y="650"/>
      <point x="485" y="645"/>
      <point x="406" y="645" type="curve" smooth="yes"/>
      <point x="265" y="645" type="line" smooth="yes"/>
      <point x="188" y="645"/>
      <point x="70" y="650"/>
      <point x="32" y="653" type="curve"/>
      <point x="30" y="653"/>
      <point x="28" y="651"/>
      <point x="28" y="650" type="curve"/>
      <point x="24" y="605"/>
      <point x="14" y="552"/>
      <point x="3" y="504" type="curve"/>
      <point x="13" y="500"/>
      <point x="30" y="499"/>
      <point x="42" y="499" type="curve"/>
      <point x="62" y="579"/>
      <point x="103" y="604"/>
      <point x="169" y="604" type="curve" smooth="yes"/>
      <point x="218" y="604" type="line" smooth="yes"/>
      <point x="255" y="604"/>
      <point x="265" y="567"/>
      <point x="265" y="506" type="curve" smooth="yes"/>
      <point x="265" y="123" type="line" smooth="yes"/>
      <point x="265" y="40"/>
      <point x="248" y="35"/>
      <point x="168" y="32" type="curve"/>
      <point x="165" y="29"/>
      <point x="164" y="22"/>
      <point x="164" y="15" type="curve" smooth="yes"/>
      <point x="164" y="8"/>
      <point x="165" y="1"/>
      <point x="168" y="-2" type="curve"/>
      <point x="217" y="-1"/>
      <point x="269" y="0"/>
      <point x="333" y="0" type="curve" smooth="yes"/>
      <point x="399" y="0"/>
      <point x="452" y="-1"/>
      <point x="502" y="-2" type="curve"/>
      <point x="505" y="1"/>
      <point x="507" y="8"/>
      <point x="507" y="15" type="curve" smooth="yes"/>
      <point x="507" y="22"/>
      <point x="505" y="29"/>
      <point x="502" y="32" type="curve"/>
      <point x="422" y="35"/>
      <point x="405" y="40"/>
    </contour>
  </outline>
</glyph>
<glyph name="U" format="2">
  <advance width="732"/>
  <unicode hex="0055"/>
  <anchor x="374" y="712" name="top"/>
  <anchor x="420" y="10" name="b.ogonek"/>
  <anchor x="374" y="-60" name="b.minus-60"/>
  <anchor x="703" y="611" name="t.horn"/>
  <outline>
    <contour>
      <point x="87" y="236" type="line" smooth="yes"/>
      <point x="87" y="62"/>
      <point x="172" y="-10"/>
      <point x="376" y="-10" type="curve" smooth="yes"/>
      <point x="557" y="-10"/>
      <point x="646" y="90"/>
      <point x="646" y="295" type="curve" smooth="yes"/>
      <point x="646" y="522" type="line" smooth="yes"/>
      <point x="646" y="595"/>
      <point x="655" y="606"/>
      <point x="723" y="613" type="curve"/>
      <point x="729" y="619"/>
      <point x="729" y="641"/>
      <point x="723" y="647" type="curve"/>
      <point x="666" y="646"/>
      <point x="637" y="645"/>
      <point x="616" y="645" type="curve" smooth="yes"/>
      <point x="593" y="645"/>
      <point x="550" y="646"/>
      <point x="489" y="647" type="curve"/>
      <point x="483" y="641"/>
      <point x="483" y="619"/>
      <point x="489" y="613" type="curve"/>
      <point x="573" y="606"/>
      <point x="581" y="598"/>
      <point x="581" y="522" type="curve" smooth="yes"/>
      <point x="581" y="277" type="line" smooth="yes"/>
      <point x="581" y="108"/>
      <point x="524" y="32"/>
      <point x="397" y="32" type="curve" smooth="yes"/>
      <point x="286" y="32"/>
      <point x="227" y="115"/>
      <point x="227" y="269" type="curve" smooth="yes"/>
      <point x="227" y="522" type="line" smooth="yes"/>
      <point x="227" y="600"/>
      <point x="237" y="610"/>
      <point x="319" y="613" type="curve"/>
      <point x="325" y="619"/>
      <point x="325" y="641"/>
      <point x="319" y="647" type="curve"/>
      <point x="242" y="645"/>
      <point x="164" y="645"/>
      <point x="157" y="645" type="curve" smooth="yes" name=".sk1"/>
      <point x="119" y="645"/>
      <point x="46" y="646"/>
      <point x="4" y="647" type="curve"/>
      <point x="-6" y="641"/>
      <point x="-6" y="619"/>
      <point x="4" y="613" type="curve"/>
      <point x="68" y="610"/>
      <point x="87" y="590"/>
      <point x="87" y="523" type="curve" smooth="yes"/>
    </contour>
  </outline>
</glyph>
<glyph name="W" format="2">
  <advance width="1022"/>
  <unicode hex="0057"/>
  <anchor x="517" y="740" name="t.uni0302"/>
  <anchor x="505" y="-60" name="b.minus-60"/>
  <outline>
    <contour>
      <point x="655" y="11" type="line" smooth="yes"/>
      <point x="662" y="-8"/>
      <point x="673" y="-12"/>
      <point x="688" y="-12" type="curve" smooth="yes"/>
      <point x="701" y="-12"/>
      <point x="715" y="-7"/>
      <point x="722" y="11" type="curve" smooth="yes"/>
      <point x="910" y="523" type="line" smooth="yes"/>
      <point x="931" y="582"/>
      <point x="971" y="610"/>
      <point x="1015" y="613" type="curve"/>
      <point x="1021" y="619"/>
      <point x="1021" y="641"/>
      <point x="1015" y="647" type="curve"/>
      <point x="982" y="646"/>
      <point x="948" y="645"/>
      <point x="913" y="645" type="curve" smooth="yes"/>
      <point x="872" y="645"/>
      <point x="825" y="646"/>
      <point x="788" y="647" type="curve"/>
      <point x="782" y="641"/>
      <point x="782" y="619"/>
      <point x="788" y="613" type="curve"/>
      <point x="845" y="604"/>
      <point x="864" y="583"/>
      <point x="852" y="546" type="curve" smooth="yes"/>
      <point x="727" y="174" type="line"/>
      <point x="721" y="175" type="line"/>
      <point x="586" y="573" type="line" smooth="yes"/>
      <point x="575" y="606"/>
      <point x="612" y="610"/>
      <point x="660" y="613" type="curve"/>
      <point x="666" y="619"/>
      <point x="666" y="641"/>
      <point x="660" y="647" type="curve"/>
      <point x="623" y="646"/>
      <point x="523" y="645"/>
      <point x="484" y="645" type="curve" smooth="yes"/>
      <point x="443" y="645"/>
      <point x="387" y="646"/>
      <point x="350" y="647" type="curve"/>
      <point x="344" y="641"/>
      <point x="344" y="619"/>
      <point x="350" y="613" type="curve"/>
      <point x="389" y="609"/>
      <point x="423" y="601"/>
      <point x="440" y="559" type="curve" smooth="yes"/>
    </contour>
    <contour>
      <point x="285" y="11" type="line" smooth="yes"/>
      <point x="292" y="-10"/>
      <point x="307" y="-12"/>
      <point x="318" y="-12" type="curve" smooth="yes"/>
      <point x="328" y="-12"/>
      <point x="344" y="-10"/>
      <point x="352" y="11" type="curve" smooth="yes"/>
      <point x="505" y="420" type="line"/>
      <point x="473" y="503" type="line"/>
      <point x="362" y="184" type="line"/>
      <point x="359" y="185" type="line"/>
      <point x="243" y="573" type="line" smooth="yes"/>
      <point x="233" y="606"/>
      <point x="269" y="610"/>
      <point x="317" y="613" type="curve"/>
      <point x="323" y="619"/>
      <point x="323" y="641"/>
      <point x="317" y="647" type="curve"/>
      <point x="280" y="646"/>
      <point x="180" y="645"/>
      <point x="141" y="645" type="curve" smooth="yes"/>
      <point x="100" y="645"/>
      <point x="44" y="646"/>
      <point x="7" y="647" type="curve"/>
      <point x="1" y="641"/>
      <point x="1" y="619"/>
      <point x="7" y="613" type="curve"/>
      <point x="46" y="609"/>
      <point x="82" y="602"/>
      <point x="97" y="559" type="curve" smooth="yes"/>
    </contour>
  </outline>
</glyph>
<glyph name="Y" format="2">
  <advance width="624"/>
  <unicode hex="0059"/>
  <anchor x="354" y="740" name="top"/>
  <anchor x="352" y="-60" name="b.minus-60"/>
  <outline>
    <contour>
      <point x="247" y="122" type="line" smooth="yes" name=".sk1"/>
      <point x="247" y="55"/>
      <point x="228" y="35"/>
      <point x="164" y="32" type="curve"/>
      <point x="154" y="26"/>
      <point x="154" y="4"/>
      <point x="164" y="-2" type="curve"/>
      <point x="206" y="-1"/>
      <point x="279" y="0"/>
      <point x="317" y="0" type="curve"/>
      <point x="317" y="0" type="line" name=".sk2"/>
      <point x="355" y="0"/>
      <point x="428" y="-1"/>
      <point x="470" y="-2" type="curve"/>
      <point x="480" y="4"/>
      <point x="480" y="26"/>
      <point x="470" y="32" type="curve"/>
      <point x="406" y="35"/>
      <point x="387" y="55"/>
      <point x="387" y="122" type="curve" smooth="yes"/>
      <point x="387" y="268" type="line" smooth="yes"/>
      <point x="387" y="308"/>
      <point x="391" y="329"/>
      <point x="404" y="351" type="curve" smooth="yes"/>
      <point x="532" y="565" type="line" smooth="yes"/>
      <point x="555" y="603"/>
      <point x="574" y="609"/>
      <point x="619" y="613" type="curve"/>
      <point x="625" y="619"/>
      <point x="625" y="641"/>
      <point x="619" y="647" type="curve"/>
      <point x="589" y="646"/>
      <point x="549" y="645"/>
      <point x="526" y="645" type="curve" smooth="yes"/>
      <point x="503" y="645"/>
      <point x="455" y="646"/>
      <point x="415" y="647" type="curve"/>
      <point x="409" y="641"/>
      <point x="409" y="619"/>
      <point x="415" y="613" type="curve"/>
      <point x="450" y="611"/>
      <point x="471" y="600"/>
      <point x="471" y="581" type="curve" smooth="yes"/>
      <point x="471" y="576"/>
      <point x="469" y="570"/>
      <point x="466" y="564" type="curve" smooth="yes"/>
      <point x="363" y="370" type="line" smooth="yes"/>
      <point x="356" y="357"/>
      <point x="349" y="357"/>
      <point x="340" y="373" type="curve" smooth="yes"/>
      <point x="236" y="557" type="line" smooth="yes"/>
      <point x="228" y="571"/>
      <point x="223" y="583"/>
      <point x="223" y="591" type="curve" smooth="yes"/>
      <point x="223" y="605"/>
      <point x="236" y="611"/>
      <point x="271" y="613" type="curve"/>
      <point x="277" y="619"/>
      <point x="277" y="641"/>
      <point x="271" y="647" type="curve"/>
      <point x="231" y="646"/>
      <point x="187" y="645"/>
      <point x="147" y="645" type="curve" smooth="yes"/>
      <point x="108" y="645"/>
      <point x="35" y="646"/>
      <point x="5" y="647" type="curve"/>
      <point x="-1" y="641"/>
      <point x="0" y="619"/>
      <point x="6" y="613" type="curve"/>
      <point x="48" y="610"/>
      <point x="67" y="603"/>
      <point x="100" y="547" type="curve" smooth="yes"/>
      <point x="227" y="332" type="line" smooth="yes"/>
      <point x="244" y="303"/>
      <point x="247" y="296"/>
      <point x="247" y="259" type="curve" smooth="yes"/>
    </contour>
  </outline>
</glyph>
<glyph name="underscore" format="2">
  <advance width="486"/>
  <unicode hex="005F"/>
  <outline>
    <contour>
      <point x="342" y="-103" type="line"/>
      <point x="135" y="-103" type="line"/>
      <point x="135" y="-151" type="line"/>
      <point x="342" y="-151" type="line"/>
    </contour>
    <contour>
      <point x="153" y="-151" type="line"/>
      <point x="153" y="-103" type="line"/>
      <point x="26" y="-103" type="line" smooth="yes"/>
      <point x="17" y="-103"/>
      <point x="1" y="-113"/>
      <point x="1" y="-134" type="curve" smooth="yes"/>
      <point x="1" y="-142"/>
      <point x="4" y="-151"/>
      <point x="11" y="-151" type="curve" smooth="yes"/>
    </contour>
    <contour>
      <point x="325" y="-151" type="line"/>
      <point x="460" y="-151" type="line" smooth="yes"/>
      <point x="471" y="-151"/>
      <point x="485" y="-139"/>
      <point x="485" y="-122" type="curve" smooth="yes"/>
      <point x="485" y="-113"/>
      <point x="482" y="-103"/>
      <point x="475" y="-103" type="curve" smooth="yes"/>
      <point x="325" y="-103" type="line"/>
    </contour>
  </outline>
</glyph>
<glyph name="a" format="2">
  <advance width="506"/>
  <unicode hex="0061"/>
  <anchor x="233" y="500" name="top"/>
  <anchor x="234" y="500" name="t.ring"/>
  <anchor x="447" y="10" name="b.ogonek"/>
  <anchor x="242" y="-60" name="b.minus-60"/>
  <outline>
    <contour>
      <point x="295" y="49" type="line"/>
      <point x="302" y="8"/>
      <point x="329" y="-10"/>
      <point x="373" y="-10" type="curve" smooth="yes"/>
      <point x="428" y="-10"/>
      <point x="467" y="11"/>
      <point x="504" y="46" type="curve"/>
      <point x="502" y="58"/>
      <point x="498" y="66"/>
      <point x="486" y="74" type="curve"/>
      <point x="473" y="64"/>
      <point x="463" y="60"/>
      <point x="444" y="60" type="curve" smooth="yes"/>
      <point x="422" y="60"/>
      <point x="417" y="78"/>
      <point x="417" y="127" type="curve" smooth="yes"/>
      <point x="417" y="271" type="line" smooth="yes"/>
      <point x="417" y="415"/>
      <point x="329" y="444"/>
      <point x="247" y="444" type="curve" smooth="yes"/>
      <point x="174" y="444"/>
      <point x="62" y="402"/>
      <point x="62" y="336" type="curve" smooth="yes"/>
      <point x="62" y="308"/>
      <point x="74" y="286"/>
      <point x="113" y="286" type="curve" smooth="yes"/>
      <point x="149" y="286"/>
      <point x="175" y="308"/>
      <point x="175" y="332" type="curve" smooth="yes"/>
      <point x="175" y="348"/>
      <point x="171" y="363"/>
      <point x="171" y="379" type="curve" smooth="yes"/>
      <point x="171" y="390"/>
      <point x="180" y="402"/>
      <point x="213" y="402" type="curve" smooth="yes"/>
      <point x="255" y="402"/>
      <point x="290" y="384"/>
      <point x="290" y="257" type="curve" smooth="yes"/>
      <point x="290" y="86" type="line"/>
      <point x="265" y="66"/>
      <point x="240" y="50"/>
      <point x="222" y="50" type="curve" smooth="yes"/>
      <point x="190" y="50"/>
      <point x="164" y="76"/>
      <point x="164" y="110" type="curve" smooth="yes"/>
      <point x="164" y="156"/>
      <point x="187" y="184"/>
      <point x="238" y="201" type="curve" smooth="yes"/>
      <point x="304" y="223" type="line"/>
      <point x="304" y="261" type="line"/>
      <point x="223" y="236" type="line" smooth="yes"/>
      <point x="87" y="193"/>
      <point x="44" y="159"/>
      <point x="44" y="95" type="curve" smooth="yes"/>
      <point x="44" y="28"/>
      <point x="86" y="-10"/>
      <point x="156" y="-10" type="curve" smooth="yes"/>
      <point x="191" y="-10"/>
      <point x="231" y="6"/>
      <point x="259" y="27" type="curve" smooth="yes"/>
      <point x="289" y="49" type="line"/>
    </contour>
  </outline>
</glyph>
<glyph name="d" format="2">
  <advance width="561"/>
  <unicode hex="0064"/>
  <anchor x="293" y="740" name="t.uni0302"/>
  <anchor x="277" y="-60" name="b.minus-60"/>
  <anchor x="549" y="652" name="apostrophe"/>
  <outline>
    <contour>
      <point x="359" y="7" type="curve"/>
      <point x="361" y="-5"/>
      <point x="368" y="-10"/>
      <point x="382" y="-10" type="curve"/>
      <point x="419" y="0"/>
      <point x="479" y="14"/>
      <point x="548" y="23" type="curve"/>
      <point x="550" y="29"/>
      <point x="548" y="49"/>
      <point x="546" y="55" type="curve"/>
      <point x="492" y="60"/>
      <point x="481" y="76"/>
      <point x="481" y="133" type="curve" smooth="yes"/>
      <point x="481" y="590" type="line"/>
      <point x="351" y="590" type="line"/>
      <point x="351" y="120" type="line" smooth="yes"/>
      <point x="351" y="83"/>
      <point x="354" y="44"/>
    </contour>
    <contour>
      <point x="363" y="429" type="line"/>
      <point x="343" y="437"/>
      <point x="314" y="444"/>
      <point x="279" y="444" type="curve" smooth="yes"/>
      <point x="150" y="444"/>
      <point x="37" y="331"/>
      <point x="37" y="198" type="curve" smooth="yes"/>
      <point x="37" y="85"/>
      <point x="107" y="-10"/>
      <point x="224" y="-10" type="curve" smooth="yes"/>
      <point x="259" y="-10"/>
      <point x="311" y="16"/>
      <point x="361" y="59" type="curve"/>
      <point x="359" y="103" type="line"/>
      <point x="329" y="73"/>
      <point x="295" y="56"/>
      <point x="266" y="56" type="curve" smooth="yes"/>
      <point x="216" y="56"/>
      <point x="177" y="112"/>
      <point x="177" y="229" type="curve" smooth="yes"/>
      <point x="177" y="294"/>
      <point x="187" y="402"/>
      <point x="276" y="402" type="curve" smooth="yes"/>
      <point x="306" y="402"/>
      <point x="337" y="398"/>
      <point x="363" y="346" type="curve"/>
    </contour>
    <contour>
      <point x="351" y="576" type="curve"/>
      <point x="481" y="576" type="line"/>
      <point x="481" y="627.375"/>
      <point x="482.078" y="655.678"/>
      <point x="485" y="681" type="curve"/>
      <point x="485" y="691.674"/>
      <point x="476.441" y="698"/>
      <point x="462" y="698" type="curve"/>
      <point x="432.764" y="686.306"/>
      <point x="348.69" y="673.08"/>
      <point x="284" y="670" type="curve"/>
      <point x="282.3" y="664.9"/>
      <point x="283.571" y="643.286"/>
      <point x="286" y="636" type="curve"/>
      <point x="338.605" y="630.942"/>
      <point x="351" y="619.5"/>
    </contour>
  </outline>
</glyph>
<glyph name="e" format="2">
  <advance width="483"/>
  <unicode hex="0065"/>
  <anchor x="248" y="500" name="t.uni0302"/>
  <anchor x="343" y="10" name="b.ogonek"/>
  <anchor x="251" y="-60" name="b.minus-60"/>
  <anchor x="248" y="0" name="b.cedilla"/>
  <outline>
    <contour>
      <point x="431" y="129" type="curve"/>
      <point x="390" y="87"/>
      <point x="336" y="76"/>
      <point x="298" y="76" type="curve" smooth="yes"/>
      <point x="214.933" y="76"/>
      <point x="173" y="129.339"/>
      <point x="173" y="235" type="curve"/>
      <point x="413" y="229" type="line" smooth="yes"/>
      <point x="433.779" y="228.481"/>
      <point x="442" y="242.348"/>
      <point x="442" y="260" type="curve" smooth="yes"/>
      <point x="442" y="345"/>
      <point x="409" y="444"/>
      <point x="262" y="444" type="curve" smooth="yes"/>
      <point x="157" y="444"/>
      <point x="37" y="351"/>
      <point x="37" y="198" type="curve" smooth="yes"/>
      <point x="37" y="60"/>
      <point x="128" y="-10"/>
      <point x="259" y="-10" type="curve" smooth="yes"/>
      <point x="328" y="-10"/>
      <point x="396" y="25"/>
      <point x="446" y="98" type="curve"/>
      <point x="446" y="111"/>
      <point x="441" y="129"/>
    </contour>
    <contour>
      <point x="175" y="271" type="line"/>
      <point x="187.188" y="377.779"/>
      <point x="209.612" y="402"/>
      <point x="249" y="402" type="curve" smooth="yes"/>
      <point x="278" y="402"/>
      <point x="315" y="378"/>
      <point x="315" y="298" type="curve" smooth="yes"/>
      <point x="315" y="291"/>
      <point x="310.987" y="277.527"/>
      <point x="300" y="277" type="curve" smooth="yes"/>
    </contour>
  </outline>
</glyph>
<glyph name="f" format="2">
  <advance width="391"/>
  <unicode hex="0066"/>
  <anchor x="132" y="-110" name="m.uni0316_2"/>
  <anchor x="410" y="750" name="m.uni031A_3"/>
  <anchor x="136" y="215" name="b.uni0334_6"/>
  <outline>
    <contour>
      <point x="102" y="122" type="line"/>
      <point x="232" y="122" type="line"/>
      <point x="232" y="384" type="line"/>
      <point x="318" y="384" type="line" smooth="yes"/>
      <point x="336" y="384"/>
      <point x="353" y="389"/>
      <point x="353" y="401" type="curve" smooth="yes"/>
      <point x="353" y="424" type="line" smooth="yes"/>
      <point x="353" y="430"/>
      <point x="352" y="434"/>
      <point x="333" y="434" type="curve" smooth="yes"/>
      <point x="232" y="434" type="line"/>
      <point x="232" y="485" type="line" smooth="yes"/>
      <point x="232" y="634"/>
      <point x="273" y="656"/>
      <point x="295" y="656" type="curve" smooth="yes"/>
      <point x="312" y="656"/>
      <point x="316.132" y="641.038"/>
      <point x="323" y="617" type="curve" smooth="yes"/>
      <point x="332.132" y="585.037"/>
      <point x="358" y="560"/>
      <point x="394" y="560" type="curve" smooth="yes"/>
      <point x="427" y="560"/>
      <point x="451" y="581"/>
      <point x="451" y="624" type="curve" smooth="yes"/>
      <point x="451" y="651"/>
      <point x="420" y="698"/>
      <point x="314" y="698" type="curve" smooth="yes"/>
      <point x="179" y="698"/>
      <point x="102" y="579"/>
      <point x="102" y="454" type="curve" smooth="yes"/>
      <point x="102" y="434" type="line"/>
      <point x="100" y="434" type="line" smooth="yes"/>
      <point x="66" y="434"/>
      <point x="25" y="429"/>
      <point x="25" y="421" type="curve" smooth="yes"/>
      <point x="25" y="394" type="line" smooth="yes"/>
      <point x="25" y="387"/>
      <point x="29" y="384"/>
      <point x="52" y="384" type="curve" smooth="yes"/>
      <point x="102" y="384" type="line"/>
    </contour>
    <contour>
      <point x="30" y="-2" type="curve"/>
      <point x="72" y="-1"/>
      <point x="114" y="0"/>
      <point x="167" y="0" type="curve" smooth="yes"/>
      <point x="212.21" y="-0.66"/>
      <point x="258.79" y="-1"/>
      <point x="304" y="-2" type="curve"/>
      <point x="310" y="4.25"/>
      <point x="310" y="25.625"/>
      <point x="304" y="32" type="curve"/>
      <point x="243" y="35"/>
      <point x="232" y="39"/>
      <point x="232" y="122" type="curve"/>
      <point x="102" y="122" type="line"/>
      <point x="102" y="39"/>
      <point x="91" y="35"/>
      <point x="30" y="32" type="curve"/>
      <point x="24" y="25.625"/>
      <point x="24" y="4.25"/>
    </contour>
  </outline>
</glyph>
<glyph name="g" format="2">
  <advance width="521"/>
  <unicode hex="0067"/>
  <anchor x="248" y="500" name="top"/>
  <outline>
    <contour>
      <point x="46" y="296" type="curve" smooth="yes"/>
      <point x="46" y="195"/>
      <point x="141" y="142"/>
      <point x="231" y="142" type="curve" smooth="yes"/>
      <point x="321" y="142"/>
      <point x="412" y="191"/>
      <point x="412" y="291" type="curve" smooth="yes"/>
      <point x="412" y="347"/>
      <point x="384" y="384"/>
      <point x="350" y="412" type="curve"/>
      <point x="358" y="422"/>
      <point x="391" y="440"/>
      <point x="401" y="440" type="curve" smooth="yes"/>
      <point x="410" y="440"/>
      <point x="417" y="434"/>
      <point x="420" y="428" type="curve"/>
      <point x="424" y="415"/>
      <point x="442" y="394"/>
      <point x="467" y="394" type="curve" smooth="yes"/>
      <point x="495" y="394"/>
      <point x="511" y="406"/>
      <point x="511" y="443" type="curve" smooth="yes"/>
      <point x="511" y="462"/>
      <point x="485" y="491"/>
      <point x="447" y="491" type="curve" smooth="yes"/>
      <point x="403" y="491"/>
      <point x="345" y="458"/>
      <point x="316" y="432" type="curve"/>
      <point x="298" y="442"/>
      <point x="277" y="444"/>
      <point x="232" y="444" type="curve" smooth="yes"/>
      <point x="145" y="444"/>
      <point x="46" y="395"/>
    </contour>
    <contour>
      <point x="11" y="-106" type="curve" smooth="yes"/>
      <point x="11" y="-225"/>
      <point x="104" y="-238"/>
      <point x="203" y="-238" type="curve" smooth="yes"/>
      <point x="342" y="-238"/>
      <point x="501" y="-165"/>
      <point x="501" y="-55" type="curve" smooth="yes"/>
      <point x="501" y="67"/>
      <point x="328" y="72"/>
      <point x="242" y="72" type="curve" smooth="yes"/>
      <point x="221" y="72"/>
      <point x="200" y="68"/>
      <point x="179" y="68" type="curve" smooth="yes"/>
      <point x="163" y="68"/>
      <point x="143" y="77"/>
      <point x="143" y="111" type="curve" smooth="yes"/>
      <point x="143" y="132"/>
      <point x="149" y="150"/>
      <point x="161" y="164" type="curve"/>
      <point x="133" y="176" type="line"/>
      <point x="104" y="154"/>
      <point x="44" y="90"/>
      <point x="44" y="68" type="curve" smooth="yes"/>
      <point x="44" y="7"/>
      <point x="108" y="-26"/>
      <point x="162" y="-26" type="curve" smooth="yes"/>
      <point x="185" y="-26"/>
      <point x="208" y="-22"/>
      <point x="231" y="-22" type="curve" smooth="yes"/>
      <point x="312" y="-22"/>
      <point x="400" y="-38"/>
      <point x="400" y="-81" type="curve" smooth="yes"/>
      <point x="400" y="-185"/>
      <point x="313" y="-196"/>
      <point x="231" y="-196" type="curve" smooth="yes"/>
      <point x="165" y="-196"/>
      <point x="120" y="-147"/>
      <point x="120" y="-96" type="curve" smooth="yes"/>
      <point x="120" y="-56"/>
      <point x="120" y="-31"/>
      <point x="139" y="-8" type="curve"/>
      <point x="112" y="1" type="line"/>
      <point x="65" y="-19"/>
      <point x="11" y="-87"/>
    </contour>
    <contour>
      <point x="166" y="305" type="curve" smooth="yes"/>
      <point x="166" y="379"/>
      <point x="184" y="406"/>
      <point x="223" y="406" type="curve" smooth="yes"/>
      <point x="270" y="406"/>
      <point x="290" y="367"/>
      <point x="290" y="288" type="curve" smooth="yes"/>
      <point x="290" y="192"/>
      <point x="262" y="180"/>
      <point x="236" y="180" type="curve" smooth="yes"/>
      <point x="174" y="180"/>
      <point x="166" y="254"/>
    </contour>
  </outline>
</glyph>
<glyph name="h" format="2">
  <advance width="609"/>
  <unicode hex="0068"/>
  <anchor x="322" y="740" name="top"/>
  <anchor x="305" y="-60" name="b.minus-60"/>
  <anchor x="163" y="10" name="b.cedilla"/>
  <outline>
    <contour>
      <point x="19" y="-2" type="curve"/>
      <point x="61" y="-1"/>
      <point x="103" y="0"/>
      <point x="156" y="0" type="curve" smooth="yes"/>
      <point x="202" y="0"/>
      <point x="230" y="-1"/>
      <point x="273" y="-2" type="curve"/>
      <point x="279" y="4"/>
      <point x="279" y="26"/>
      <point x="273" y="32" type="curve"/>
      <point x="231" y="36"/>
      <point x="221" y="39"/>
      <point x="221" y="122" type="curve"/>
      <point x="91" y="122" type="line"/>
      <point x="91" y="39"/>
      <point x="80" y="37"/>
      <point x="19" y="32" type="curve"/>
      <point x="13" y="26"/>
      <point x="13" y="4"/>
    </contour>
    <contour>
      <point x="332" y="-2" type="curve"/>
      <point x="374" y="-1"/>
      <point x="406" y="0"/>
      <point x="454" y="0" type="curve" smooth="yes"/>
      <point x="509" y="0"/>
      <point x="553" y="-1"/>
      <point x="596" y="-2" type="curve"/>
      <point x="602" y="4"/>
      <point x="602" y="26"/>
      <point x="596" y="32" type="curve"/>
      <point x="535" y="35"/>
      <point x="519" y="39"/>
      <point x="519" y="122" type="curve"/>
      <point x="389" y="122" type="line"/>
      <point x="389" y="39"/>
      <point x="373" y="35"/>
      <point x="332" y="32" type="curve"/>
      <point x="326" y="26"/>
      <point x="326" y="4"/>
    </contour>
    <contour>
      <point x="221" y="122" type="line"/>
      <point x="221" y="576" type="line" smooth="yes" name=".sk1"/>
      <point x="221" y="627"/>
      <point x="222" y="656"/>
      <point x="225" y="681" type="curve"/>
      <point x="225" y="692"/>
      <point x="216" y="698"/>
      <point x="202" y="698" type="curve"/>
      <point x="173" y="686"/>
      <point x="89" y="673"/>
      <point x="24" y="670" type="curve"/>
      <point x="22" y="665"/>
      <point x="24" y="643"/>
      <point x="26" y="636" type="curve"/>
      <point x="79" y="631"/>
      <point x="91" y="620"/>
      <point x="91" y="576" type="curve" smooth="yes"/>
      <point x="91" y="122" type="line"/>
    </contour>
    <contour>
      <point x="519" y="122" type="line"/>
      <point x="519" y="284" type="line" smooth="yes"/>
      <point x="519" y="391"/>
      <point x="475" y="444"/>
      <point x="386" y="444" type="curve" smooth="yes"/>
      <point x="354" y="444"/>
      <point x="282" y="411"/>
      <point x="202" y="359" type="curve"/>
      <point x="202" y="320" type="line"/>
      <point x="249" y="351"/>
      <point x="291" y="370"/>
      <point x="314" y="370" type="curve" smooth="yes"/>
      <point x="363" y="370"/>
      <point x="389" y="344"/>
      <point x="389" y="295" type="curve" smooth="yes"/>
      <point x="389" y="122" type="line"/>
    </contour>
    <contour>
      <point x="91" y="576" type="curve"/>
      <point x="221" y="576" type="line"/>
      <point x="221" y="627"/>
      <point x="222" y="656"/>
      <point x="225" y="681" type="curve"/>
      <point x="225" y="692"/>
      <point x="216" y="698"/>
      <point x="202" y="698" type="curve"/>
      <point x="173" y="686"/>
      <point x="89" y="673"/>
      <point x="24" y="670" type="curve"/>
      <point x="22" y="665"/>
      <point x="24" y="643"/>
      <point x="26" y="636" type="curve"/>
      <point x="79" y="631"/>
      <point x="91" y="620"/>
    </contour>
  </outline>
</glyph>
<glyph name="i" format="2">
	<unicode hex="0069"/>
	<advance width="322"/>
	<outline>
		<component base="dotlessi" xOffset="5"/>
		<contour>
			<point x="97" y="594" type="curve" smooth="yes"/>
			<point x="97" y="563.158"/>
			<point x="119.737" y="530"/>
			<point x="164" y="530" type="curve" smooth="yes"/>
			<point x="209.282" y="530"/>
			<point x="232" y="563.131"/>
			<point x="232" y="594" type="curve" smooth="yes"/>
			<point x="232" y="625.869"/>
			<point x="209.32" y="658"/>
			<point x="164" y="658" type="curve" smooth="yes"/>
			<point x="119.7" y="658"/>
			<point x="97" y="625.842"/>
		</contour>
	</outline>
	<anchor name="t.uni0302" x="137" y="795"/>
	<anchor name="b.ogonek" x="241" y="10"/>
	<anchor name="b.minus-60" x="178" y="-60"/>
</glyph>
<glyph name="j" format="2">
  <advance width="312"/>
  <unicode hex="006A"/>
  <outline>
    <component base="uni0237"/>
    <contour>
      <point x="97" y="594" type="curve" smooth="yes"/>
      <point x="97" y="563"/>
      <point x="120" y="530"/>
      <point x="164" y="530" type="curve" smooth="yes"/>
      <point x="209" y="530"/>
      <point x="232" y="563"/>
      <point x="232" y="594" type="curve" smooth="yes"/>
      <point x="232" y="626"/>
      <point x="209" y="658"/>
      <point x="164" y="658" type="curve" smooth="yes"/>
      <point x="120" y="658"/>
      <point x="97" y="626"/>
    </contour>
  </outline>
</glyph>
<glyph name="l" format="2">
	<unicode hex="006C"/>
	<advance width="314"/>
	<outline>
		<contour>
			<point x="19" y="-2" type="curve"/>
			<point x="61" y="-1"/>
			<point x="108" y="0"/>
			<point x="161" y="0" type="curve"/>
			<point x="161" y="122" type="line"/>
			<point x="91" y="122" type="line"/>
			<point x="91" y="39"/>
			<point x="80" y="35"/>
			<point x="19" y="32" type="curve"/>
			<point x="13" y="26"/>
			<point x="13" y="4"/>
		</contour>
		<contour>
			<point x="91" y="110" type="line"/>
			<point x="221" y="110" type="line"/>
			<point x="221" y="590" type="line"/>
			<point x="91" y="590" type="line"/>
		</contour>
		<contour>
			<point x="90.9367" y="576" type="curve"/>
			<point x="220.937" y="576" type="line"/>
			<point x="220.937" y="627.375"/>
			<point x="222.015" y="655.678"/>
			<point x="224.937" y="681" type="curve"/>
			<point x="224.937" y="691.674"/>
			<point x="216.378" y="698"/>
			<point x="201.937" y="698" type="curve"/>
			<point x="172.701" y="686.306"/>
			<point x="88.627" y="673.08"/>
			<point x="23.9367" y="670" type="curve"/>
			<point x="22.2367" y="664.9"/>
			<point x="23.5081" y="643.286"/>
			<point x="25.9367" y="636" type="curve"/>
			<point x="78.5414" y="630.942"/>
			<point x="90.9367" y="619.5"/>
		</contour>
		<contour>
			<point x="151" y="0" type="line"/>
			<point x="196" y="-1"/>
			<point x="248" y="-1"/>
			<point x="293" y="-2" type="curve"/>
			<point x="299" y="4"/>
			<point x="299" y="26"/>
			<point x="293" y="32" type="curve"/>
			<point x="232" y="35"/>
			<point x="221" y="39"/>
			<point x="221" y="122" type="curve"/>
			<point x="151" y="122" type="line"/>
		</contour>
	</outline>
	<anchor name="t.uni0302" x="143" y="740"/>
	<anchor name="b.minus-60" x="156" y="-60"/>
	<anchor name="apostrophe" x="273" y="652"/>
</glyph>
<glyph name="m" format="2">
  <advance width="904"/>
  <unicode hex="006D"/>
  <anchor x="443" y="500" name="top"/>
  <anchor x="442" y="-60" name="b.minus-60"/>
  <outline>
    <contour>
      <point x="25" y="-2" type="curve"/>
      <point x="67" y="-1"/>
      <point x="109" y="0"/>
      <point x="162" y="0" type="curve" smooth="yes"/>
      <point x="208" y="0"/>
      <point x="236" y="-1"/>
      <point x="279" y="-2" type="curve"/>
      <point x="285" y="4"/>
      <point x="285" y="26"/>
      <point x="279" y="32" type="curve"/>
      <point x="237" y="36"/>
      <point x="227" y="39"/>
      <point x="227" y="122" type="curve"/>
      <point x="97" y="122" type="line"/>
      <point x="97" y="39"/>
      <point x="86" y="37"/>
      <point x="25" y="32" type="curve"/>
      <point x="19" y="26"/>
      <point x="19" y="4"/>
    </contour>
    <contour>
      <point x="336" y="-2" type="curve"/>
      <point x="378" y="-1"/>
      <point x="400" y="0"/>
      <point x="453" y="0" type="curve" smooth="yes"/>
      <point x="498" y="-1"/>
      <point x="525" y="-1"/>
      <point x="570" y="-2" type="curve"/>
      <point x="576" y="4"/>
      <point x="576" y="26"/>
      <point x="570" y="32" type="curve"/>
      <point x="529" y="35"/>
      <point x="518" y="39"/>
      <point x="518" y="122" type="curve"/>
      <point x="388" y="122" type="line"/>
      <point x="388" y="39"/>
      <point x="377" y="35"/>
      <point x="336" y="32" type="curve"/>
      <point x="330" y="26"/>
      <point x="330" y="4"/>
    </contour>
    <contour>
      <point x="622" y="-2" type="curve"/>
      <point x="664" y="-1"/>
      <point x="696" y="0"/>
      <point x="744" y="0" type="curve" smooth="yes"/>
      <point x="799" y="0"/>
      <point x="843" y="-1"/>
      <point x="886" y="-2" type="curve"/>
      <point x="892" y="4"/>
      <point x="892" y="26"/>
      <point x="886" y="32" type="curve"/>
      <point x="825" y="35"/>
      <point x="809" y="39"/>
      <point x="809" y="122" type="curve"/>
      <point x="679" y="122" type="line"/>
      <point x="679" y="39"/>
      <point x="663" y="35"/>
      <point x="622" y="32" type="curve"/>
      <point x="616" y="26"/>
      <point x="616" y="4"/>
    </contour>
    <contour>
      <point x="97" y="316" type="curve"/>
      <point x="227" y="336" type="line"/>
      <point x="227" y="365"/>
      <point x="224" y="399"/>
      <point x="219" y="427" type="curve" smooth="yes"/>
      <point x="217" y="438"/>
      <point x="210" y="444"/>
      <point x="196" y="444" type="curve"/>
      <point x="145" y="430"/>
      <point x="84" y="418"/>
      <point x="30" y="411" type="curve"/>
      <point x="28" y="406"/>
      <point x="30" y="386"/>
      <point x="32" y="379" type="curve"/>
      <point x="88" y="374"/>
      <point x="97" y="357"/>
    </contour>
    <contour>
      <point x="679" y="122" type="line"/>
      <point x="809" y="122" type="line"/>
      <point x="809" y="282" type="line" smooth="yes"/>
      <point x="809" y="392"/>
      <point x="769" y="442"/>
      <point x="683" y="442" type="curve" smooth="yes"/>
      <point x="643" y="442"/>
      <point x="549" y="396"/>
      <point x="491" y="363" type="curve"/>
      <point x="498" y="328" type="line"/>
      <point x="539" y="352"/>
      <point x="593" y="368"/>
      <point x="611" y="368" type="curve" smooth="yes"/>
      <point x="651" y="368"/>
      <point x="679" y="350"/>
      <point x="679" y="293" type="curve" smooth="yes"/>
    </contour>
    <contour>
      <point x="388" y="122" type="line"/>
      <point x="518" y="122" type="line"/>
      <point x="518" y="282" type="line" smooth="yes"/>
      <point x="518" y="367"/>
      <point x="491" y="442"/>
      <point x="390" y="442" type="curve" smooth="yes"/>
      <point x="351" y="442"/>
      <point x="270" y="397"/>
      <point x="211" y="364" type="curve"/>
      <point x="209" y="322" type="line"/>
      <point x="255" y="355"/>
      <point x="298" y="368"/>
      <point x="318" y="368" type="curve" smooth="yes"/>
      <point x="358" y="368"/>
      <point x="388" y="350"/>
      <point x="388" y="293" type="curve" smooth="yes"/>
    </contour>
    <contour>
      <point x="97" y="122" type="line"/>
      <point x="227" y="122" type="line"/>
      <point x="227" y="336" type="line"/>
      <point x="97" y="316" type="line"/>
    </contour>
  </outline>
</glyph>
<glyph name="n" format="2">
  <advance width="616"/>
  <unicode hex="006E"/>
  <anchor x="233" y="500" name="t.uni0302"/>
  <anchor x="304" y="-60" name="b.minus-60"/>
  <anchor x="-1" y="652" name="apostrophe"/>
  <outline>
    <contour>
      <point x="339" y="-2" type="curve"/>
      <point x="381" y="-1"/>
      <point x="413" y="0"/>
      <point x="461" y="0" type="curve" smooth="yes"/>
      <point x="516" y="0"/>
      <point x="560" y="-1"/>
      <point x="603" y="-2" type="curve"/>
      <point x="609" y="4"/>
      <point x="609" y="26"/>
      <point x="603" y="32" type="curve"/>
      <point x="542" y="35"/>
      <point x="526" y="39"/>
      <point x="526" y="122" type="curve"/>
      <point x="396" y="122" type="line"/>
      <point x="396" y="39"/>
      <point x="380" y="35"/>
      <point x="339" y="32" type="curve"/>
      <point x="333" y="26"/>
      <point x="333" y="4"/>
    </contour>
    <contour>
      <point x="26" y="-2" type="curve"/>
      <point x="68" y="-1"/>
      <point x="110" y="0"/>
      <point x="163" y="0" type="curve" smooth="yes"/>
      <point x="209" y="0"/>
      <point x="237" y="-1"/>
      <point x="280" y="-2" type="curve"/>
      <point x="286" y="4"/>
      <point x="286" y="26"/>
      <point x="280" y="32" type="curve"/>
      <point x="238" y="36"/>
      <point x="228" y="39"/>
      <point x="228" y="122" type="curve"/>
      <point x="98" y="122" type="line"/>
      <point x="98" y="39"/>
      <point x="87" y="37"/>
      <point x="26" y="32" type="curve"/>
      <point x="20" y="26"/>
      <point x="20" y="4"/>
    </contour>
    <contour>
      <point x="396" y="122" type="line"/>
      <point x="526" y="122" type="line"/>
      <point x="526" y="284" type="line" smooth="yes"/>
      <point x="526" y="390.729"/>
      <point x="481.719" y="444"/>
      <point x="393" y="444" type="curve" smooth="yes"/>
      <point x="360.938" y="444"/>
      <point x="301.998" y="414.195"/>
      <point x="217" y="355" type="curve"/>
      <point x="228" y="323" type="line"/>
      <point x="270.089" y="351.41"/>
      <point x="308.851" y="370"/>
      <point x="326" y="370" type="curve" smooth="yes"/>
      <point x="372.6" y="370"/>
      <point x="396" y="344.929"/>
      <point x="396" y="295" type="curve" smooth="yes"/>
    </contour>
    <contour>
      <point x="98" y="122" type="line"/>
      <point x="228" y="122" type="line"/>
      <point x="228" y="336" type="line"/>
      <point x="98" y="316" type="line"/>
    </contour>
    <contour>
      <point x="98" y="316" type="curve"/>
      <point x="228" y="336" type="line"/>
      <point x="228" y="365"/>
      <point x="225.136" y="399.382"/>
      <point x="220" y="427" type="curve" smooth="yes"/>
      <point x="217.868" y="438.463"/>
      <point x="211.475" y="444"/>
      <point x="197" y="444" type="curve"/>
      <point x="145.503" y="430.082"/>
      <point x="84.8429" y="418.023"/>
      <point x="31" y="411" type="curve"/>
      <point x="29.3158" y="405.947"/>
      <point x="30.5385" y="386.385"/>
      <point x="33" y="379" type="curve"/>
      <point x="89.4043" y="373.872"/>
      <point x="98" y="357"/>
    </contour>
  </outline>
</glyph>
<glyph name="o" format="2">
  <advance width="537"/>
  <unicode hex="006F"/>
  <anchor x="249" y="500" name="top"/>
  <anchor x="350" y="10" name="b.ogonek"/>
  <anchor x="258" y="-60" name="b.minus-60"/>
  <anchor x="387" y="403" name="t.horn"/>
  <outline>
    <contour>
      <point x="254" y="-10" type="curve" smooth="yes"/>
      <point x="401" y="-10"/>
      <point x="507" y="83"/>
      <point x="507" y="213" type="curve" smooth="yes"/>
      <point x="507" y="357"/>
      <point x="422" y="444"/>
      <point x="281" y="444" type="curve" smooth="yes"/>
      <point x="132" y="444"/>
      <point x="30" y="348"/>
      <point x="30" y="204" type="curve" smooth="yes"/>
      <point x="30" y="73"/>
      <point x="115" y="-10"/>
    </contour>
    <contour>
      <point x="279" y="32" type="curve" smooth="yes"/>
      <point x="216" y="32"/>
      <point x="170" y="121"/>
      <point x="170" y="229" type="curve" smooth="yes"/>
      <point x="170" y="345"/>
      <point x="204" y="402"/>
      <point x="261" y="402" type="curve" smooth="yes"/>
      <point x="330" y="402"/>
      <point x="367" y="318"/>
      <point x="367" y="184" type="curve" smooth="yes"/>
      <point x="367" y="91"/>
      <point x="329" y="32"/>
    </contour>
  </outline>
</glyph>
<glyph name="p" format="2">
  <advance width="573"/>
  <unicode hex="0070"/>
  <anchor x="253" y="500" name="t.uni0302"/>
  <anchor x="345" y="-60" name="b.minus-60"/>
  <outline>
    <contour>
      <point x="95" y="-120" type="line"/>
      <point x="225" y="-120" type="line"/>
      <point x="225" y="321" type="line" smooth="yes"/>
      <point x="225" y="356"/>
      <point x="221" y="392"/>
      <point x="217" y="427" type="curve"/>
      <point x="215" y="439"/>
      <point x="208" y="444"/>
      <point x="194" y="444" type="curve"/>
      <point x="157" y="434"/>
      <point x="97" y="420"/>
      <point x="28" y="411" type="curve"/>
      <point x="26" y="405"/>
      <point x="28" y="385"/>
      <point x="30" y="379" type="curve"/>
      <point x="85" y="374"/>
      <point x="95" y="366"/>
      <point x="95" y="309" type="curve" smooth="yes"/>
    </contour>
    <contour>
      <point x="210" y="15" type="line"/>
      <point x="238" y="-1"/>
      <point x="263" y="-10"/>
      <point x="292" y="-10" type="curve" smooth="yes"/>
      <point x="444" y="-10"/>
      <point x="543" y="90"/>
      <point x="543" y="237" type="curve" smooth="yes"/>
      <point x="543" y="358"/>
      <point x="468" y="444"/>
      <point x="346" y="444" type="curve" smooth="yes"/>
      <point x="317" y="444"/>
      <point x="263" y="409"/>
      <point x="228" y="377" type="curve"/>
      <point x="212" y="377" type="line"/>
      <point x="212" y="325" type="line"/>
      <point x="242" y="360"/>
      <point x="288" y="377"/>
      <point x="314" y="377" type="curve" smooth="yes"/>
      <point x="355" y="377"/>
      <point x="403" y="327"/>
      <point x="403" y="210" type="curve" smooth="yes"/>
      <point x="403" y="126"/>
      <point x="373" y="32"/>
      <point x="286" y="32" type="curve" smooth="yes"/>
      <point x="273" y="32"/>
      <point x="239" y="41"/>
      <point x="210" y="85" type="curve"/>
    </contour>
    <contour>
      <point x="23" y="-234" type="curve"/>
      <point x="65" y="-233"/>
      <point x="112" y="-232"/>
      <point x="165" y="-232" type="curve"/>
      <point x="165" y="-110" type="line"/>
      <point x="95" y="-110" type="line"/>
      <point x="95" y="-193"/>
      <point x="84" y="-197"/>
      <point x="23" y="-200" type="curve"/>
      <point x="17" y="-206"/>
      <point x="17" y="-228"/>
    </contour>
    <contour>
      <point x="155" y="-232" type="line"/>
      <point x="200" y="-233"/>
      <point x="252" y="-233"/>
      <point x="297" y="-234" type="curve"/>
      <point x="303" y="-228"/>
      <point x="303" y="-206"/>
      <point x="297" y="-200" type="curve"/>
      <point x="236" y="-197"/>
      <point x="225" y="-193"/>
      <point x="225" y="-110" type="curve"/>
      <point x="155" y="-110" type="line"/>
    </contour>
  </outline>
</glyph>
<glyph name="q" format="2">
	<unicode hex="0071"/>
	<advance width="573"/>
	<outline>
		<contour>
			<point x="36" y="208" type="curve" smooth="yes"/>
			<point x="36" y="80"/>
			<point x="112" y="-10"/>
			<point x="241" y="-10" type="curve" smooth="yes"/>
			<point x="268" y="-10"/>
			<point x="331" y="17"/>
			<point x="348" y="28" type="curve"/>
			<point x="362.869" y="28" type="line"/>
			<point x="362.869" y="81.2121" type="line"/>
			<point x="349.605" y="60.7113"/>
			<point x="302.555" y="46"/>
			<point x="288" y="46" type="curve" smooth="yes"/>
			<point x="238" y="46"/>
			<point x="176" y="82"/>
			<point x="176" y="229" type="curve" smooth="yes"/>
			<point x="176" y="329"/>
			<point x="220" y="402"/>
			<point x="285" y="402" type="curve" smooth="yes"/>
			<point x="309" y="402"/>
			<point x="331" y="393"/>
			<point x="353" y="366" type="curve"/>
			<point x="353" y="-120" type="line"/>
			<point x="483" y="-120" type="line"/>
			<point x="483" y="321" type="line" smooth="yes"/>
			<point x="483" y="371"/>
			<point x="485.552" y="413.276"/>
			<point x="487" y="427" type="curve"/>
			<point x="487" y="438"/>
			<point x="478" y="444"/>
			<point x="464" y="444" type="curve" smooth="yes"/>
			<point x="451" y="444"/>
			<point x="414" y="427"/>
			<point x="392" y="407" type="curve"/>
			<point x="370" y="424"/>
			<point x="336" y="444"/>
			<point x="288" y="444" type="curve" smooth="yes"/>
			<point x="155" y="444"/>
			<point x="36" y="341"/>
		</contour>
		<contour>
			<point x="281" y="-234" type="curve"/>
			<point x="323" y="-233"/>
			<point x="370" y="-232"/>
			<point x="423" y="-232" type="curve"/>
			<point x="423" y="-110" type="line"/>
			<point x="353" y="-110" type="line"/>
			<point x="353" y="-193"/>
			<point x="342" y="-197"/>
			<point x="281" y="-200" type="curve"/>
			<point x="275" y="-206"/>
			<point x="275" y="-228"/>
		</contour>
		<contour>
			<point x="413" y="-232" type="line"/>
			<point x="458" y="-233"/>
			<point x="510" y="-233"/>
			<point x="555" y="-234" type="curve"/>
			<point x="561" y="-228"/>
			<point x="561" y="-206"/>
			<point x="555" y="-200" type="curve"/>
			<point x="494" y="-197"/>
			<point x="483" y="-193"/>
			<point x="483" y="-110" type="curve"/>
			<point x="413" y="-110" type="line"/>
		</contour>
	</outline>
	<anchor name="t.uni0302" x="260" y="500"/>
	<anchor name="b.minus-60" x="352" y="-60"/>
</glyph>
<glyph name="r" format="2">
  <advance width="427"/>
  <unicode hex="0072"/>
  <anchor x="221" y="500" name="top"/>
  <anchor x="162" y="-60" name="b.minus-60"/>
  <outline>
    <contour>
      <point x="227" y="110" type="line"/>
      <point x="227" y="268" type="line" smooth="yes"/>
      <point x="227" y="298"/>
      <point x="245" y="351"/>
      <point x="278.531" y="351" type="curve" smooth="yes"/>
      <point x="311.771" y="351"/>
      <point x="313.478" y="316"/>
      <point x="354.804" y="316" type="curve" smooth="yes"/>
      <point x="391.094" y="316"/>
      <point x="415" y="344.594"/>
      <point x="415" y="382.012" type="curve" smooth="yes"/>
      <point x="415" y="421.429"/>
      <point x="388.398" y="444"/>
      <point x="353.459" y="444" type="curve" smooth="yes"/>
      <point x="314" y="444"/>
      <point x="276" y="414"/>
      <point x="230" y="348" type="curve"/>
      <point x="227" y="348" type="line"/>
      <point x="225" y="378"/>
      <point x="220" y="427"/>
      <point x="220" y="427" type="curve"/>
      <point x="219" y="436"/>
      <point x="211" y="444"/>
      <point x="197" y="444" type="curve"/>
      <point x="149" y="432"/>
      <point x="96" y="418"/>
      <point x="30" y="411" type="curve"/>
      <point x="28" y="405"/>
      <point x="30" y="386"/>
      <point x="32" y="380" type="curve"/>
      <point x="87" y="375"/>
      <point x="97" y="366"/>
      <point x="97" y="309" type="curve" smooth="yes"/>
      <point x="97" y="110" type="line"/>
    </contour>
    <contour>
      <point x="25" y="-2" type="curve"/>
      <point x="67" y="-1"/>
      <point x="114" y="0"/>
      <point x="167" y="0" type="curve"/>
      <point x="167" y="122" type="line"/>
      <point x="97" y="122" type="line"/>
      <point x="97" y="39"/>
      <point x="86" y="35"/>
      <point x="25" y="32" type="curve"/>
      <point x="19" y="26"/>
      <point x="19" y="4"/>
    </contour>
    <contour>
      <point x="157" y="0" type="line"/>
      <point x="202" y="-1"/>
      <point x="254" y="-1"/>
      <point x="299" y="-2" type="curve"/>
      <point x="305" y="4"/>
      <point x="305" y="26"/>
      <point x="299" y="32" type="curve"/>
      <point x="238" y="35"/>
      <point x="227" y="39"/>
      <point x="227" y="122" type="curve"/>
      <point x="157" y="122" type="line"/>
    </contour>
  </outline>
</glyph>
<glyph name="s" format="2">
  <advance width="427"/>
  <unicode hex="0073"/>
  <anchor x="205" y="500" name="top"/>
  <anchor x="229" y="-60" name="b.minus-60"/>
  <anchor x="212" y="0" name="b.cedilla"/>
  <outline>
    <contour>
      <point x="58" y="146" type="curve"/>
      <point x="66" y="98"/>
      <point x="71" y="45"/>
      <point x="73" y="-2" type="curve"/>
      <point x="99" y="-2"/>
      <point x="176" y="-10"/>
      <point x="209" y="-10" type="curve" smooth="yes"/>
      <point x="291" y="-10"/>
      <point x="377" y="32"/>
      <point x="377" y="126" type="curve" smooth="yes"/>
      <point x="377" y="190"/>
      <point x="334" y="240"/>
      <point x="261" y="264" type="curve" smooth="yes"/>
      <point x="191" y="286"/>
      <point x="176" y="303"/>
      <point x="176" y="355" type="curve" smooth="yes"/>
      <point x="176" y="383"/>
      <point x="195" y="402"/>
      <point x="223" y="402" type="curve" smooth="yes"/>
      <point x="259" y="402"/>
      <point x="293" y="370"/>
      <point x="318" y="309" type="curve"/>
      <point x="331" y="306"/>
      <point x="339" y="307"/>
      <point x="347" y="314" type="curve"/>
      <point x="343" y="352"/>
      <point x="341" y="385"/>
      <point x="344" y="416" type="curve"/>
      <point x="303" y="423"/>
      <point x="273" y="444"/>
      <point x="218" y="444" type="curve" smooth="yes"/>
      <point x="122" y="444"/>
      <point x="63" y="395"/>
      <point x="63" y="314" type="curve" smooth="yes"/>
      <point x="63" y="251"/>
      <point x="96" y="209"/>
      <point x="156" y="187" type="curve" smooth="yes"/>
      <point x="237" y="157"/>
      <point x="261" y="133"/>
      <point x="261" y="81" type="curve" smooth="yes"/>
      <point x="261" y="49"/>
      <point x="242" y="29"/>
      <point x="212" y="29" type="curve" smooth="yes"/>
      <point x="167" y="29"/>
      <point x="119" y="75"/>
      <point x="98" y="148" type="curve"/>
      <point x="82" y="151"/>
      <point x="74" y="150"/>
    </contour>
  </outline>
</glyph>
<glyph name="t" format="2">
  <advance width="362"/>
  <unicode hex="0074"/>
  <anchor x="153" y="640" name="top"/>
  <anchor x="199" y="-60" name="b.minus-60"/>
  <anchor x="205" y="0" name="b.cedilla"/>
  <outline>
    <contour>
      <point x="63" y="434" type="line" smooth="yes"/>
      <point x="49" y="434"/>
      <point x="34" y="430"/>
      <point x="21" y="419" type="curve"/>
      <point x="21" y="390" type="line" smooth="yes"/>
      <point x="21" y="385"/>
      <point x="22" y="384"/>
      <point x="26" y="384" type="curve" smooth="yes"/>
      <point x="91" y="384" type="line"/>
      <point x="91" y="105" type="line" smooth="yes"/>
      <point x="91" y="32"/>
      <point x="127" y="-10"/>
      <point x="201" y="-10" type="curve" smooth="yes"/>
      <point x="256" y="-10"/>
      <point x="321" y="18"/>
      <point x="341" y="46" type="curve"/>
      <point x="341" y="58"/>
      <point x="335" y="68"/>
      <point x="323" y="74" type="curve"/>
      <point x="310" y="64"/>
      <point x="285" y="60"/>
      <point x="266" y="60" type="curve" smooth="yes"/>
      <point x="244" y="60"/>
      <point x="221" y="77"/>
      <point x="221" y="127" type="curve" smooth="yes"/>
      <point x="221" y="384" type="line"/>
      <point x="322" y="384" type="line" smooth="yes"/>
      <point x="332" y="384"/>
      <point x="346" y="388"/>
      <point x="346" y="397" type="curve" smooth="yes"/>
      <point x="346" y="428" type="line" smooth="yes"/>
      <point x="346" y="432"/>
      <point x="343" y="434"/>
      <point x="338" y="434" type="curve" smooth="yes"/>
      <point x="221" y="434" type="line"/>
      <point x="222" y="468" type="line" smooth="yes"/>
      <point x="224" y="535"/>
      <point x="226" y="564"/>
      <point x="229" y="581" type="curve"/>
      <point x="229" y="587"/>
      <point x="226" y="590"/>
      <point x="221" y="590" type="curve" smooth="yes"/>
      <point x="209" y="590"/>
      <point x="108" y="558"/>
      <point x="102" y="550" type="curve" smooth="yes"/>
      <point x="95" y="541"/>
      <point x="91" y="514"/>
      <point x="91" y="434" type="curve"/>
    </contour>
  </outline>
</glyph>
<glyph name="w" format="2">
  <advance width="777"/>
  <unicode hex="0077"/>
  <anchor x="380" y="500" name="top"/>
  <anchor x="352" y="-60" name="b.minus-60"/>
  <outline>
    <contour>
      <point x="249" y="-12" type="curve" smooth="yes"/>
      <point x="259" y="-12"/>
      <point x="278" y="-10"/>
      <point x="286" y="11" type="curve" smooth="yes"/>
      <point x="380" y="257" type="line"/>
      <point x="476" y="9" type="line" smooth="yes"/>
      <point x="483" y="-9"/>
      <point x="502" y="-12"/>
      <point x="515" y="-12" type="curve" smooth="yes"/>
      <point x="525" y="-12"/>
      <point x="542" y="-9"/>
      <point x="550" y="11" type="curve" smooth="yes"/>
      <point x="673" y="316" type="line" smooth="yes"/>
      <point x="690" y="359"/>
      <point x="707" y="397"/>
      <point x="763" y="402" type="curve"/>
      <point x="769" y="408"/>
      <point x="769" y="430"/>
      <point x="763" y="436" type="curve"/>
      <point x="741" y="435"/>
      <point x="723" y="434"/>
      <point x="697" y="434" type="curve" smooth="yes"/>
      <point x="660" y="434"/>
      <point x="617" y="435"/>
      <point x="580" y="436" type="curve"/>
      <point x="574" y="430"/>
      <point x="574" y="408"/>
      <point x="580" y="402" type="curve"/>
      <point x="634" y="398"/>
      <point x="638" y="372"/>
      <point x="620" y="323" type="curve" smooth="yes"/>
      <point x="562" y="165" type="line"/>
      <point x="558" y="153"/>
      <point x="552" y="154"/>
      <point x="548" y="164" type="curve"/>
      <point x="489" y="339" type="line" smooth="yes"/>
      <point x="475" y="381"/>
      <point x="477" y="397"/>
      <point x="528" y="402" type="curve"/>
      <point x="534" y="408"/>
      <point x="534" y="430"/>
      <point x="528" y="436" type="curve"/>
      <point x="491" y="435"/>
      <point x="448" y="434"/>
      <point x="397" y="434" type="curve" smooth="yes"/>
      <point x="365" y="434"/>
      <point x="319" y="435"/>
      <point x="285" y="436" type="curve"/>
      <point x="279" y="430"/>
      <point x="279" y="408"/>
      <point x="285" y="402" type="curve"/>
      <point x="324" y="396"/>
      <point x="330" y="388"/>
      <point x="346" y="345" type="curve" smooth="yes"/>
      <point x="357" y="317" type="line"/>
      <point x="300" y="160" type="line"/>
      <point x="297" y="153"/>
      <point x="293" y="151"/>
      <point x="289" y="161" type="curve"/>
      <point x="229" y="339" type="line" smooth="yes"/>
      <point x="215" y="380"/>
      <point x="215" y="397"/>
      <point x="257" y="402" type="curve"/>
      <point x="263" y="408"/>
      <point x="263" y="430"/>
      <point x="257" y="436" type="curve"/>
      <point x="223" y="435"/>
      <point x="184" y="434"/>
      <point x="137" y="434" type="curve" smooth="yes"/>
      <point x="102" y="434"/>
      <point x="51" y="435"/>
      <point x="14" y="436" type="curve"/>
      <point x="8" y="430"/>
      <point x="8" y="408"/>
      <point x="14" y="402" type="curve"/>
      <point x="61" y="395"/>
      <point x="75" y="376"/>
      <point x="94" y="325" type="curve" smooth="yes"/>
      <point x="216" y="9" type="line" smooth="yes"/>
      <point x="223" y="-10"/>
      <point x="236" y="-12"/>
    </contour>
  </outline>
</glyph>
<glyph name="z" format="2">
  <advance width="452"/>
  <unicode hex="007A"/>
  <anchor x="222" y="500" name="top"/>
  <anchor x="191" y="-60" name="b.minus-60"/>
  <outline>
    <contour>
      <point x="61" y="446" type="curve"/>
      <point x="59" y="446"/>
      <point x="55" y="442"/>
      <point x="55" y="440" type="curve"/>
      <point x="54" y="395"/>
      <point x="48" y="350"/>
      <point x="40" y="301" type="curve"/>
      <point x="49" y="297"/>
      <point x="71" y="295"/>
      <point x="83" y="298" type="curve"/>
      <point x="103" y="371"/>
      <point x="134" y="393"/>
      <point x="164" y="394" type="curve" smooth="yes"/>
      <point x="266" y="397" type="line"/>
      <point x="268" y="395" type="line"/>
      <point x="26" y="32" type="line" smooth="yes"/>
      <point x="18" y="20"/>
      <point x="17" y="17"/>
      <point x="17" y="12" type="curve" smooth="yes"/>
      <point x="17" y="5"/>
      <point x="25" y="0"/>
      <point x="40" y="0" type="curve" smooth="yes"/>
      <point x="175" y="-1" type="line"/>
      <point x="175" y="42" type="line"/>
      <point x="416" y="405" type="line" smooth="yes"/>
      <point x="424" y="417"/>
      <point x="427" y="428"/>
      <point x="427" y="431" type="curve" smooth="yes"/>
      <point x="427" y="435"/>
      <point x="422" y="438"/>
      <point x="415" y="438" type="curve" smooth="yes"/>
      <point x="410" y="438"/>
      <point x="342" y="436"/>
      <point x="313" y="436" type="curve" smooth="yes"/>
      <point x="120" y="436" type="line" smooth="yes"/>
      <point x="88" y="436"/>
      <point x="79" y="443"/>
    </contour>
    <contour>
      <point x="175" y="39" type="line"/>
      <point x="175" y="-1" type="line"/>
      <point x="392" y="-3" type="line"/>
      <point x="404" y="31"/>
      <point x="417" y="83"/>
      <point x="424" y="133" type="curve"/>
      <point x="418" y="137"/>
      <point x="396" y="139"/>
      <point x="384" y="139" type="curve"/>
      <point x="370" y="110" type="line" smooth="yes"/>
      <point x="345" y="57"/>
      <point x="324" y="39"/>
      <point x="272" y="39" type="curve" smooth="yes"/>
    </contour>
  </outline>
</glyph>
<glyph name="braceleft" format="2">
  <advance width="307"/>
  <unicode hex="007B"/>
  <outline>
    <contour>
      <point x="208" y="552" type="line" smooth="yes"/>
      <point x="203.036" y="655.002"/>
      <point x="250" y="672"/>
      <point x="288" y="683" type="curve"/>
      <point x="294" y="689"/>
      <point x="294" y="701"/>
      <point x="288" y="707" type="curve"/>
      <point x="198" y="707"/>
      <point x="102.315" y="667.011"/>
      <point x="106" y="554" type="curve" smooth="yes"/>
      <point x="112" y="370" type="line"/>
      <point x="112" y="320"/>
      <point x="88" y="270"/>
      <point x="14" y="263" type="curve"/>
      <point x="5" y="254"/>
      <point x="6" y="239"/>
      <point x="14" y="231" type="curve"/>
      <point x="88" y="222"/>
      <point x="114" y="182"/>
      <point x="112" y="121" type="curve" smooth="yes"/>
      <point x="106" y="-49" type="line" smooth="yes"/>
      <point x="101" y="-179"/>
      <point x="187" y="-212"/>
      <point x="288" y="-212" type="curve"/>
      <point x="294" y="-206"/>
      <point x="294" y="-194"/>
      <point x="288" y="-188" type="curve"/>
      <point x="244" y="-188"/>
      <point x="204" y="-138"/>
      <point x="208" y="-54" type="curve" smooth="yes"/>
      <point x="216" y="95" type="line" smooth="yes"/>
      <point x="220" y="177"/>
      <point x="179" y="217"/>
      <point x="111" y="245" type="curve"/>
      <point x="111" y="249" type="line"/>
      <point x="178" y="268"/>
      <point x="220.289" y="297.013"/>
      <point x="216" y="386" type="curve" smooth="yes"/>
    </contour>
  </outline>
</glyph>
<glyph name="bar" format="2">
  <advance width="180"/>
  <unicode hex="007C"/>
  <outline>
    <contour>
      <point x="120" y="-240" type="curve"/>
      <point x="120" y="720" type="line"/>
      <point x="106.2" y="726"/>
      <point x="73.8" y="726"/>
      <point x="60" y="720" type="curve"/>
      <point x="60" y="-240" type="line"/>
      <point x="73.8" y="-246"/>
      <point x="106.2" y="-246"/>
    </contour>
  </outline>
  <guideline angle="0" x="0" y="720"/>
  <guideline angle="0" x="0" y="-240"/>
</glyph>
<glyph name="braceright" format="2">
  <advance width="307"/>
  <unicode hex="007D"/>
  <outline>
    <contour>
      <point x="99" y="-56" type="line" smooth="yes"/>
      <point x="103.964" y="-159.002"/>
      <point x="57" y="-176"/>
      <point x="19" y="-187" type="curve"/>
      <point x="13" y="-193"/>
      <point x="13" y="-205"/>
      <point x="19" y="-211" type="curve"/>
      <point x="109" y="-211"/>
      <point x="204.685" y="-171.011"/>
      <point x="201" y="-58" type="curve" smooth="yes"/>
      <point x="195" y="126" type="line"/>
      <point x="195" y="176"/>
      <point x="219" y="226"/>
      <point x="293" y="233" type="curve"/>
      <point x="302" y="242"/>
      <point x="301" y="257"/>
      <point x="293" y="265" type="curve"/>
      <point x="220" y="274"/>
      <point x="192.847" y="314.005"/>
      <point x="195" y="375" type="curve" smooth="yes"/>
      <point x="201" y="545" type="line" smooth="yes"/>
      <point x="205.589" y="675.015"/>
      <point x="120" y="708"/>
      <point x="19" y="708" type="curve"/>
      <point x="13" y="702"/>
      <point x="13" y="690"/>
      <point x="19" y="684" type="curve"/>
      <point x="63" y="684"/>
      <point x="103.512" y="634.028"/>
      <point x="99" y="550" type="curve" smooth="yes"/>
      <point x="91" y="401" type="line" smooth="yes"/>
      <point x="86.5984" y="319.021"/>
      <point x="128" y="279"/>
      <point x="196" y="251" type="curve"/>
      <point x="196" y="247" type="line"/>
      <point x="129" y="228"/>
      <point x="86.7115" y="198.987"/>
      <point x="91" y="110" type="curve" smooth="yes"/>
    </contour>
  </outline>
</glyph>
<glyph name="asciitilde" format="2">
  <advance width="477"/>
  <unicode hex="007E"/>
  <outline>
    <contour>
      <point x="159" y="268" type="curve" smooth="yes"/>
      <point x="227.38" y="268"/>
      <point x="263.712" y="207"/>
      <point x="334.071" y="207" type="curve" smooth="yes"/>
      <point x="398.238" y="207"/>
      <point x="431.863" y="235.721"/>
      <point x="457" y="312" type="curve"/>
      <point x="451.705" y="327.886"/>
      <point x="446.666" y="338.778"/>
      <point x="431" y="344" type="curve"/>
      <point x="408.137" y="295.912"/>
      <point x="370.071" y="280"/>
      <point x="342.071" y="280" type="curve" smooth="yes"/>
      <point x="288.965" y="280"/>
      <point x="248.885" y="341"/>
      <point x="167" y="341" type="curve" smooth="yes"/>
      <point x="112.208" y="341"/>
      <point x="49.3427" y="298.458"/>
      <point x="20.9085" y="223.774" type="curve"/>
      <point x="25.1661" y="215.316"/>
      <point x="41.3643" y="204"/>
      <point x="53" y="204" type="curve"/>
      <point x="72.0736" y="244.531"/>
      <point x="111.188" y="268"/>
    </contour>
  </outline>
  <guideline angle="83.746" x="342.071" y="280"/>
  <guideline angle="253.229" x="307.384" y="341"/>
</glyph>
<glyph name="cent" format="2">
  <advance width="540"/>
  <unicode hex="00A2"/>
  <outline>
    <contour>
      <point x="262" y="584" type="line"/>
      <point x="262" y="514" type="line"/>
      <point x="158" y="505"/>
      <point x="69" y="421"/>
      <point x="61" y="293" type="curve"/>
      <point x="60" y="286"/>
      <point x="60" y="279"/>
      <point x="60" y="272" type="curve" smooth="yes"/>
      <point x="60" y="207"/>
      <point x="83" y="150"/>
      <point x="122" y="113" type="curve" smooth="yes"/>
      <point x="158" y="79"/>
      <point x="200" y="64"/>
      <point x="262" y="61" type="curve"/>
      <point x="262" y="-12" type="line" name=".hr01"/>
      <point x="296" y="-12" type="line"/>
      <point x="296" y="62" type="line" name=".hr02"/>
      <point x="351" y="69"/>
      <point x="411" y="108"/>
      <point x="445" y="158" type="curve" name=".hr03"/>
      <point x="445" y="170"/>
      <point x="443" y="189"/>
      <point x="432" y="189" type="curve"/>
      <point x="392" y="152"/>
      <point x="358" y="132"/>
      <point x="329" y="132" type="curve" smooth="yes"/>
      <point x="324" y="132"/>
      <point x="318" y="133"/>
      <point x="313" y="133" type="curve"/>
      <point x="307" y="134"/>
      <point x="302" y="136"/>
      <point x="296" y="137" type="curve" name=".hr04"/>
      <point x="296" y="467" type="line"/>
      <point x="317" y="455"/>
      <point x="326" y="426"/>
      <point x="328" y="402" type="curve"/>
      <point x="329" y="397"/>
      <point x="330" y="391"/>
      <point x="333" y="387" type="curve"/>
      <point x="342" y="368"/>
      <point x="364" y="355"/>
      <point x="390" y="355" type="curve" smooth="yes"/>
      <point x="416" y="355"/>
      <point x="435" y="371"/>
      <point x="442" y="393" type="curve" smooth="yes"/>
      <point x="444" y="399"/>
      <point x="445" y="405" name=".hr05"/>
      <point x="445" y="411" type="curve" smooth="yes"/>
      <point x="445" y="454"/>
      <point x="396" y="510"/>
      <point x="296" y="515" type="curve" name=".hr06"/>
      <point x="296" y="584" type="line"/>
    </contour>
    <contour>
      <point x="262" y="152" type="line"/>
      <point x="220" y="179"/>
      <point x="190" y="234"/>
      <point x="190" y="307" type="curve" smooth="yes"/>
      <point x="190" y="410"/>
      <point x="216" y="465"/>
      <point x="262" y="472" type="curve"/>
    </contour>
  </outline>
</glyph>
<glyph name="sterling" format="2">
  <advance width="540"/>
  <unicode hex="00A3"/>
  <outline>
    <contour>
      <point x="82" y="292" type="curve" smooth="yes"/>
      <point x="132" y="292" type="line"/>
      <point x="132" y="284" type="line" smooth="yes"/>
      <point x="132" y="165"/>
      <point x="115" y="121"/>
      <point x="97" y="100" type="curve"/>
      <point x="65.4507" y="84.2253"/>
      <point x="18" y="54.4184"/>
      <point x="18" y="15" type="curve" smooth="yes"/>
      <point x="18" y="-2"/>
      <point x="30" y="-18"/>
      <point x="52" y="-18" type="curve" smooth="yes"/>
      <point x="82" y="-18"/>
      <point x="113" y="-4"/>
      <point x="113" y="25" type="curve" smooth="yes"/>
      <point x="113" y="38"/>
      <point x="116" y="52"/>
      <point x="151" y="52" type="curve" smooth="yes"/>
      <point x="206.257" y="52"/>
      <point x="246.616" y="-10"/>
      <point x="327" y="-10" type="curve" smooth="yes"/>
      <point x="402" y="-10"/>
      <point x="449" y="53"/>
      <point x="468" y="105" type="curve"/>
      <point x="464" y="112"/>
      <point x="454" y="118"/>
      <point x="445" y="120" type="curve"/>
      <point x="419" y="85"/>
      <point x="375" y="64"/>
      <point x="345" y="64" type="curve" smooth="yes"/>
      <point x="296.697" y="64"/>
      <point x="276.536" y="107.972"/>
      <point x="171.32" y="108.053" type="curve"/>
      <point x="170.68" y="109.947" type="line"/>
      <point x="209" y="138"/>
      <point x="258" y="184"/>
      <point x="262" y="292" type="curve"/>
      <point x="335" y="292" type="line" smooth="yes"/>
      <point x="348.128" y="292"/>
      <point x="383" y="295.638"/>
      <point x="383" y="312" type="curve" smooth="yes"/>
      <point x="383" y="328" type="line" smooth="yes"/>
      <point x="383" y="338.233"/>
      <point x="358.269" y="339"/>
      <point x="352" y="339" type="curve" smooth="yes"/>
      <point x="262" y="339" type="line"/>
      <point x="262" y="414" type="line" smooth="yes"/>
      <point x="262" y="502"/>
      <point x="274" y="574"/>
      <point x="321" y="574" type="curve" smooth="yes"/>
      <point x="351.054" y="574"/>
      <point x="349.275" y="505"/>
      <point x="406" y="505" type="curve" smooth="yes"/>
      <point x="440" y="505"/>
      <point x="463" y="528"/>
      <point x="463" y="562" type="curve" smooth="yes"/>
      <point x="463" y="609"/>
      <point x="392" y="614"/>
      <point x="369" y="614" type="curve" smooth="yes"/>
      <point x="227.438" y="614"/>
      <point x="132" y="501.101"/>
      <point x="132" y="363" type="curve" smooth="yes"/>
      <point x="132" y="339" type="line"/>
      <point x="101" y="339" type="line" smooth="yes"/>
      <point x="87.0061" y="339"/>
      <point x="54" y="336.962"/>
      <point x="54" y="319" type="curve" smooth="yes"/>
      <point x="54" y="303" type="line" smooth="yes"/>
      <point x="54" y="294.75"/>
      <point x="74.2124" y="292"/>
    </contour>
  </outline>
</glyph>
<glyph name="section" format="2">
  <advance width="466"/>
  <unicode hex="00A7"/>
  <outline>
    <contour>
      <point x="353.248" y="78.8927" type="line"/>
      <point x="408.28" y="123.081"/>
      <point x="437" y="170.974"/>
      <point x="437" y="243.511" type="curve" smooth="yes"/>
      <point x="437" y="319.825"/>
      <point x="405.21" y="355.656"/>
      <point x="244" y="436.088" type="curve" smooth="yes"/>
      <point x="228" y="444.071" type="line" smooth="yes"/>
      <point x="184.297" y="465.875"/>
      <point x="166" y="487.451"/>
      <point x="166" y="528.524" type="curve" smooth="yes"/>
      <point x="166" y="585.145"/>
      <point x="198.97" y="624"/>
      <point x="253.594" y="624" type="curve" smooth="yes"/>
      <point x="289.543" y="624"/>
      <point x="313" y="607.171"/>
      <point x="313" y="581.205" type="curve" smooth="yes"/>
      <point x="313" y="561.145"/>
      <point x="299" y="560.131"/>
      <point x="299" y="538.03" type="curve" smooth="yes"/>
      <point x="299" y="504.601"/>
      <point x="331.029" y="477"/>
      <point x="358.993" y="477" type="curve" smooth="yes"/>
      <point x="386.18" y="477"/>
      <point x="415" y="503.087"/>
      <point x="415" y="545.027" type="curve" smooth="yes"/>
      <point x="415" y="608.541"/>
      <point x="348.904" y="658"/>
      <point x="255.116" y="658" type="curve" smooth="yes"/>
      <point x="145.811" y="658"/>
      <point x="64" y="589.24"/>
      <point x="64" y="497.265" type="curve" smooth="yes"/>
      <point x="64" y="436.479"/>
      <point x="100.131" y="379.983"/>
      <point x="160.4" y="351.27" type="curve" smooth="yes"/>
      <point x="216" y="325.326" type="line" smooth="yes"/>
      <point x="323.461" y="274.636"/>
      <point x="360" y="238.428"/>
      <point x="360" y="169.955" type="curve" smooth="yes"/>
      <point x="360" y="140.483"/>
      <point x="353.231" y="119.358"/>
      <point x="333.28" y="99.2491" type="curve"/>
    </contour>
    <contour>
      <point x="409" y="-28.6037" type="curve" smooth="yes"/>
      <point x="409" y="47.1616"/>
      <point x="350.579" y="123.969"/>
      <point x="261" y="168.663" type="curve" smooth="yes"/>
      <point x="247" y="175.648" type="line" smooth="yes"/>
      <point x="151.883" y="223.581"/>
      <point x="107" y="269.919"/>
      <point x="107" y="330.235" type="curve" smooth="yes"/>
      <point x="107" y="352.185"/>
      <point x="112.944" y="374.445"/>
      <point x="125.564" y="392.857" type="curve"/>
      <point x="110.06" y="410.153" type="line"/>
      <point x="53.6825" y="366.255"/>
      <point x="30" y="322.154"/>
      <point x="30" y="266.888" type="curve" smooth="yes"/>
      <point x="30" y="194.844"/>
      <point x="70.245" y="147.151"/>
      <point x="181" y="82.2461" type="curve" smooth="yes"/>
      <point x="239" y="48.2567" type="line" smooth="yes"/>
      <point x="276.851" y="26.0749"/>
      <point x="299" y="-4.21854"/>
      <point x="299" y="-46.996" type="curve" smooth="yes"/>
      <point x="299" y="-96.5083"/>
      <point x="269.328" y="-135"/>
      <point x="223.075" y="-135" type="curve" smooth="yes"/>
      <point x="186.936" y="-135"/>
      <point x="154" y="-111.383"/>
      <point x="154" y="-88.9713" type="curve" smooth="yes"/>
      <point x="154" y="-73.5822"/>
      <point x="169" y="-65.5274"/>
      <point x="169" y="-45.735" type="curve" smooth="yes"/>
      <point x="169" y="-16.3316"/>
      <point x="134.269" y="12"/>
      <point x="106.239" y="12" type="curve" smooth="yes"/>
      <point x="79.9388" y="12"/>
      <point x="52" y="-13.8302"/>
      <point x="52" y="-49.6002" type="curve" smooth="yes"/>
      <point x="52" y="-109.175"/>
      <point x="129.989" y="-169"/>
      <point x="234.721" y="-169" type="curve" smooth="yes"/>
      <point x="336.374" y="-169"/>
      <point x="409" y="-113.164"/>
    </contour>
  </outline>
</glyph>
<glyph name="copyright" format="2">
  <advance width="641"/>
  <unicode hex="00A9"/>
  <outline>
    <contour>
      <point x="444.6" y="209.4" type="curve"/>
      <point x="440.2" y="216"/>
      <point x="435.8" y="222.6"/>
      <point x="425.9" y="225.9" type="curve"/>
      <point x="414.9" y="209.4"/>
      <point x="394" y="187.4"/>
      <point x="343.4" y="187.4" type="curve" smooth="yes"/>
      <point x="294.195" y="187.4"/>
      <point x="263.1" y="232.747"/>
      <point x="263.1" y="305.1" type="curve" smooth="yes"/>
      <point x="263.1" y="378.146"/>
      <point x="291.759" y="428.3"/>
      <point x="333.5" y="428.3" type="curve" smooth="yes"/>
      <point x="380.8" y="428.3"/>
      <point x="394" y="411.8"/>
      <point x="419.3" y="362.3" type="curve"/>
      <point x="427" y="362.3"/>
      <point x="434.7" y="362.3"/>
      <point x="439.1" y="365.6" type="curve"/>
      <point x="435.929" y="393.028"/>
      <point x="435.704" y="419.005"/>
      <point x="439.828" y="445.075" type="curve"/>
      <point x="438.373" y="446.725" type="line"/>
      <point x="417.877" y="447.475"/>
      <point x="391.8" y="464.6"/>
      <point x="322.5" y="464.6" type="curve" smooth="yes"/>
      <point x="230.681" y="464.6"/>
      <point x="167.4" y="399.973"/>
      <point x="167.4" y="306.2" type="curve" smooth="yes"/>
      <point x="167.4" y="210.505"/>
      <point x="234.052" y="143.4"/>
      <point x="329.1" y="143.4" type="curve" smooth="yes"/>
      <point x="383" y="143.4"/>
      <point x="424.8" y="176.4"/>
    </contour>
    <contour>
      <point x="321" y="17" type="curve" smooth="yes"/>
      <point x="486.063" y="17"/>
      <point x="609" y="140.89"/>
      <point x="609" y="306.502" type="curve" smooth="yes"/>
      <point x="609" y="471.099"/>
      <point x="486.099" y="594"/>
      <point x="321" y="594" type="curve" smooth="yes"/>
      <point x="155.901" y="594"/>
      <point x="32" y="471.052"/>
      <point x="32" y="306.502" type="curve" smooth="yes"/>
      <point x="32" y="140.869"/>
      <point x="155.869" y="17"/>
    </contour>
    <contour>
      <point x="321" y="544" type="curve" smooth="yes"/>
      <point x="455.96" y="544"/>
      <point x="557" y="442.007"/>
      <point x="557" y="306.502" type="curve" smooth="yes"/>
      <point x="557" y="169.993"/>
      <point x="455.914" y="67"/>
      <point x="321" y="67" type="curve" smooth="yes"/>
      <point x="186.019" y="67"/>
      <point x="84" y="169.972"/>
      <point x="84" y="306.502" type="curve" smooth="yes"/>
      <point x="84" y="442.028"/>
      <point x="185.972" y="544"/>
    </contour>
  </outline>
</glyph>
<glyph name="ordfeminine" format="2">
	<unicode hex="00AA"/>
	<advance width="297"/>
	<outline>
		<contour>
			<point x="171" y="519" type="curve"/>
			<point x="129.461" y="509" type="line" smooth="yes"/>
			<point x="87.0122" y="498.781"/>
			<point x="15" y="470.052"/>
			<point x="15" y="418" type="curve" smooth="yes"/>
			<point x="15" y="367.161"/>
			<point x="44.4573" y="348"/>
			<point x="92.75" y="348" type="curve" smooth="yes"/>
			<point x="112.237" y="348"/>
			<point x="147.697" y="357"/>
			<point x="171.974" y="381" type="curve"/>
			<point x="174.895" y="357"/>
			<point x="189.5" y="348"/>
			<point x="215.79" y="348" type="curve" smooth="yes"/>
			<point x="235.263" y="348"/>
			<point x="271.232" y="363.291"/>
			<point x="285" y="376" type="curve"/>
			<point x="284.755" y="382.916"/>
			<point x="279.804" y="389.572"/>
			<point x="275" y="392" type="curve"/>
			<point x="272" y="390"/>
			<point x="263" y="386"/>
			<point x="259" y="386" type="curve" smooth="yes"/>
			<point x="250" y="386"/>
			<point x="245" y="389.988"/>
			<point x="245" y="433" type="curve" smooth="yes"/>
			<point x="245" y="526" type="line" smooth="yes"/>
			<point x="245" y="610.928"/>
			<point x="214.453" y="645"/>
			<point x="138.579" y="645" type="curve" smooth="yes"/>
			<point x="86" y="645"/>
			<point x="20" y="609"/>
			<point x="20" y="569" type="curve" smooth="yes"/>
			<point x="20" y="548.963"/>
			<point x="35.2445" y="537"/>
			<point x="54" y="537" type="curve" smooth="yes"/>
			<point x="68.268" y="537"/>
			<point x="94" y="543.562"/>
			<point x="94" y="560.745" type="curve" smooth="yes"/>
			<point x="94" y="576.332"/>
			<point x="88" y="589.463"/>
			<point x="88" y="598.482" type="curve" smooth="yes"/>
			<point x="88" y="608.984"/>
			<point x="96.0666" y="615"/>
			<point x="120.14" y="615" type="curve" smooth="yes"/>
			<point x="143.443" y="615"/>
			<point x="171" y="595.998"/>
		</contour>
		<contour>
			<point x="171" y="408" type="line"/>
			<point x="152.763" y="391"/>
			<point x="141.618" y="385"/>
			<point x="123.382" y="385" type="curve" smooth="yes"/>
			<point x="97.0395" y="385"/>
			<point x="89" y="400"/>
			<point x="89" y="421" type="curve" smooth="yes"/>
			<point x="89" y="440"/>
			<point x="105.145" y="471"/>
			<point x="171" y="492" type="curve"/>
		</contour>
	</outline>
</glyph>
<glyph name="guillemotleft" format="2">
  <advance width="555"/>
  <unicode hex="00AB"/>
  <outline>
    <contour>
      <point x="262" y="207" type="line"/>
      <point x="330" y="146"/>
      <point x="375" y="107"/>
      <point x="446" y="23" type="curve"/>
      <point x="456" y="26"/>
      <point x="470" y="35"/>
      <point x="475" y="45" type="curve"/>
      <point x="436" y="121"/>
      <point x="402" y="176"/>
      <point x="371" y="215" type="curve"/>
      <point x="402" y="254"/>
      <point x="436" y="310"/>
      <point x="475" y="385" type="curve"/>
      <point x="470" y="395"/>
      <point x="456" y="404"/>
      <point x="446" y="407" type="curve"/>
      <point x="375" y="323"/>
      <point x="330" y="284"/>
      <point x="262" y="223" type="curve"/>
    </contour>
    <contour>
      <point x="74" y="207" type="line"/>
      <point x="142" y="146"/>
      <point x="187" y="107"/>
      <point x="258" y="23" type="curve"/>
      <point x="268" y="26"/>
      <point x="282" y="35"/>
      <point x="287" y="45" type="curve"/>
      <point x="248" y="121"/>
      <point x="214" y="176"/>
      <point x="183" y="215" type="curve"/>
      <point x="214" y="254"/>
      <point x="248" y="310"/>
      <point x="287" y="385" type="curve"/>
      <point x="282" y="395"/>
      <point x="268" y="404"/>
      <point x="258" y="407" type="curve"/>
      <point x="187" y="323"/>
      <point x="142" y="284"/>
      <point x="74" y="223" type="curve"/>
    </contour>
  </outline>
</glyph>
<glyph name="logicalnot" format="2">
  <advance width="560"/>
  <unicode hex="00AC"/>
  <outline>
    <contour>
      <point x="463" y="133" type="line"/>
      <point x="487.42" y="127"/>
      <point x="512.58" y="127"/>
      <point x="537" y="133" type="curve"/>
      <point x="537" y="401" type="line"/>
      <point x="144" y="401" type="line"/>
      <point x="144" y="353" type="line"/>
      <point x="463" y="353" type="line"/>
    </contour>
    <contour>
      <point x="169" y="353" type="line"/>
      <point x="169" y="401" type="line"/>
      <point x="42" y="401" type="line" smooth="yes"/>
      <point x="33" y="401"/>
      <point x="17" y="391"/>
      <point x="17" y="370" type="curve" smooth="yes"/>
      <point x="17" y="362"/>
      <point x="20" y="353"/>
      <point x="27" y="353" type="curve" smooth="yes"/>
    </contour>
  </outline>
</glyph>
<glyph name="registered" format="2">
  <advance width="641"/>
  <unicode hex="00AE"/>
  <outline>
    <contour>
      <point x="188" y="167" type="curve"/>
      <point x="207" y="168.053"/>
      <point x="230.974" y="169.105"/>
      <point x="250" y="169.105" type="curve" smooth="yes"/>
      <point x="256" y="169.105" type="line" smooth="yes"/>
      <point x="273" y="169.105"/>
      <point x="316" y="167"/>
      <point x="324" y="167" type="curve"/>
      <point x="326.978" y="176.88"/>
      <point x="326.978" y="181.663"/>
      <point x="324" y="187" type="curve"/>
      <point x="299.668" y="188.913"/>
      <point x="288" y="196.854"/>
      <point x="288" y="222.809" type="curve" smooth="yes"/>
      <point x="288" y="286" type="line"/>
      <point x="305.272" y="286.191" type="line" smooth="yes"/>
      <point x="310.388" y="286.247"/>
      <point x="313.187" y="285.486"/>
      <point x="315.36" y="281.665" type="curve" smooth="yes"/>
      <point x="359" y="204.925" type="line" smooth="yes"/>
      <point x="373.51" y="179.409"/>
      <point x="397.75" y="165.842"/>
      <point x="428.812" y="165.988" type="curve" smooth="yes"/>
      <point x="441.29" y="166.046"/>
      <point x="458.817" y="168.262"/>
      <point x="466.841" y="170.796" type="curve"/>
      <point x="469.305" y="179.017"/>
      <point x="467.72" y="187.473"/>
      <point x="463" y="191.292" type="curve"/>
      <point x="444.55" y="191.292"/>
      <point x="434.361" y="197.925"/>
      <point x="423" y="217.333" type="curve" smooth="yes"/>
      <point x="375.163" y="299.055" type="line"/>
      <point x="401.332" y="310.029"/>
      <point x="423" y="343.172"/>
      <point x="423" y="372.228" type="curve" smooth="yes"/>
      <point x="423" y="417.609"/>
      <point x="384.792" y="447"/>
      <point x="328" y="447" type="curve" smooth="yes"/>
      <point x="298" y="447"/>
      <point x="272.531" y="444"/>
      <point x="254" y="444" type="curve" smooth="yes"/>
      <point x="233.856" y="444"/>
      <point x="211.843" y="447"/>
      <point x="189" y="447" type="curve"/>
      <point x="184.729" y="441.966"/>
      <point x="184.729" y="429.272"/>
      <point x="189" y="425.008" type="curve"/>
      <point x="211.196" y="423.222"/>
      <point x="225" y="415.25"/>
      <point x="225" y="392.187" type="curve" smooth="yes"/>
      <point x="225" y="224.801" type="line" smooth="yes"/>
      <point x="225" y="196.854"/>
      <point x="211.196" y="189.141"/>
      <point x="188" y="187" type="curve"/>
      <point x="184.807" y="180.046"/>
      <point x="184.807" y="172.197"/>
    </contour>
    <contour>
      <point x="288" y="314.49" type="line"/>
      <point x="288" y="389.141" type="line" smooth="yes"/>
      <point x="288" y="407.098"/>
      <point x="301.691" y="418.904"/>
      <point x="323.142" y="418.904" type="curve" smooth="yes"/>
      <point x="346" y="418.904"/>
      <point x="361" y="399.93"/>
      <point x="361" y="372.228" type="curve" smooth="yes"/>
      <point x="361" y="335.145"/>
      <point x="342.715" y="314.49"/>
      <point x="316.284" y="314.49" type="curve" smooth="yes"/>
    </contour>
    <contour>
      <point x="321" y="17" type="curve" smooth="yes"/>
      <point x="486.063" y="17"/>
      <point x="609" y="140.89"/>
      <point x="609" y="306.502" type="curve" smooth="yes"/>
      <point x="609" y="471.099"/>
      <point x="486.099" y="594"/>
      <point x="321" y="594" type="curve" smooth="yes"/>
      <point x="155.901" y="594"/>
      <point x="32" y="471.052"/>
      <point x="32" y="306.502" type="curve" smooth="yes"/>
      <point x="32" y="140.869"/>
      <point x="155.869" y="17"/>
    </contour>
    <contour>
      <point x="321" y="544" type="curve" smooth="yes"/>
      <point x="455.96" y="544"/>
      <point x="557" y="442.007"/>
      <point x="557" y="306.502" type="curve" smooth="yes"/>
      <point x="557" y="169.993"/>
      <point x="455.914" y="67"/>
      <point x="321" y="67" type="curve" smooth="yes"/>
      <point x="186.019" y="67"/>
      <point x="84" y="169.972"/>
      <point x="84" y="306.502" type="curve" smooth="yes"/>
      <point x="84" y="442.028"/>
      <point x="185.972" y="544"/>
    </contour>
  </outline>
  <guideline angle="299.65" x="322" y="270"/>
  <guideline angle="0" x="0" y="286"/>
</glyph>
<glyph name="plusminus" format="2">
  <advance width="527"/>
  <unicode hex="00B1"/>
  <outline>
    <contour>
      <point x="306" y="354" type="line"/>
      <point x="306" y="498.293" type="line" smooth="yes"/>
      <point x="306" y="512.293"/>
      <point x="298.666" y="518"/>
      <point x="286" y="518" type="curve" smooth="yes"/>
      <point x="261" y="518"/>
      <point x="232" y="503"/>
      <point x="232" y="478" type="curve" smooth="yes"/>
      <point x="232" y="354" type="line"/>
      <point x="101" y="354" type="line" smooth="yes"/>
      <point x="76" y="354"/>
      <point x="61" y="325"/>
      <point x="61" y="300" type="curve" smooth="yes"/>
      <point x="61" y="291.285"/>
      <point x="66.9815" y="280"/>
      <point x="80.9815" y="280" type="curve" smooth="yes"/>
      <point x="232" y="280" type="line"/>
      <point x="232" y="134.156" type="line" smooth="yes"/>
      <point x="232" y="123.865"/>
      <point x="240.237" y="117"/>
      <point x="252" y="117" type="curve" smooth="yes"/>
      <point x="277" y="117"/>
      <point x="306" y="132"/>
      <point x="306" y="157" type="curve" smooth="yes"/>
      <point x="306" y="280" type="line"/>
      <point x="437" y="280" type="line" smooth="yes"/>
      <point x="462" y="280"/>
      <point x="477" y="309"/>
      <point x="477" y="334" type="curve" smooth="yes"/>
      <point x="477" y="345.433"/>
      <point x="472" y="354"/>
      <point x="457" y="354" type="curve" smooth="yes"/>
    </contour>
    <contour>
      <point x="477" y="57" type="curve" smooth="yes"/>
      <point x="477" y="67.3462"/>
      <point x="469.358" y="77"/>
      <point x="457" y="77" type="curve" smooth="yes"/>
      <point x="101" y="77" type="line" smooth="yes"/>
      <point x="80.7763" y="77"/>
      <point x="64" y="42.8283"/>
      <point x="64" y="23" type="curve" smooth="yes"/>
      <point x="64" y="11.982"/>
      <point x="69.9807" y="3"/>
      <point x="81" y="3" type="curve" smooth="yes"/>
      <point x="437" y="3" type="line" smooth="yes"/>
      <point x="457.224" y="3"/>
      <point x="477" y="37.2613"/>
    </contour>
  </outline>
</glyph>
<glyph name="uni00B2" format="2">
  <advance width="317"/>
  <unicode hex="00B2"/>
  <outline>
    <contour>
      <point x="26" y="735" type="curve" smooth="yes"/>
      <point x="26" y="705"/>
      <point x="37" y="692"/>
      <point x="60" y="692" type="curve" smooth="yes"/>
      <point x="86" y="692"/>
      <point x="104" y="708"/>
      <point x="104" y="732" type="curve" smooth="yes"/>
      <point x="104" y="741"/>
      <point x="103" y="760"/>
      <point x="105" y="770" type="curve"/>
      <point x="112" y="783"/>
      <point x="123" y="788"/>
      <point x="143" y="788" type="curve" smooth="yes"/>
      <point x="174" y="788"/>
      <point x="188" y="769"/>
      <point x="188" y="728" type="curve" smooth="yes"/>
      <point x="188" y="694"/>
      <point x="171" y="656"/>
      <point x="146" y="633" type="curve" smooth="yes"/>
      <point x="124" y="613" type="line" smooth="yes"/>
      <point x="54" y="549"/>
      <point x="24" y="510"/>
      <point x="24" y="480" type="curve" smooth="yes"/>
      <point x="24" y="475"/>
      <point x="26" y="469"/>
      <point x="28" y="464" type="curve"/>
      <point x="264" y="464" type="line"/>
      <point x="270" y="496"/>
      <point x="282" y="540"/>
      <point x="293" y="577" type="curve"/>
      <point x="288" y="581"/>
      <point x="277" y="583"/>
      <point x="265" y="583" type="curve"/>
      <point x="251" y="546"/>
      <point x="225" y="521"/>
      <point x="199" y="521" type="curve" smooth="yes"/>
      <point x="117" y="521" type="line"/>
      <point x="120" y="537"/>
      <point x="141" y="564"/>
      <point x="173" y="591" type="curve" smooth="yes"/>
      <point x="187" y="603" type="line" smooth="yes"/>
      <point x="256" y="662"/>
      <point x="277" y="692"/>
      <point x="277" y="727" type="curve" smooth="yes"/>
      <point x="277" y="787"/>
      <point x="236" y="818"/>
      <point x="157" y="818" type="curve" smooth="yes"/>
      <point x="95" y="818"/>
      <point x="26" y="774"/>
    </contour>
  </outline>
</glyph>
<glyph name="uni00B3" format="2">
  <advance width="333"/>
  <unicode hex="00B3"/>
  <outline>
    <contour>
      <point x="197" y="741" type="curve" smooth="yes"/>
      <point x="197" y="698"/>
      <point x="149" y="664"/>
      <point x="105" y="658" type="curve"/>
      <point x="105" y="648"/>
      <point x="105" y="638"/>
      <point x="105" y="628" type="curve"/>
      <point x="118" y="631"/>
      <point x="130" y="632"/>
      <point x="139" y="632" type="curve" smooth="yes"/>
      <point x="180" y="632"/>
      <point x="214" y="620"/>
      <point x="214" y="576" type="curve" smooth="yes"/>
      <point x="214" y="532"/>
      <point x="182" y="490"/>
      <point x="148" y="490" type="curve" smooth="yes"/>
      <point x="126" y="490"/>
      <point x="117" y="492"/>
      <point x="107" y="508" type="curve"/>
      <point x="100" y="533"/>
      <point x="85" y="546"/>
      <point x="61" y="546" type="curve" smooth="yes"/>
      <point x="41" y="546"/>
      <point x="24" y="531"/>
      <point x="24" y="510" type="curve" smooth="yes"/>
      <point x="24" y="466"/>
      <point x="109" y="460"/>
      <point x="138" y="460" type="curve" smooth="yes"/>
      <point x="228" y="460"/>
      <point x="309" y="508"/>
      <point x="309" y="584" type="curve" smooth="yes"/>
      <point x="309" y="638"/>
      <point x="273" y="658"/>
      <point x="236" y="669" type="curve"/>
      <point x="234" y="670"/>
      <point x="235" y="672"/>
      <point x="236" y="673" type="curve"/>
      <point x="265" y="692"/>
      <point x="283" y="721"/>
      <point x="283" y="746" type="curve" smooth="yes"/>
      <point x="283" y="788"/>
      <point x="237" y="820"/>
      <point x="172" y="820" type="curve" smooth="yes"/>
      <point x="69" y="820"/>
      <point x="35" y="758"/>
      <point x="35" y="739" type="curve" smooth="yes"/>
      <point x="35" y="735"/>
      <point x="36" y="711"/>
      <point x="68" y="711" type="curve" smooth="yes"/>
      <point x="97" y="711"/>
      <point x="108" y="737"/>
      <point x="108" y="751" type="curve"/>
      <point x="110" y="774"/>
      <point x="133" y="790"/>
      <point x="155" y="790" type="curve" smooth="yes"/>
      <point x="177" y="790"/>
      <point x="197" y="770"/>
    </contour>
  </outline>
</glyph>
<glyph name="mu" format="2">
	<unicode hex="00B5"/>
	<advance width="559"/>
	<outline>
		<contour>
			<point x="343" y="49" type="line"/>
			<point x="350" y="8"/>
			<point x="377" y="-10"/>
			<point x="421" y="-10" type="curve" smooth="yes"/>
			<point x="473.386" y="-10"/>
			<point x="518.09" y="9.35397"/>
			<point x="556" y="46" type="curve"/>
			<point x="556" y="58"/>
			<point x="550" y="64"/>
			<point x="538" y="74" type="curve"/>
			<point x="522.809" y="63.3663"/>
			<point x="514.04" y="60"/>
			<point x="496" y="60" type="curve" smooth="yes"/>
			<point x="474" y="60"/>
			<point x="464" y="78"/>
			<point x="464" y="127" type="curve" smooth="yes"/>
			<point x="464" y="448" type="line"/>
			<point x="421.231" y="447"/>
			<point x="378.64" y="436.042"/>
			<point x="334" y="434" type="curve"/>
			<point x="334" y="98" type="line"/>
			<point x="312" y="68"/>
			<point x="261" y="53"/>
			<point x="220" y="53" type="curve" smooth="yes"/>
			<point x="185" y="53"/>
			<point x="177" y="97"/>
			<point x="177" y="160" type="curve" smooth="yes"/>
			<point x="177" y="343" type="line" smooth="yes"/>
			<point x="177" y="375"/>
			<point x="174.708" y="434"/>
			<point x="174" y="447" type="curve"/>
			<point x="125.448" y="447"/>
			<point x="86.2688" y="435.996"/>
			<point x="36" y="434" type="curve"/>
			<point x="38.588" y="420.319"/>
			<point x="47" y="348"/>
			<point x="47" y="323" type="curve" smooth="yes"/>
			<point x="47" y="155.38" type="line" smooth="yes"/>
			<point x="47" y="130.38"/>
			<point x="54.5652" y="75.1721"/>
			<point x="61" y="46" type="curve" smooth="yes"/>
			<point x="64" y="32.3996"/>
			<point x="64" y="10"/>
			<point x="64" y="-4" type="curve" smooth="yes"/>
			<point x="64" y="-40"/>
			<point x="58" y="-66"/>
			<point x="54" y="-92" type="curve" smooth="yes"/>
			<point x="50" y="-118"/>
			<point x="47" y="-142"/>
			<point x="47" y="-163" type="curve" smooth="yes"/>
			<point x="47" y="-204.827"/>
			<point x="75.7479" y="-232"/>
			<point x="120" y="-232" type="curve" smooth="yes"/>
			<point x="157.109" y="-232"/>
			<point x="183" y="-205.698"/>
			<point x="183" y="-168" type="curve" smooth="yes"/>
			<point x="183" y="-151"/>
			<point x="178.543" y="-118"/>
			<point x="171" y="-96" type="curve" smooth="yes"/>
			<point x="163.336" y="-73.6466"/>
			<point x="158.408" y="-21.6564"/>
			<point x="158.408" y="4.2079" type="curve"/>
			<point x="174.434" y="-4.90187"/>
			<point x="196.535" y="-10"/>
			<point x="212" y="-10" type="curve" smooth="yes"/>
			<point x="267" y="-10"/>
			<point x="309.257" y="15.7913"/>
			<point x="339" y="49" type="curve"/>
		</contour>
	</outline>
</glyph>
<glyph name="paragraph" format="2">
  <advance width="602"/>
  <unicode hex="00B6"/>
  <outline>
    <contour>
      <point x="498" y="-144" type="curve" smooth="yes"/>
      <point x="498" y="556" type="line" smooth="yes"/>
      <point x="498" y="603.217"/>
      <point x="509.338" y="613.746"/>
      <point x="570" y="618" type="curve"/>
      <point x="572.781" y="622.856"/>
      <point x="573.717" y="628.448"/>
      <point x="573.717" y="632.744" type="curve" smooth="yes"/>
      <point x="573.717" y="637.293"/>
      <point x="572.398" y="643.808"/>
      <point x="570.283" y="646.698" type="curve"/>
      <point x="511.32" y="644.387"/>
      <point x="503.004" y="644"/>
      <point x="472.969" y="644" type="curve" smooth="yes"/>
      <point x="445.969" y="644"/>
      <point x="305" y="646"/>
      <point x="230" y="646" type="curve" smooth="yes"/>
      <point x="99.5954" y="646"/>
      <point x="27" y="563.019"/>
      <point x="27" y="439" type="curve" smooth="yes"/>
      <point x="27" y="261"/>
      <point x="158" y="215"/>
      <point x="241" y="215" type="curve" smooth="yes"/>
      <point x="273" y="215"/>
      <point x="304" y="220"/>
      <point x="318" y="227" type="curve"/>
      <point x="318" y="-143" type="line" smooth="yes"/>
      <point x="318" y="-181.255"/>
      <point x="302.949" y="-194.959"/>
      <point x="247" y="-206" type="curve"/>
      <point x="244.435" y="-210.835"/>
      <point x="243.293" y="-216.007"/>
      <point x="243.293" y="-220.882" type="curve" smooth="yes"/>
      <point x="243.293" y="-225.095"/>
      <point x="244.435" y="-230.418"/>
      <point x="246.707" y="-234.707" type="curve"/>
      <point x="290" y="-234"/>
      <point x="363.066" y="-234"/>
      <point x="407.066" y="-234" type="curve" smooth="yes"/>
      <point x="472.066" y="-234"/>
      <point x="505" y="-234"/>
      <point x="570.293" y="-234.707" type="curve"/>
      <point x="572.804" y="-230.211"/>
      <point x="574.496" y="-222.896"/>
      <point x="574.496" y="-218.194" type="curve" smooth="yes"/>
      <point x="574.496" y="-214.415"/>
      <point x="572.804" y="-206.694"/>
      <point x="570.293" y="-201" type="curve"/>
      <point x="510.258" y="-194.959"/>
      <point x="498" y="-181.255"/>
    </contour>
    <contour>
      <point x="407" y="-207" type="curve" smooth="yes"/>
      <point x="381" y="-207"/>
      <point x="377" y="-187"/>
      <point x="377" y="-143" type="curve" smooth="yes"/>
      <point x="377" y="553" type="line" smooth="yes"/>
      <point x="377" y="598.294"/>
      <point x="382.231" y="616"/>
      <point x="407.727" y="616" type="curve" smooth="yes"/>
      <point x="426.031" y="616"/>
      <point x="439" y="607.471"/>
      <point x="439" y="556" type="curve" smooth="yes"/>
      <point x="439" y="-145" type="line" smooth="yes"/>
      <point x="439" y="-187"/>
      <point x="436" y="-207"/>
    </contour>
  </outline>
</glyph>
<glyph name="uni00B9" format="2">
  <advance width="300"/>
  <unicode hex="00B9"/>
  <outline>
    <contour>
      <point x="95" y="740" type="curve" smooth="yes"/>
      <point x="107" y="740"/>
      <point x="109" y="731"/>
      <point x="109" y="699" type="curve" smooth="yes"/>
      <point x="109" y="549" type="line" smooth="yes"/>
      <point x="109" y="498"/>
      <point x="78" y="495"/>
      <point x="38" y="493" type="curve"/>
      <point x="33" y="485"/>
      <point x="34" y="469"/>
      <point x="38" y="463" type="curve"/>
      <point x="68" y="464"/>
      <point x="118" y="464"/>
      <point x="153" y="464" type="curve" smooth="yes"/>
      <point x="192" y="464"/>
      <point x="222" y="464"/>
      <point x="252" y="463" type="curve"/>
      <point x="256" y="470"/>
      <point x="256" y="485"/>
      <point x="252" y="493" type="curve"/>
      <point x="218" y="495"/>
      <point x="197" y="498"/>
      <point x="197" y="549" type="curve" smooth="yes"/>
      <point x="197" y="698" type="line" smooth="yes"/>
      <point x="197" y="733"/>
      <point x="197" y="769"/>
      <point x="201" y="812" type="curve"/>
      <point x="198" y="816"/>
      <point x="190" y="818"/>
      <point x="182" y="818" type="curve" smooth="yes"/>
      <point x="174" y="818"/>
      <point x="167" y="817"/>
      <point x="165" y="816" type="curve"/>
      <point x="139" y="802"/>
      <point x="78" y="771"/>
      <point x="28" y="758" type="curve"/>
      <point x="28" y="746"/>
      <point x="30" y="731"/>
      <point x="38" y="725" type="curve"/>
      <point x="63" y="734"/>
      <point x="82" y="740"/>
    </contour>
  </outline>
</glyph>
<glyph name="ordmasculine" format="2">
	<unicode hex="00BA"/>
	<advance width="368"/>
	<outline>
		<contour>
			<point x="330" y="480" type="line"/>
			<point x="330" y="555"/>
			<point x="275.379" y="611"/>
			<point x="185.491" y="611" type="curve" smooth="yes"/>
			<point x="96" y="611"/>
			<point x="38" y="558"/>
			<point x="38" y="479" type="curve"/>
			<point x="126" y="489" type="line"/>
			<point x="126" y="552"/>
			<point x="147.819" y="582"/>
			<point x="179.543" y="582" type="curve" smooth="yes"/>
			<point x="221.181" y="582"/>
			<point x="242" y="549"/>
			<point x="242" y="470" type="curve"/>
		</contour>
		<contour>
			<point x="38" y="479" type="line"/>
			<point x="38" y="404"/>
			<point x="92.6207" y="348"/>
			<point x="182.509" y="348" type="curve" smooth="yes"/>
			<point x="272" y="348"/>
			<point x="330" y="401"/>
			<point x="330" y="480" type="curve"/>
			<point x="242" y="470" type="line"/>
			<point x="242" y="407"/>
			<point x="220.181" y="377"/>
			<point x="188.457" y="377" type="curve" smooth="yes"/>
			<point x="146.819" y="377"/>
			<point x="126" y="410"/>
			<point x="126" y="489" type="curve"/>
		</contour>
	</outline>
</glyph>
<glyph name="onequarter" format="2">
  <advance width="600"/>
  <unicode hex="00BC"/>
  <outline>
    <component base="uni2074" xOffset="254" yOffset="-464"/>
    <contour>
      <point x="95" y="579" type="curve" smooth="yes"/>
      <point x="107" y="579"/>
      <point x="109" y="570"/>
      <point x="109" y="538" type="curve" smooth="yes"/>
      <point x="109" y="388" type="line" smooth="yes"/>
      <point x="109" y="337"/>
      <point x="78" y="334"/>
      <point x="38" y="332" type="curve"/>
      <point x="33" y="324"/>
      <point x="34" y="308"/>
      <point x="38" y="302" type="curve"/>
      <point x="68" y="303"/>
      <point x="118" y="303"/>
      <point x="153" y="303" type="curve" smooth="yes"/>
      <point x="192" y="303"/>
      <point x="222" y="303"/>
      <point x="252" y="302" type="curve"/>
      <point x="256" y="309"/>
      <point x="256" y="324"/>
      <point x="252" y="332" type="curve"/>
      <point x="218" y="334"/>
      <point x="197" y="337"/>
      <point x="197" y="388" type="curve" smooth="yes"/>
      <point x="197" y="536.566" type="line" smooth="yes"/>
      <point x="197" y="572.392"/>
      <point x="197" y="607.626"/>
      <point x="201.002" y="650.919" type="curve"/>
      <point x="198.263" y="655.391"/>
      <point x="189.716" y="656.656"/>
      <point x="181.627" y="656.68" type="curve" smooth="yes"/>
      <point x="173.539" y="656.704"/>
      <point x="167.196" y="655.991"/>
      <point x="165" y="655" type="curve"/>
      <point x="138.919" y="640.963"/>
      <point x="77.5916" y="610.282"/>
      <point x="28" y="597" type="curve"/>
      <point x="28" y="585"/>
      <point x="30" y="570"/>
      <point x="38" y="564" type="curve"/>
      <point x="63" y="573"/>
      <point x="82" y="579"/>
    </contour>
    <contour>
      <point x="544.157" y="657" type="line"/>
      <point x="77.7664" y="-10" type="line"/>
      <point x="118.766" y="-10" type="line"/>
      <point x="586.157" y="657" type="line"/>
    </contour>
  </outline>
  <guideline angle="0" x="0" y="657"/>
  <guideline angle="0" x="0" y="-10"/>
</glyph>
<glyph name="onehalf" format="2">
  <advance width="675"/>
  <unicode hex="00BD"/>
  <outline>
    <component base="uni00B2" xOffset="358" yOffset="-464"/>
    <contour>
      <point x="95" y="579" type="curve" smooth="yes"/>
      <point x="107" y="579"/>
      <point x="109" y="570"/>
      <point x="109" y="538" type="curve" smooth="yes"/>
      <point x="109" y="388" type="line" smooth="yes"/>
      <point x="109" y="337"/>
      <point x="78" y="334"/>
      <point x="38" y="332" type="curve"/>
      <point x="33" y="324"/>
      <point x="34" y="308"/>
      <point x="38" y="302" type="curve"/>
      <point x="68" y="303"/>
      <point x="118" y="303"/>
      <point x="153" y="303" type="curve" smooth="yes"/>
      <point x="192" y="303"/>
      <point x="222" y="303"/>
      <point x="252" y="302" type="curve"/>
      <point x="256" y="309"/>
      <point x="256" y="324"/>
      <point x="252" y="332" type="curve"/>
      <point x="218" y="334"/>
      <point x="197" y="337"/>
      <point x="197" y="388" type="curve" smooth="yes"/>
      <point x="197" y="536.566" type="line" smooth="yes"/>
      <point x="197" y="572.392"/>
      <point x="197" y="607.626"/>
      <point x="201.002" y="650.919" type="curve"/>
      <point x="198.263" y="655.391"/>
      <point x="189.716" y="656.656"/>
      <point x="181.627" y="656.68" type="curve" smooth="yes"/>
      <point x="173.539" y="656.704"/>
      <point x="167.196" y="655.991"/>
      <point x="165" y="655" type="curve"/>
      <point x="138.919" y="640.963"/>
      <point x="77.5916" y="610.282"/>
      <point x="28" y="597" type="curve"/>
      <point x="28" y="585"/>
      <point x="30" y="570"/>
      <point x="38" y="564" type="curve"/>
      <point x="63" y="573"/>
      <point x="82" y="579"/>
    </contour>
    <contour>
      <point x="544.157" y="657" type="line"/>
      <point x="77.7664" y="-10" type="line"/>
      <point x="118.766" y="-10" type="line"/>
      <point x="586.157" y="657" type="line"/>
    </contour>
  </outline>
</glyph>
<glyph name="AE" format="2">
  <advance width="956"/>
  <unicode hex="00C6"/>
  <anchor x="517" y="740" name="top"/>
  <outline>
    <contour>
      <point x="12" y="-2" type="curve"/>
      <point x="49" y="0"/>
      <point x="67" y="0"/>
      <point x="106" y="0" type="curve" smooth="yes"/>
      <point x="147" y="0"/>
      <point x="202" y="0"/>
      <point x="239" y="-2" type="curve"/>
      <point x="245" y="4"/>
      <point x="245" y="26"/>
      <point x="239" y="32" type="curve"/>
      <point x="207" y="35"/>
      <point x="165" y="42"/>
      <point x="165" y="63" type="curve" smooth="yes"/>
      <point x="165" y="67"/>
      <point x="167" y="73"/>
      <point x="170" y="79" type="curve"/>
      <point x="420" y="546" type="line" smooth="yes"/>
      <point x="429" y="562"/>
      <point x="431" y="565"/>
      <point x="438" y="570" type="curve"/>
      <point x="444" y="565"/>
      <point x="449" y="558"/>
      <point x="449" y="545" type="curve" smooth="yes"/>
      <point x="449" y="122" type="line" smooth="yes"/>
      <point x="449" y="39"/>
      <point x="432" y="35"/>
      <point x="362" y="32" type="curve"/>
      <point x="356" y="26"/>
      <point x="356" y="4"/>
      <point x="362" y="-2" type="curve"/>
      <point x="411" y="0"/>
      <point x="506" y="0"/>
      <point x="516" y="0" type="curve" smooth="yes"/>
      <point x="735" y="0" type="line" smooth="yes"/>
      <point x="787" y="0"/>
      <point x="838" y="0"/>
      <point x="890" y="-2" type="curve"/>
      <point x="904" y="48"/>
      <point x="909" y="114"/>
      <point x="917" y="165" type="curve"/>
      <point x="907" y="171"/>
      <point x="885" y="173"/>
      <point x="872" y="170" type="curve"/>
      <point x="852" y="98"/>
      <point x="807" y="42"/>
      <point x="731" y="42" type="curve" smooth="yes"/>
      <point x="630" y="42" type="line" smooth="yes"/>
      <point x="608" y="42"/>
      <point x="589" y="63"/>
      <point x="589" y="90" type="curve" smooth="yes"/>
      <point x="589" y="554" type="line" smooth="yes"/>
      <point x="589" y="578"/>
      <point x="606" y="603"/>
      <point x="630" y="603" type="curve" smooth="yes"/>
      <point x="715" y="603" type="line" smooth="yes"/>
      <point x="790" y="603"/>
      <point x="811" y="565"/>
      <point x="833" y="496" type="curve"/>
      <point x="845" y="494"/>
      <point x="866" y="496"/>
      <point x="876" y="501" type="curve"/>
      <point x="871" y="542"/>
      <point x="866" y="638"/>
      <point x="864" y="646" type="curve"/>
      <point x="864" y="648"/>
      <point x="863" y="649"/>
      <point x="860" y="649" type="curve"/>
      <point x="837" y="645"/>
      <point x="816" y="645"/>
      <point x="793" y="645" type="curve" smooth="yes"/>
      <point x="701" y="645"/>
      <point x="605" y="645"/>
      <point x="513" y="645" type="curve" smooth="yes"/>
      <point x="444" y="645" type="line" smooth="yes"/>
      <point x="398" y="645"/>
      <point x="352" y="647"/>
      <point x="306" y="647" type="curve"/>
      <point x="303" y="637"/>
      <point x="303" y="622"/>
      <point x="307" y="613" type="curve"/>
      <point x="350" y="613"/>
      <point x="371" y="603"/>
      <point x="371" y="584" type="curve" smooth="yes"/>
      <point x="371" y="578"/>
      <point x="369" y="570"/>
      <point x="364" y="562" type="curve"/>
      <point x="112" y="102" type="line" smooth="yes"/>
      <point x="80" y="44"/>
      <point x="56" y="35"/>
      <point x="12" y="32" type="curve"/>
      <point x="6" y="26"/>
      <point x="6" y="4"/>
    </contour>
    <contour>
      <point x="574" y="317" type="line"/>
      <point x="670" y="317" type="line" smooth="yes"/>
      <point x="739" y="317"/>
      <point x="758" y="300"/>
      <point x="761" y="255" type="curve"/>
      <point x="767" y="249"/>
      <point x="798" y="249"/>
      <point x="804" y="255" type="curve"/>
      <point x="803" y="290"/>
      <point x="802" y="309"/>
      <point x="802" y="343" type="curve" smooth="yes"/>
      <point x="802" y="377"/>
      <point x="803" y="399"/>
      <point x="804" y="429" type="curve"/>
      <point x="798" y="435"/>
      <point x="767" y="435"/>
      <point x="761" y="429" type="curve"/>
      <point x="758" y="374"/>
      <point x="737" y="367"/>
      <point x="670" y="367" type="curve" smooth="yes"/>
      <point x="574" y="367" type="line"/>
    </contour>
    <contour>
      <point x="256" y="266" type="line"/>
      <point x="464" y="266" type="line"/>
      <point x="464" y="316" type="line"/>
      <point x="282" y="316" type="line"/>
    </contour>
  </outline>
</glyph>
<glyph name="Eth" format="2">
  <advance width="734"/>
  <unicode hex="00D0"/>
  <anchor x="341" y="850" name="m.uni0302"/>
  <outline>
    <contour>
      <point x="238.145" y="282.924" type="line"/>
      <point x="332.877" y="280" type="line" smooth="yes"/>
      <point x="343.86" y="279.661"/>
      <point x="358" y="292.649"/>
      <point x="358" y="310.49" type="curve" smooth="yes"/>
      <point x="358" y="320.053"/>
      <point x="354.567" y="328.062"/>
      <point x="347.877" y="328" type="curve" smooth="yes"/>
      <point x="238.561" y="326.987" type="line"/>
    </contour>
    <contour>
      <point x="27" y="281" type="curve" smooth="yes"/>
      <point x="129.36" y="282.885" type="line"/>
      <point x="129.493" y="326.483" type="line"/>
      <point x="42" y="330" type="line" smooth="yes"/>
      <point x="33.0228" y="330.361"/>
      <point x="17" y="319.463"/>
      <point x="17" y="298.302" type="curve" smooth="yes"/>
      <point x="17" y="289.812"/>
      <point x="20.2471" y="280.876"/>
    </contour>
    <contour>
      <point x="182" y="0" type="line"/>
      <point x="222" y="0"/>
      <point x="306" y="-2"/>
      <point x="346" y="-2" type="curve" smooth="yes"/>
      <point x="552" y="-2"/>
      <point x="685" y="95"/>
      <point x="685" y="309" type="curve" smooth="yes"/>
      <point x="685" y="494"/>
      <point x="565" y="646"/>
      <point x="319" y="646" type="curve" smooth="yes"/>
      <point x="266" y="646"/>
      <point x="222" y="645"/>
      <point x="182" y="645" type="curve"/>
    </contour>
    <contour>
      <point x="251" y="119" type="curve" smooth="yes"/>
      <point x="251" y="529" type="line" smooth="yes"/>
      <point x="251" y="584"/>
      <point x="277" y="604"/>
      <point x="313" y="604" type="curve" smooth="yes"/>
      <point x="510" y="604"/>
      <point x="532" y="435"/>
      <point x="532" y="284" type="curve" smooth="yes"/>
      <point x="532" y="102"/>
      <point x="423" y="40"/>
      <point x="347" y="40" type="curve" smooth="yes"/>
      <point x="277" y="40"/>
      <point x="251" y="52"/>
    </contour>
    <contour>
      <point x="27" y="-2" type="curve"/>
      <point x="76" y="-1"/>
      <point x="171.5" y="0"/>
      <point x="182" y="0" type="curve"/>
      <point x="182" y="645" type="line"/>
      <point x="172" y="645"/>
      <point x="77" y="646"/>
      <point x="27" y="647" type="curve"/>
      <point x="21" y="641"/>
      <point x="21" y="619"/>
      <point x="27" y="613" type="curve"/>
      <point x="97" y="610"/>
      <point x="114" y="605"/>
      <point x="114" y="522" type="curve" smooth="yes"/>
      <point x="114" y="122" type="line" smooth="yes"/>
      <point x="114" y="39"/>
      <point x="97" y="35"/>
      <point x="27" y="32" type="curve"/>
      <point x="21" y="26"/>
      <point x="21" y="4"/>
    </contour>
    <contour>
      <point x="27" y="-2" type="curve"/>
      <point x="76" y="-1"/>
      <point x="171.5" y="0"/>
      <point x="182" y="0" type="curve"/>
      <point x="182" y="645" type="line"/>
      <point x="172" y="645"/>
      <point x="77" y="646"/>
      <point x="27" y="647" type="curve"/>
      <point x="21" y="641"/>
      <point x="21" y="619"/>
      <point x="27" y="613" type="curve"/>
      <point x="97" y="610"/>
      <point x="114" y="605"/>
      <point x="114" y="522" type="curve" smooth="yes"/>
      <point x="114" y="122" type="line" smooth="yes"/>
      <point x="114" y="39"/>
      <point x="97" y="35"/>
      <point x="27" y="32" type="curve"/>
      <point x="21" y="26"/>
      <point x="21" y="4"/>
    </contour>
  </outline>
</glyph>
<glyph name="Oslash" format="2">
  <advance width="730"/>
  <unicode hex="00D8"/>
  <anchor x="351" y="850" name="m.uni0302"/>
  <anchor x="350" y="-110" name="m.uni0316_2"/>
  <anchor x="350" y="0" name="b.uni0327_5"/>
  <outline>
    <contour>
      <point x="694" y="322.684" type="curve" smooth="yes"/>
      <point x="694" y="528"/>
      <point x="546" y="658"/>
      <point x="365.082" y="658" type="curve" smooth="yes"/>
      <point x="165" y="658"/>
      <point x="37" y="499"/>
      <point x="37" y="314.896" type="curve" smooth="yes"/>
      <point x="37" y="111"/>
      <point x="194" y="-10"/>
      <point x="372.41" y="-10" type="curve" smooth="yes"/>
      <point x="565" y="-10"/>
      <point x="694" y="131"/>
    </contour>
    <contour>
      <point x="354.246" y="618" type="curve" smooth="yes"/>
      <point x="458" y="618"/>
      <point x="543" y="512.64"/>
      <point x="543" y="308.945" type="curve" smooth="yes"/>
      <point x="543" y="142.377"/>
      <point x="485" y="32"/>
      <point x="379.259" y="32" type="curve" smooth="yes"/>
      <point x="274" y="32"/>
      <point x="188" y="141.373"/>
      <point x="188" y="330.017" type="curve" smooth="yes"/>
      <point x="188" y="534.716"/>
      <point x="262" y="618"/>
    </contour>
    <contour>
      <point x="200.552" y="168.349" type="line"/>
      <point x="221.529" y="120.368" type="line"/>
      <point x="525.471" y="493.632" type="line"/>
      <point x="502.448" y="540.651" type="line"/>
    </contour>
    <contour>
      <point x="52" y="-14" type="line"/>
      <point x="57.4107" y="-31.2601"/>
      <point x="71.3663" y="-45"/>
      <point x="88" y="-45" type="curve"/>
      <point x="175.4" y="63.6895" type="line"/>
      <point x="139.459" y="93.6417" type="line"/>
    </contour>
    <contour>
      <point x="544.587" y="591.321" type="line"/>
      <point x="581.587" y="562.321" type="line"/>
      <point x="645" y="641" type="line"/>
      <point x="641.071" y="658"/>
      <point x="624.415" y="670"/>
      <point x="608" y="670" type="curve"/>
    </contour>
  </outline>
</glyph>
<glyph name="Thorn" format="2">
  <advance width="605"/>
  <unicode hex="00DE"/>
  <anchor x="304" y="740" name="top"/>
  <anchor x="304" y="-60" name="b.minus-60"/>
  <outline>
    <contour>
      <point x="113" y="122" type="line" smooth="yes"/>
      <point x="113" y="39"/>
      <point x="85" y="35"/>
      <point x="30" y="32" type="curve"/>
      <point x="20" y="26"/>
      <point x="20" y="4"/>
      <point x="30" y="-2" type="curve"/>
      <point x="70" y="-1"/>
      <point x="144" y="0"/>
      <point x="184" y="0" type="curve" smooth="yes"/>
      <point x="224" y="0"/>
      <point x="296" y="-1"/>
      <point x="336" y="-2" type="curve"/>
      <point x="346" y="4"/>
      <point x="346" y="26"/>
      <point x="336" y="32" type="curve"/>
      <point x="281" y="35"/>
      <point x="253" y="39"/>
      <point x="253" y="122" type="curve" smooth="yes"/>
      <point x="253" y="156" type="line"/>
      <point x="270" y="151"/>
      <point x="304" y="150"/>
      <point x="338" y="150" type="curve" smooth="yes"/>
      <point x="515" y="150"/>
      <point x="581" y="268"/>
      <point x="581" y="343" type="curve" smooth="yes"/>
      <point x="581" y="414"/>
      <point x="536" y="523"/>
      <point x="351" y="523" type="curve" smooth="yes"/>
      <point x="314" y="523"/>
      <point x="290" y="522"/>
      <point x="253" y="518" type="curve"/>
      <point x="253" y="523" type="line" smooth="yes"/>
      <point x="253" y="606"/>
      <point x="281" y="610"/>
      <point x="336" y="613" type="curve"/>
      <point x="346" y="619"/>
      <point x="346" y="641"/>
      <point x="336" y="647" type="curve"/>
      <point x="296" y="646"/>
      <point x="224" y="645"/>
      <point x="184" y="645" type="curve" smooth="yes"/>
      <point x="144" y="645"/>
      <point x="70" y="646"/>
      <point x="30" y="647" type="curve"/>
      <point x="20" y="641"/>
      <point x="20" y="619"/>
      <point x="30" y="613" type="curve"/>
      <point x="85" y="610"/>
      <point x="113" y="606"/>
      <point x="113" y="523" type="curve" smooth="yes"/>
    </contour>
    <contour>
      <point x="253" y="194" type="curve"/>
      <point x="253" y="475" type="line"/>
      <point x="276" y="479"/>
      <point x="321" y="482"/>
      <point x="339" y="482" type="curve" smooth="yes"/>
      <point x="399" y="482"/>
      <point x="430" y="431"/>
      <point x="430" y="343" type="curve" smooth="yes"/>
      <point x="430" y="234"/>
      <point x="393" y="191"/>
      <point x="321" y="191" type="curve" smooth="yes"/>
      <point x="287" y="191"/>
      <point x="264" y="193"/>
    </contour>
  </outline>
</glyph>
<glyph name="germandbls" format="2">
  <advance width="615"/>
  <unicode hex="00DF"/>
  <outline>
    <contour>
      <point x="100" y="126" type="line" smooth="yes"/>
      <point x="100" y="49.2662"/>
      <point x="88.4949" y="35.2211"/>
      <point x="23" y="32" type="curve"/>
      <point x="17" y="26"/>
      <point x="17" y="4"/>
      <point x="23" y="-2" type="curve"/>
      <point x="76.28" y="-0.56"/>
      <point x="111" y="0"/>
      <point x="147" y="0" type="curve" smooth="yes"/>
      <point x="153" y="0"/>
      <point x="159" y="0"/>
      <point x="165" y="0" type="curve" smooth="yes"/>
      <point x="217.5" y="0"/>
      <point x="239.5" y="-0.4783"/>
      <point x="257" y="-2" type="curve"/>
      <point x="263" y="4"/>
      <point x="263" y="26"/>
      <point x="257" y="32" type="curve"/>
      <point x="238.342" y="38.7848"/>
      <point x="230" y="68.4444"/>
      <point x="230" y="128" type="curve" smooth="yes"/>
      <point x="230" y="447" type="line" smooth="yes"/>
      <point x="230" y="579.375"/>
      <point x="265.196" y="656"/>
      <point x="326" y="656" type="curve" smooth="yes"/>
      <point x="365.543" y="656"/>
      <point x="386" y="624.633"/>
      <point x="386" y="564" type="curve" smooth="yes"/>
      <point x="386" y="476"/>
      <point x="376.243" y="453.427"/>
      <point x="319" y="409" type="curve"/>
      <point x="319" y="386" type="line"/>
      <point x="397.514" y="326.18"/>
      <point x="432" y="255.987"/>
      <point x="432" y="156" type="curve" smooth="yes"/>
      <point x="432" y="68.1474"/>
      <point x="420.22" y="32"/>
      <point x="391.588" y="32" type="curve" smooth="yes"/>
      <point x="374.706" y="32"/>
      <point x="364" y="40.1493"/>
      <point x="364" y="53" type="curve" smooth="yes"/>
      <point x="364" y="75.0339"/>
      <point x="379" y="85.6293"/>
      <point x="379" y="106.227" type="curve" smooth="yes"/>
      <point x="379" y="129.417"/>
      <point x="359.763" y="146"/>
      <point x="332.862" y="146" type="curve" smooth="yes"/>
      <point x="303.431" y="146"/>
      <point x="286" y="126.008"/>
      <point x="286" y="92.2531" type="curve" smooth="yes"/>
      <point x="286" y="32.3573"/>
      <point x="334.466" y="-10"/>
      <point x="403" y="-10" type="curve" smooth="yes"/>
      <point x="498.057" y="-10"/>
      <point x="574" y="71.2719"/>
      <point x="574" y="173" type="curve" smooth="yes"/>
      <point x="574" y="273.5"/>
      <point x="494.688" y="369.982"/>
      <point x="380" y="409" type="curve"/>
      <point x="380" y="412" type="line"/>
      <point x="485.304" y="460.139"/>
      <point x="521" y="501.911"/>
      <point x="521" y="577" type="curve" smooth="yes"/>
      <point x="521" y="650.595"/>
      <point x="452.047" y="698"/>
      <point x="345" y="698" type="curve" smooth="yes"/>
      <point x="212.991" y="698"/>
      <point x="100" y="598.384"/>
      <point x="100" y="482" type="curve" smooth="yes"/>
      <point x="100" y="450.786"/>
      <point x="85.3125" y="434"/>
      <point x="58" y="434" type="curve" smooth="yes"/>
      <point x="39.7362" y="434"/>
      <point x="28" y="423.581"/>
      <point x="28" y="407.367" type="curve" smooth="yes"/>
      <point x="28" y="395.617"/>
      <point x="28.7717" y="386.596"/>
      <point x="29.9989" y="384" type="curve"/>
      <point x="100" y="384.153" type="line"/>
    </contour>
  </outline>
</glyph>
